G04 #@! TF.FileFunction,Copper,L4,Bot,Signal*
%FSLAX46Y46*%
G04 Gerber Fmt 4.6, Leading zero omitted, Abs format (unit mm)*
G04 Created by KiCad (PCBNEW 4.0.2-stable) date Monday, December 19, 2016 'PMt' 09:34:40 PM*
%MOMM*%
G01*
G04 APERTURE LIST*
%ADD10C,0.100000*%
%ADD11R,1.500000X1.250000*%
%ADD12R,2.000000X1.600000*%
%ADD13R,1.800000X1.800000*%
%ADD14R,1.727200X2.032000*%
%ADD15O,1.727200X2.032000*%
%ADD16R,1.300000X1.500000*%
%ADD17R,2.235200X2.235200*%
%ADD18R,2.032000X2.032000*%
%ADD19O,2.032000X2.032000*%
%ADD20C,0.889000*%
%ADD21C,0.685800*%
%ADD22C,0.609600*%
%ADD23C,0.254000*%
G04 APERTURE END LIST*
D10*
D11*
X154158000Y-71374000D03*
X151658000Y-71374000D03*
D12*
X154400000Y-75692000D03*
X150400000Y-75692000D03*
D11*
X144266600Y-84556600D03*
X146766600Y-84556600D03*
X150043200Y-101650800D03*
X147543200Y-101650800D03*
D13*
X140481000Y-72136000D03*
X133331000Y-72136000D03*
X140481000Y-84836000D03*
X133331000Y-84836000D03*
X133331000Y-97536000D03*
X140481000Y-97536000D03*
X140481000Y-110236000D03*
X133331000Y-110236000D03*
D14*
X143383000Y-114427000D03*
D15*
X145923000Y-114427000D03*
X148463000Y-114427000D03*
X151003000Y-114427000D03*
X153543000Y-114427000D03*
D16*
X153543000Y-111078000D03*
X153543000Y-108378000D03*
X151003000Y-111078000D03*
X151003000Y-108378000D03*
X148463000Y-111078000D03*
X148463000Y-108378000D03*
X145923000Y-111078000D03*
X145923000Y-108378000D03*
D17*
X132588000Y-67818000D03*
X133223000Y-78867000D03*
X138938000Y-102235000D03*
X138303000Y-114427000D03*
D18*
X151384000Y-67818000D03*
D19*
X153924000Y-67818000D03*
D17*
X153797000Y-79756000D03*
X143256000Y-68326000D03*
X153543000Y-97409000D03*
D20*
X154457400Y-70053200D03*
X132461000Y-74549000D03*
X154457400Y-94208600D03*
X150088600Y-87147400D03*
X145288000Y-101600000D03*
X144373600Y-87147400D03*
X150037800Y-81940400D03*
X140970000Y-82092800D03*
X150063200Y-84531200D03*
X133324600Y-108280200D03*
X152374600Y-72390000D03*
X139573000Y-94615000D03*
X133350000Y-82550000D03*
X151358600Y-103225600D03*
X154381200Y-88366600D03*
X144018000Y-108331000D03*
X144729200Y-82854800D03*
X152425400Y-75565000D03*
X154762200Y-73329800D03*
D21*
X140462000Y-75234800D03*
X148361400Y-93827600D03*
X145440400Y-81076800D03*
X139623800Y-87680800D03*
X145338800Y-99923600D03*
X146685000Y-96393000D03*
X133858000Y-95148400D03*
X139573000Y-112141000D03*
D22*
X153924000Y-67818000D02*
X153924000Y-69519800D01*
X153924000Y-69519800D02*
X154457400Y-70053200D01*
X154158000Y-70352600D02*
X154158000Y-71374000D01*
X154457400Y-70053200D02*
X154158000Y-70352600D01*
X133331000Y-72136000D02*
X133331000Y-73679000D01*
X133331000Y-73679000D02*
X132461000Y-74549000D01*
X151658000Y-71374000D02*
X151658000Y-68092000D01*
X151658000Y-68092000D02*
X151384000Y-67818000D01*
X147543200Y-101650800D02*
X145338800Y-101650800D01*
X145338800Y-101650800D02*
X145288000Y-101600000D01*
X150037800Y-84556600D02*
X150063200Y-84531200D01*
X150037800Y-84556600D02*
X146766600Y-84556600D01*
X133331000Y-110236000D02*
X133331000Y-108286600D01*
X133331000Y-108286600D02*
X133324600Y-108280200D01*
X151658000Y-71374000D02*
X151658000Y-74434000D01*
X151658000Y-74434000D02*
X150400000Y-75692000D01*
X140481000Y-97536000D02*
X140481000Y-95523000D01*
X140481000Y-95523000D02*
X139573000Y-94615000D01*
X133331000Y-84836000D02*
X133331000Y-82569000D01*
X133331000Y-82569000D02*
X133350000Y-82550000D01*
X151358600Y-103225600D02*
X150043200Y-101910200D01*
X150043200Y-101910200D02*
X150043200Y-101650800D01*
X145923000Y-108378000D02*
X144065000Y-108378000D01*
X144065000Y-108378000D02*
X144018000Y-108331000D01*
X148463000Y-108378000D02*
X145923000Y-108378000D01*
X151003000Y-108378000D02*
X148463000Y-108378000D01*
X153543000Y-108378000D02*
X151003000Y-108378000D01*
X144266600Y-84556600D02*
X144266600Y-83317400D01*
X144266600Y-83317400D02*
X144729200Y-82854800D01*
X154400000Y-75692000D02*
X154400000Y-74809600D01*
X154762200Y-74447400D02*
X154762200Y-73329800D01*
X154400000Y-74809600D02*
X154762200Y-74447400D01*
D23*
X140481000Y-75215800D02*
X140481000Y-72136000D01*
X140462000Y-75234800D02*
X140481000Y-75215800D01*
X145567400Y-91033600D02*
X148361400Y-93827600D01*
X145567400Y-81203800D02*
X145567400Y-91033600D01*
X145440400Y-81076800D02*
X145567400Y-81203800D01*
X140481000Y-86823600D02*
X140481000Y-84836000D01*
X139623800Y-87680800D02*
X140481000Y-86823600D01*
X145338800Y-97739200D02*
X145338800Y-99923600D01*
X146685000Y-96393000D02*
X145338800Y-97739200D01*
X133331000Y-95675400D02*
X133331000Y-97536000D01*
X133858000Y-95148400D02*
X133331000Y-95675400D01*
X140481000Y-111233000D02*
X140481000Y-110236000D01*
X139573000Y-112141000D02*
X140481000Y-111233000D01*
X153543000Y-111078000D02*
X153543000Y-114427000D01*
X151003000Y-111078000D02*
X151003000Y-114427000D01*
X148463000Y-111078000D02*
X148463000Y-114427000D01*
X145923000Y-111078000D02*
X145923000Y-114427000D01*
M02*
