G04 #@! TF.FileFunction,Copper,L2,Inr,Signal*
%FSLAX46Y46*%
G04 Gerber Fmt 4.6, Leading zero omitted, Abs format (unit mm)*
G04 Created by KiCad (PCBNEW 4.0.2-stable) date Tuesday, December 20, 2016 'PMt' 02:13:57 PM*
%MOMM*%
G01*
G04 APERTURE LIST*
%ADD10C,0.100000*%
%ADD11R,1.727200X2.032000*%
%ADD12O,1.727200X2.032000*%
%ADD13R,2.235200X2.235200*%
%ADD14R,2.032000X2.032000*%
%ADD15O,2.032000X2.032000*%
%ADD16C,0.889000*%
%ADD17C,0.685800*%
%ADD18C,0.152400*%
G04 APERTURE END LIST*
D10*
D11*
X143383000Y-114427000D03*
D12*
X145923000Y-114427000D03*
X148463000Y-114427000D03*
X151003000Y-114427000D03*
X153543000Y-114427000D03*
D13*
X132588000Y-67818000D03*
X133223000Y-78867000D03*
X138938000Y-102235000D03*
X138303000Y-114427000D03*
D14*
X151384000Y-67818000D03*
D15*
X153924000Y-67818000D03*
D13*
X153797000Y-79756000D03*
X143256000Y-68326000D03*
X153543000Y-97409000D03*
D16*
X154457400Y-70053200D03*
X132461000Y-74549000D03*
X154457400Y-94208600D03*
X150088600Y-87147400D03*
X145288000Y-101600000D03*
X144373600Y-87147400D03*
X150037800Y-81940400D03*
X140970000Y-82092800D03*
X150063200Y-84531200D03*
X133324600Y-108280200D03*
X152374600Y-72390000D03*
X139573000Y-94615000D03*
X133350000Y-82550000D03*
X151358600Y-103225600D03*
X154381200Y-88366600D03*
X144018000Y-108331000D03*
X144729200Y-82854800D03*
X152425400Y-75565000D03*
X154762200Y-73329800D03*
D17*
X140462000Y-75234800D03*
X148361400Y-93827600D03*
X145440400Y-81076800D03*
X139623800Y-87680800D03*
X145338800Y-99923600D03*
X146685000Y-96393000D03*
X133858000Y-95148400D03*
X139573000Y-112141000D03*
D18*
G36*
X155550800Y-116180800D02*
X130961200Y-116180800D01*
X130961200Y-113309400D01*
X136848731Y-113309400D01*
X136848731Y-115544600D01*
X136871756Y-115666965D01*
X136944073Y-115779349D01*
X137054417Y-115854744D01*
X137185400Y-115881269D01*
X139420600Y-115881269D01*
X139542965Y-115858244D01*
X139655349Y-115785927D01*
X139730744Y-115675583D01*
X139757269Y-115544600D01*
X139757269Y-113411000D01*
X142182731Y-113411000D01*
X142182731Y-115443000D01*
X142205756Y-115565365D01*
X142278073Y-115677749D01*
X142388417Y-115753144D01*
X142519400Y-115779669D01*
X144246600Y-115779669D01*
X144368965Y-115756644D01*
X144481349Y-115684327D01*
X144556744Y-115573983D01*
X144583269Y-115443000D01*
X144583269Y-114248226D01*
X144729200Y-114248226D01*
X144729200Y-114605774D01*
X144820073Y-115062621D01*
X145078856Y-115449918D01*
X145466153Y-115708701D01*
X145923000Y-115799574D01*
X146379847Y-115708701D01*
X146767144Y-115449918D01*
X147025927Y-115062621D01*
X147116800Y-114605774D01*
X147116800Y-114248226D01*
X147269200Y-114248226D01*
X147269200Y-114605774D01*
X147360073Y-115062621D01*
X147618856Y-115449918D01*
X148006153Y-115708701D01*
X148463000Y-115799574D01*
X148919847Y-115708701D01*
X149307144Y-115449918D01*
X149565927Y-115062621D01*
X149656800Y-114605774D01*
X149656800Y-114248226D01*
X149809200Y-114248226D01*
X149809200Y-114605774D01*
X149900073Y-115062621D01*
X150158856Y-115449918D01*
X150546153Y-115708701D01*
X151003000Y-115799574D01*
X151459847Y-115708701D01*
X151847144Y-115449918D01*
X152105927Y-115062621D01*
X152196800Y-114605774D01*
X152196800Y-114248226D01*
X152349200Y-114248226D01*
X152349200Y-114605774D01*
X152440073Y-115062621D01*
X152698856Y-115449918D01*
X153086153Y-115708701D01*
X153543000Y-115799574D01*
X153999847Y-115708701D01*
X154387144Y-115449918D01*
X154645927Y-115062621D01*
X154736800Y-114605774D01*
X154736800Y-114248226D01*
X154645927Y-113791379D01*
X154387144Y-113404082D01*
X153999847Y-113145299D01*
X153543000Y-113054426D01*
X153086153Y-113145299D01*
X152698856Y-113404082D01*
X152440073Y-113791379D01*
X152349200Y-114248226D01*
X152196800Y-114248226D01*
X152105927Y-113791379D01*
X151847144Y-113404082D01*
X151459847Y-113145299D01*
X151003000Y-113054426D01*
X150546153Y-113145299D01*
X150158856Y-113404082D01*
X149900073Y-113791379D01*
X149809200Y-114248226D01*
X149656800Y-114248226D01*
X149565927Y-113791379D01*
X149307144Y-113404082D01*
X148919847Y-113145299D01*
X148463000Y-113054426D01*
X148006153Y-113145299D01*
X147618856Y-113404082D01*
X147360073Y-113791379D01*
X147269200Y-114248226D01*
X147116800Y-114248226D01*
X147025927Y-113791379D01*
X146767144Y-113404082D01*
X146379847Y-113145299D01*
X145923000Y-113054426D01*
X145466153Y-113145299D01*
X145078856Y-113404082D01*
X144820073Y-113791379D01*
X144729200Y-114248226D01*
X144583269Y-114248226D01*
X144583269Y-113411000D01*
X144560244Y-113288635D01*
X144487927Y-113176251D01*
X144377583Y-113100856D01*
X144246600Y-113074331D01*
X142519400Y-113074331D01*
X142397035Y-113097356D01*
X142284651Y-113169673D01*
X142209256Y-113280017D01*
X142182731Y-113411000D01*
X139757269Y-113411000D01*
X139757269Y-113309400D01*
X139734244Y-113187035D01*
X139661927Y-113074651D01*
X139551583Y-112999256D01*
X139420600Y-112972731D01*
X137185400Y-112972731D01*
X137063035Y-112995756D01*
X136950651Y-113068073D01*
X136875256Y-113178417D01*
X136848731Y-113309400D01*
X130961200Y-113309400D01*
X130961200Y-112274301D01*
X138899783Y-112274301D01*
X139002041Y-112521783D01*
X139191222Y-112711294D01*
X139438525Y-112813983D01*
X139706301Y-112814217D01*
X139953783Y-112711959D01*
X140143294Y-112522778D01*
X140245983Y-112275475D01*
X140246217Y-112007699D01*
X140143959Y-111760217D01*
X139954778Y-111570706D01*
X139707475Y-111468017D01*
X139439699Y-111467783D01*
X139192217Y-111570041D01*
X139002706Y-111759222D01*
X138900017Y-112006525D01*
X138899783Y-112274301D01*
X130961200Y-112274301D01*
X130961200Y-108433621D01*
X132549766Y-108433621D01*
X132667459Y-108718459D01*
X132885195Y-108936576D01*
X133169827Y-109054765D01*
X133478021Y-109055034D01*
X133762859Y-108937341D01*
X133980976Y-108719605D01*
X134099165Y-108434973D01*
X134099434Y-108126779D01*
X133981741Y-107841941D01*
X133764005Y-107623824D01*
X133479373Y-107505635D01*
X133171179Y-107505366D01*
X132886341Y-107623059D01*
X132668224Y-107840795D01*
X132550035Y-108125427D01*
X132549766Y-108433621D01*
X130961200Y-108433621D01*
X130961200Y-101117400D01*
X137483731Y-101117400D01*
X137483731Y-103352600D01*
X137506756Y-103474965D01*
X137579073Y-103587349D01*
X137689417Y-103662744D01*
X137820400Y-103689269D01*
X140055600Y-103689269D01*
X140177965Y-103666244D01*
X140290349Y-103593927D01*
X140365744Y-103483583D01*
X140392269Y-103352600D01*
X140392269Y-101753421D01*
X144513166Y-101753421D01*
X144630859Y-102038259D01*
X144848595Y-102256376D01*
X145133227Y-102374565D01*
X145441421Y-102374834D01*
X145726259Y-102257141D01*
X145944376Y-102039405D01*
X146062565Y-101754773D01*
X146062834Y-101446579D01*
X145945141Y-101161741D01*
X145727405Y-100943624D01*
X145442773Y-100825435D01*
X145134579Y-100825166D01*
X144849741Y-100942859D01*
X144631624Y-101160595D01*
X144513435Y-101445227D01*
X144513166Y-101753421D01*
X140392269Y-101753421D01*
X140392269Y-101117400D01*
X140369244Y-100995035D01*
X140296927Y-100882651D01*
X140186583Y-100807256D01*
X140055600Y-100780731D01*
X137820400Y-100780731D01*
X137698035Y-100803756D01*
X137585651Y-100876073D01*
X137510256Y-100986417D01*
X137483731Y-101117400D01*
X130961200Y-101117400D01*
X130961200Y-100056901D01*
X144665583Y-100056901D01*
X144767841Y-100304383D01*
X144957022Y-100493894D01*
X145204325Y-100596583D01*
X145472101Y-100596817D01*
X145719583Y-100494559D01*
X145909094Y-100305378D01*
X146011783Y-100058075D01*
X146012017Y-99790299D01*
X145909759Y-99542817D01*
X145720578Y-99353306D01*
X145473275Y-99250617D01*
X145205499Y-99250383D01*
X144958017Y-99352641D01*
X144768506Y-99541822D01*
X144665817Y-99789125D01*
X144665583Y-100056901D01*
X130961200Y-100056901D01*
X130961200Y-96526301D01*
X146011783Y-96526301D01*
X146114041Y-96773783D01*
X146303222Y-96963294D01*
X146550525Y-97065983D01*
X146818301Y-97066217D01*
X147065783Y-96963959D01*
X147255294Y-96774778D01*
X147357983Y-96527475D01*
X147358189Y-96291400D01*
X152088731Y-96291400D01*
X152088731Y-98526600D01*
X152111756Y-98648965D01*
X152184073Y-98761349D01*
X152294417Y-98836744D01*
X152425400Y-98863269D01*
X154660600Y-98863269D01*
X154782965Y-98840244D01*
X154895349Y-98767927D01*
X154970744Y-98657583D01*
X154997269Y-98526600D01*
X154997269Y-96291400D01*
X154974244Y-96169035D01*
X154901927Y-96056651D01*
X154791583Y-95981256D01*
X154660600Y-95954731D01*
X152425400Y-95954731D01*
X152303035Y-95977756D01*
X152190651Y-96050073D01*
X152115256Y-96160417D01*
X152088731Y-96291400D01*
X147358189Y-96291400D01*
X147358217Y-96259699D01*
X147255959Y-96012217D01*
X147066778Y-95822706D01*
X146819475Y-95720017D01*
X146551699Y-95719783D01*
X146304217Y-95822041D01*
X146114706Y-96011222D01*
X146012017Y-96258525D01*
X146011783Y-96526301D01*
X130961200Y-96526301D01*
X130961200Y-95281701D01*
X133184783Y-95281701D01*
X133287041Y-95529183D01*
X133476222Y-95718694D01*
X133723525Y-95821383D01*
X133991301Y-95821617D01*
X134238783Y-95719359D01*
X134428294Y-95530178D01*
X134530983Y-95282875D01*
X134531217Y-95015099D01*
X134429292Y-94768421D01*
X138798166Y-94768421D01*
X138915859Y-95053259D01*
X139133595Y-95271376D01*
X139418227Y-95389565D01*
X139726421Y-95389834D01*
X140011259Y-95272141D01*
X140229376Y-95054405D01*
X140347565Y-94769773D01*
X140347834Y-94461579D01*
X140230141Y-94176741D01*
X140014679Y-93960901D01*
X147688183Y-93960901D01*
X147790441Y-94208383D01*
X147979622Y-94397894D01*
X148226925Y-94500583D01*
X148494701Y-94500817D01*
X148742183Y-94398559D01*
X148778784Y-94362021D01*
X153682566Y-94362021D01*
X153800259Y-94646859D01*
X154017995Y-94864976D01*
X154302627Y-94983165D01*
X154610821Y-94983434D01*
X154895659Y-94865741D01*
X155113776Y-94648005D01*
X155231965Y-94363373D01*
X155232234Y-94055179D01*
X155114541Y-93770341D01*
X154896805Y-93552224D01*
X154612173Y-93434035D01*
X154303979Y-93433766D01*
X154019141Y-93551459D01*
X153801024Y-93769195D01*
X153682835Y-94053827D01*
X153682566Y-94362021D01*
X148778784Y-94362021D01*
X148931694Y-94209378D01*
X149034383Y-93962075D01*
X149034617Y-93694299D01*
X148932359Y-93446817D01*
X148743178Y-93257306D01*
X148495875Y-93154617D01*
X148228099Y-93154383D01*
X147980617Y-93256641D01*
X147791106Y-93445822D01*
X147688417Y-93693125D01*
X147688183Y-93960901D01*
X140014679Y-93960901D01*
X140012405Y-93958624D01*
X139727773Y-93840435D01*
X139419579Y-93840166D01*
X139134741Y-93957859D01*
X138916624Y-94175595D01*
X138798435Y-94460227D01*
X138798166Y-94768421D01*
X134429292Y-94768421D01*
X134428959Y-94767617D01*
X134239778Y-94578106D01*
X133992475Y-94475417D01*
X133724699Y-94475183D01*
X133477217Y-94577441D01*
X133287706Y-94766622D01*
X133185017Y-95013925D01*
X133184783Y-95281701D01*
X130961200Y-95281701D01*
X130961200Y-87814101D01*
X138950583Y-87814101D01*
X139052841Y-88061583D01*
X139242022Y-88251094D01*
X139489325Y-88353783D01*
X139757101Y-88354017D01*
X140004583Y-88251759D01*
X140194094Y-88062578D01*
X140296783Y-87815275D01*
X140297017Y-87547499D01*
X140195092Y-87300821D01*
X143598766Y-87300821D01*
X143716459Y-87585659D01*
X143934195Y-87803776D01*
X144218827Y-87921965D01*
X144527021Y-87922234D01*
X144811859Y-87804541D01*
X145029976Y-87586805D01*
X145148165Y-87302173D01*
X145148166Y-87300821D01*
X149313766Y-87300821D01*
X149431459Y-87585659D01*
X149649195Y-87803776D01*
X149933827Y-87921965D01*
X150242021Y-87922234D01*
X150526859Y-87804541D01*
X150744976Y-87586805D01*
X150863165Y-87302173D01*
X150863434Y-86993979D01*
X150745741Y-86709141D01*
X150528005Y-86491024D01*
X150243373Y-86372835D01*
X149935179Y-86372566D01*
X149650341Y-86490259D01*
X149432224Y-86707995D01*
X149314035Y-86992627D01*
X149313766Y-87300821D01*
X145148166Y-87300821D01*
X145148434Y-86993979D01*
X145030741Y-86709141D01*
X144813005Y-86491024D01*
X144528373Y-86372835D01*
X144220179Y-86372566D01*
X143935341Y-86490259D01*
X143717224Y-86707995D01*
X143599035Y-86992627D01*
X143598766Y-87300821D01*
X140195092Y-87300821D01*
X140194759Y-87300017D01*
X140005578Y-87110506D01*
X139758275Y-87007817D01*
X139490499Y-87007583D01*
X139243017Y-87109841D01*
X139053506Y-87299022D01*
X138950817Y-87546325D01*
X138950583Y-87814101D01*
X130961200Y-87814101D01*
X130961200Y-84684621D01*
X149288366Y-84684621D01*
X149406059Y-84969459D01*
X149623795Y-85187576D01*
X149908427Y-85305765D01*
X150216621Y-85306034D01*
X150501459Y-85188341D01*
X150719576Y-84970605D01*
X150837765Y-84685973D01*
X150838034Y-84377779D01*
X150720341Y-84092941D01*
X150502605Y-83874824D01*
X150217973Y-83756635D01*
X149909779Y-83756366D01*
X149624941Y-83874059D01*
X149406824Y-84091795D01*
X149288635Y-84376427D01*
X149288366Y-84684621D01*
X130961200Y-84684621D01*
X130961200Y-82703421D01*
X132575166Y-82703421D01*
X132692859Y-82988259D01*
X132910595Y-83206376D01*
X133195227Y-83324565D01*
X133503421Y-83324834D01*
X133788259Y-83207141D01*
X134006376Y-82989405D01*
X134124565Y-82704773D01*
X134124834Y-82396579D01*
X134062708Y-82246221D01*
X140195166Y-82246221D01*
X140312859Y-82531059D01*
X140530595Y-82749176D01*
X140815227Y-82867365D01*
X141123421Y-82867634D01*
X141408259Y-82749941D01*
X141626376Y-82532205D01*
X141744565Y-82247573D01*
X141744699Y-82093821D01*
X149262966Y-82093821D01*
X149380659Y-82378659D01*
X149598395Y-82596776D01*
X149883027Y-82714965D01*
X150191221Y-82715234D01*
X150476059Y-82597541D01*
X150694176Y-82379805D01*
X150812365Y-82095173D01*
X150812634Y-81786979D01*
X150694941Y-81502141D01*
X150477205Y-81284024D01*
X150192573Y-81165835D01*
X149884379Y-81165566D01*
X149599541Y-81283259D01*
X149381424Y-81500995D01*
X149263235Y-81785627D01*
X149262966Y-82093821D01*
X141744699Y-82093821D01*
X141744834Y-81939379D01*
X141627141Y-81654541D01*
X141409405Y-81436424D01*
X141124773Y-81318235D01*
X140816579Y-81317966D01*
X140531741Y-81435659D01*
X140313624Y-81653395D01*
X140195435Y-81938027D01*
X140195166Y-82246221D01*
X134062708Y-82246221D01*
X134007141Y-82111741D01*
X133789405Y-81893624D01*
X133504773Y-81775435D01*
X133196579Y-81775166D01*
X132911741Y-81892859D01*
X132693624Y-82110595D01*
X132575435Y-82395227D01*
X132575166Y-82703421D01*
X130961200Y-82703421D01*
X130961200Y-81210101D01*
X144767183Y-81210101D01*
X144869441Y-81457583D01*
X145058622Y-81647094D01*
X145305925Y-81749783D01*
X145573701Y-81750017D01*
X145821183Y-81647759D01*
X146010694Y-81458578D01*
X146113383Y-81211275D01*
X146113617Y-80943499D01*
X146011359Y-80696017D01*
X145822178Y-80506506D01*
X145574875Y-80403817D01*
X145307099Y-80403583D01*
X145059617Y-80505841D01*
X144870106Y-80695022D01*
X144767417Y-80942325D01*
X144767183Y-81210101D01*
X130961200Y-81210101D01*
X130961200Y-77749400D01*
X131768731Y-77749400D01*
X131768731Y-79984600D01*
X131791756Y-80106965D01*
X131864073Y-80219349D01*
X131974417Y-80294744D01*
X132105400Y-80321269D01*
X134340600Y-80321269D01*
X134462965Y-80298244D01*
X134575349Y-80225927D01*
X134650744Y-80115583D01*
X134677269Y-79984600D01*
X134677269Y-79889350D01*
X152349200Y-79889350D01*
X152349200Y-80939281D01*
X152399470Y-81060643D01*
X152492357Y-81153530D01*
X152613719Y-81203800D01*
X153663650Y-81203800D01*
X153746200Y-81121250D01*
X153746200Y-79806800D01*
X153847800Y-79806800D01*
X153847800Y-81121250D01*
X153930350Y-81203800D01*
X154980281Y-81203800D01*
X155101643Y-81153530D01*
X155194530Y-81060643D01*
X155244800Y-80939281D01*
X155244800Y-79889350D01*
X155162250Y-79806800D01*
X153847800Y-79806800D01*
X153746200Y-79806800D01*
X152431750Y-79806800D01*
X152349200Y-79889350D01*
X134677269Y-79889350D01*
X134677269Y-78572719D01*
X152349200Y-78572719D01*
X152349200Y-79622650D01*
X152431750Y-79705200D01*
X153746200Y-79705200D01*
X153746200Y-78390750D01*
X153847800Y-78390750D01*
X153847800Y-79705200D01*
X155162250Y-79705200D01*
X155244800Y-79622650D01*
X155244800Y-78572719D01*
X155194530Y-78451357D01*
X155101643Y-78358470D01*
X154980281Y-78308200D01*
X153930350Y-78308200D01*
X153847800Y-78390750D01*
X153746200Y-78390750D01*
X153663650Y-78308200D01*
X152613719Y-78308200D01*
X152492357Y-78358470D01*
X152399470Y-78451357D01*
X152349200Y-78572719D01*
X134677269Y-78572719D01*
X134677269Y-77749400D01*
X134654244Y-77627035D01*
X134581927Y-77514651D01*
X134471583Y-77439256D01*
X134340600Y-77412731D01*
X132105400Y-77412731D01*
X131983035Y-77435756D01*
X131870651Y-77508073D01*
X131795256Y-77618417D01*
X131768731Y-77749400D01*
X130961200Y-77749400D01*
X130961200Y-75368101D01*
X139788783Y-75368101D01*
X139891041Y-75615583D01*
X140080222Y-75805094D01*
X140327525Y-75907783D01*
X140595301Y-75908017D01*
X140842783Y-75805759D01*
X141032294Y-75616578D01*
X141134983Y-75369275D01*
X141135217Y-75101499D01*
X141032959Y-74854017D01*
X140843778Y-74664506D01*
X140596475Y-74561817D01*
X140328699Y-74561583D01*
X140081217Y-74663841D01*
X139891706Y-74853022D01*
X139789017Y-75100325D01*
X139788783Y-75368101D01*
X130961200Y-75368101D01*
X130961200Y-74702421D01*
X131686166Y-74702421D01*
X131803859Y-74987259D01*
X132021595Y-75205376D01*
X132306227Y-75323565D01*
X132614421Y-75323834D01*
X132899259Y-75206141D01*
X133117376Y-74988405D01*
X133235565Y-74703773D01*
X133235834Y-74395579D01*
X133118141Y-74110741D01*
X132900405Y-73892624D01*
X132615773Y-73774435D01*
X132307579Y-73774166D01*
X132022741Y-73891859D01*
X131804624Y-74109595D01*
X131686435Y-74394227D01*
X131686166Y-74702421D01*
X130961200Y-74702421D01*
X130961200Y-72543421D01*
X151599766Y-72543421D01*
X151717459Y-72828259D01*
X151935195Y-73046376D01*
X152219827Y-73164565D01*
X152528021Y-73164834D01*
X152812859Y-73047141D01*
X153030976Y-72829405D01*
X153149165Y-72544773D01*
X153149434Y-72236579D01*
X153031741Y-71951741D01*
X152814005Y-71733624D01*
X152529373Y-71615435D01*
X152221179Y-71615166D01*
X151936341Y-71732859D01*
X151718224Y-71950595D01*
X151600035Y-72235227D01*
X151599766Y-72543421D01*
X130961200Y-72543421D01*
X130961200Y-70206621D01*
X153682566Y-70206621D01*
X153800259Y-70491459D01*
X154017995Y-70709576D01*
X154302627Y-70827765D01*
X154610821Y-70828034D01*
X154895659Y-70710341D01*
X155113776Y-70492605D01*
X155231965Y-70207973D01*
X155232234Y-69899779D01*
X155114541Y-69614941D01*
X154896805Y-69396824D01*
X154612173Y-69278635D01*
X154303979Y-69278366D01*
X154019141Y-69396059D01*
X153801024Y-69613795D01*
X153682835Y-69898427D01*
X153682566Y-70206621D01*
X130961200Y-70206621D01*
X130961200Y-66700400D01*
X131133731Y-66700400D01*
X131133731Y-68935600D01*
X131156756Y-69057965D01*
X131229073Y-69170349D01*
X131339417Y-69245744D01*
X131470400Y-69272269D01*
X133705600Y-69272269D01*
X133827965Y-69249244D01*
X133940349Y-69176927D01*
X134015744Y-69066583D01*
X134042269Y-68935600D01*
X134042269Y-67208400D01*
X141801731Y-67208400D01*
X141801731Y-69443600D01*
X141824756Y-69565965D01*
X141897073Y-69678349D01*
X142007417Y-69753744D01*
X142138400Y-69780269D01*
X144373600Y-69780269D01*
X144495965Y-69757244D01*
X144608349Y-69684927D01*
X144683744Y-69574583D01*
X144710269Y-69443600D01*
X144710269Y-67208400D01*
X144687244Y-67086035D01*
X144614927Y-66973651D01*
X144504583Y-66898256D01*
X144373600Y-66871731D01*
X142138400Y-66871731D01*
X142016035Y-66894756D01*
X141903651Y-66967073D01*
X141828256Y-67077417D01*
X141801731Y-67208400D01*
X134042269Y-67208400D01*
X134042269Y-66802000D01*
X150031331Y-66802000D01*
X150031331Y-68834000D01*
X150054356Y-68956365D01*
X150126673Y-69068749D01*
X150237017Y-69144144D01*
X150368000Y-69170669D01*
X152400000Y-69170669D01*
X152522365Y-69147644D01*
X152634749Y-69075327D01*
X152710144Y-68964983D01*
X152736669Y-68834000D01*
X152736669Y-68443944D01*
X152972093Y-68796281D01*
X153408832Y-69088101D01*
X153924000Y-69190574D01*
X154439168Y-69088101D01*
X154875907Y-68796281D01*
X155167727Y-68359542D01*
X155270200Y-67844374D01*
X155270200Y-67791626D01*
X155167727Y-67276458D01*
X154875907Y-66839719D01*
X154439168Y-66547899D01*
X153924000Y-66445426D01*
X153408832Y-66547899D01*
X152972093Y-66839719D01*
X152736669Y-67192056D01*
X152736669Y-66802000D01*
X152713644Y-66679635D01*
X152641327Y-66567251D01*
X152530983Y-66491856D01*
X152400000Y-66465331D01*
X150368000Y-66465331D01*
X150245635Y-66488356D01*
X150133251Y-66560673D01*
X150057856Y-66671017D01*
X150031331Y-66802000D01*
X134042269Y-66802000D01*
X134042269Y-66700400D01*
X134019244Y-66578035D01*
X133946927Y-66465651D01*
X133836583Y-66390256D01*
X133705600Y-66363731D01*
X131470400Y-66363731D01*
X131348035Y-66386756D01*
X131235651Y-66459073D01*
X131160256Y-66569417D01*
X131133731Y-66700400D01*
X130961200Y-66700400D01*
X130961200Y-66191200D01*
X155550800Y-66191200D01*
X155550800Y-116180800D01*
X155550800Y-116180800D01*
G37*
X155550800Y-116180800D02*
X130961200Y-116180800D01*
X130961200Y-113309400D01*
X136848731Y-113309400D01*
X136848731Y-115544600D01*
X136871756Y-115666965D01*
X136944073Y-115779349D01*
X137054417Y-115854744D01*
X137185400Y-115881269D01*
X139420600Y-115881269D01*
X139542965Y-115858244D01*
X139655349Y-115785927D01*
X139730744Y-115675583D01*
X139757269Y-115544600D01*
X139757269Y-113411000D01*
X142182731Y-113411000D01*
X142182731Y-115443000D01*
X142205756Y-115565365D01*
X142278073Y-115677749D01*
X142388417Y-115753144D01*
X142519400Y-115779669D01*
X144246600Y-115779669D01*
X144368965Y-115756644D01*
X144481349Y-115684327D01*
X144556744Y-115573983D01*
X144583269Y-115443000D01*
X144583269Y-114248226D01*
X144729200Y-114248226D01*
X144729200Y-114605774D01*
X144820073Y-115062621D01*
X145078856Y-115449918D01*
X145466153Y-115708701D01*
X145923000Y-115799574D01*
X146379847Y-115708701D01*
X146767144Y-115449918D01*
X147025927Y-115062621D01*
X147116800Y-114605774D01*
X147116800Y-114248226D01*
X147269200Y-114248226D01*
X147269200Y-114605774D01*
X147360073Y-115062621D01*
X147618856Y-115449918D01*
X148006153Y-115708701D01*
X148463000Y-115799574D01*
X148919847Y-115708701D01*
X149307144Y-115449918D01*
X149565927Y-115062621D01*
X149656800Y-114605774D01*
X149656800Y-114248226D01*
X149809200Y-114248226D01*
X149809200Y-114605774D01*
X149900073Y-115062621D01*
X150158856Y-115449918D01*
X150546153Y-115708701D01*
X151003000Y-115799574D01*
X151459847Y-115708701D01*
X151847144Y-115449918D01*
X152105927Y-115062621D01*
X152196800Y-114605774D01*
X152196800Y-114248226D01*
X152349200Y-114248226D01*
X152349200Y-114605774D01*
X152440073Y-115062621D01*
X152698856Y-115449918D01*
X153086153Y-115708701D01*
X153543000Y-115799574D01*
X153999847Y-115708701D01*
X154387144Y-115449918D01*
X154645927Y-115062621D01*
X154736800Y-114605774D01*
X154736800Y-114248226D01*
X154645927Y-113791379D01*
X154387144Y-113404082D01*
X153999847Y-113145299D01*
X153543000Y-113054426D01*
X153086153Y-113145299D01*
X152698856Y-113404082D01*
X152440073Y-113791379D01*
X152349200Y-114248226D01*
X152196800Y-114248226D01*
X152105927Y-113791379D01*
X151847144Y-113404082D01*
X151459847Y-113145299D01*
X151003000Y-113054426D01*
X150546153Y-113145299D01*
X150158856Y-113404082D01*
X149900073Y-113791379D01*
X149809200Y-114248226D01*
X149656800Y-114248226D01*
X149565927Y-113791379D01*
X149307144Y-113404082D01*
X148919847Y-113145299D01*
X148463000Y-113054426D01*
X148006153Y-113145299D01*
X147618856Y-113404082D01*
X147360073Y-113791379D01*
X147269200Y-114248226D01*
X147116800Y-114248226D01*
X147025927Y-113791379D01*
X146767144Y-113404082D01*
X146379847Y-113145299D01*
X145923000Y-113054426D01*
X145466153Y-113145299D01*
X145078856Y-113404082D01*
X144820073Y-113791379D01*
X144729200Y-114248226D01*
X144583269Y-114248226D01*
X144583269Y-113411000D01*
X144560244Y-113288635D01*
X144487927Y-113176251D01*
X144377583Y-113100856D01*
X144246600Y-113074331D01*
X142519400Y-113074331D01*
X142397035Y-113097356D01*
X142284651Y-113169673D01*
X142209256Y-113280017D01*
X142182731Y-113411000D01*
X139757269Y-113411000D01*
X139757269Y-113309400D01*
X139734244Y-113187035D01*
X139661927Y-113074651D01*
X139551583Y-112999256D01*
X139420600Y-112972731D01*
X137185400Y-112972731D01*
X137063035Y-112995756D01*
X136950651Y-113068073D01*
X136875256Y-113178417D01*
X136848731Y-113309400D01*
X130961200Y-113309400D01*
X130961200Y-112274301D01*
X138899783Y-112274301D01*
X139002041Y-112521783D01*
X139191222Y-112711294D01*
X139438525Y-112813983D01*
X139706301Y-112814217D01*
X139953783Y-112711959D01*
X140143294Y-112522778D01*
X140245983Y-112275475D01*
X140246217Y-112007699D01*
X140143959Y-111760217D01*
X139954778Y-111570706D01*
X139707475Y-111468017D01*
X139439699Y-111467783D01*
X139192217Y-111570041D01*
X139002706Y-111759222D01*
X138900017Y-112006525D01*
X138899783Y-112274301D01*
X130961200Y-112274301D01*
X130961200Y-108433621D01*
X132549766Y-108433621D01*
X132667459Y-108718459D01*
X132885195Y-108936576D01*
X133169827Y-109054765D01*
X133478021Y-109055034D01*
X133762859Y-108937341D01*
X133980976Y-108719605D01*
X134099165Y-108434973D01*
X134099434Y-108126779D01*
X133981741Y-107841941D01*
X133764005Y-107623824D01*
X133479373Y-107505635D01*
X133171179Y-107505366D01*
X132886341Y-107623059D01*
X132668224Y-107840795D01*
X132550035Y-108125427D01*
X132549766Y-108433621D01*
X130961200Y-108433621D01*
X130961200Y-101117400D01*
X137483731Y-101117400D01*
X137483731Y-103352600D01*
X137506756Y-103474965D01*
X137579073Y-103587349D01*
X137689417Y-103662744D01*
X137820400Y-103689269D01*
X140055600Y-103689269D01*
X140177965Y-103666244D01*
X140290349Y-103593927D01*
X140365744Y-103483583D01*
X140392269Y-103352600D01*
X140392269Y-101753421D01*
X144513166Y-101753421D01*
X144630859Y-102038259D01*
X144848595Y-102256376D01*
X145133227Y-102374565D01*
X145441421Y-102374834D01*
X145726259Y-102257141D01*
X145944376Y-102039405D01*
X146062565Y-101754773D01*
X146062834Y-101446579D01*
X145945141Y-101161741D01*
X145727405Y-100943624D01*
X145442773Y-100825435D01*
X145134579Y-100825166D01*
X144849741Y-100942859D01*
X144631624Y-101160595D01*
X144513435Y-101445227D01*
X144513166Y-101753421D01*
X140392269Y-101753421D01*
X140392269Y-101117400D01*
X140369244Y-100995035D01*
X140296927Y-100882651D01*
X140186583Y-100807256D01*
X140055600Y-100780731D01*
X137820400Y-100780731D01*
X137698035Y-100803756D01*
X137585651Y-100876073D01*
X137510256Y-100986417D01*
X137483731Y-101117400D01*
X130961200Y-101117400D01*
X130961200Y-100056901D01*
X144665583Y-100056901D01*
X144767841Y-100304383D01*
X144957022Y-100493894D01*
X145204325Y-100596583D01*
X145472101Y-100596817D01*
X145719583Y-100494559D01*
X145909094Y-100305378D01*
X146011783Y-100058075D01*
X146012017Y-99790299D01*
X145909759Y-99542817D01*
X145720578Y-99353306D01*
X145473275Y-99250617D01*
X145205499Y-99250383D01*
X144958017Y-99352641D01*
X144768506Y-99541822D01*
X144665817Y-99789125D01*
X144665583Y-100056901D01*
X130961200Y-100056901D01*
X130961200Y-96526301D01*
X146011783Y-96526301D01*
X146114041Y-96773783D01*
X146303222Y-96963294D01*
X146550525Y-97065983D01*
X146818301Y-97066217D01*
X147065783Y-96963959D01*
X147255294Y-96774778D01*
X147357983Y-96527475D01*
X147358189Y-96291400D01*
X152088731Y-96291400D01*
X152088731Y-98526600D01*
X152111756Y-98648965D01*
X152184073Y-98761349D01*
X152294417Y-98836744D01*
X152425400Y-98863269D01*
X154660600Y-98863269D01*
X154782965Y-98840244D01*
X154895349Y-98767927D01*
X154970744Y-98657583D01*
X154997269Y-98526600D01*
X154997269Y-96291400D01*
X154974244Y-96169035D01*
X154901927Y-96056651D01*
X154791583Y-95981256D01*
X154660600Y-95954731D01*
X152425400Y-95954731D01*
X152303035Y-95977756D01*
X152190651Y-96050073D01*
X152115256Y-96160417D01*
X152088731Y-96291400D01*
X147358189Y-96291400D01*
X147358217Y-96259699D01*
X147255959Y-96012217D01*
X147066778Y-95822706D01*
X146819475Y-95720017D01*
X146551699Y-95719783D01*
X146304217Y-95822041D01*
X146114706Y-96011222D01*
X146012017Y-96258525D01*
X146011783Y-96526301D01*
X130961200Y-96526301D01*
X130961200Y-95281701D01*
X133184783Y-95281701D01*
X133287041Y-95529183D01*
X133476222Y-95718694D01*
X133723525Y-95821383D01*
X133991301Y-95821617D01*
X134238783Y-95719359D01*
X134428294Y-95530178D01*
X134530983Y-95282875D01*
X134531217Y-95015099D01*
X134429292Y-94768421D01*
X138798166Y-94768421D01*
X138915859Y-95053259D01*
X139133595Y-95271376D01*
X139418227Y-95389565D01*
X139726421Y-95389834D01*
X140011259Y-95272141D01*
X140229376Y-95054405D01*
X140347565Y-94769773D01*
X140347834Y-94461579D01*
X140230141Y-94176741D01*
X140014679Y-93960901D01*
X147688183Y-93960901D01*
X147790441Y-94208383D01*
X147979622Y-94397894D01*
X148226925Y-94500583D01*
X148494701Y-94500817D01*
X148742183Y-94398559D01*
X148778784Y-94362021D01*
X153682566Y-94362021D01*
X153800259Y-94646859D01*
X154017995Y-94864976D01*
X154302627Y-94983165D01*
X154610821Y-94983434D01*
X154895659Y-94865741D01*
X155113776Y-94648005D01*
X155231965Y-94363373D01*
X155232234Y-94055179D01*
X155114541Y-93770341D01*
X154896805Y-93552224D01*
X154612173Y-93434035D01*
X154303979Y-93433766D01*
X154019141Y-93551459D01*
X153801024Y-93769195D01*
X153682835Y-94053827D01*
X153682566Y-94362021D01*
X148778784Y-94362021D01*
X148931694Y-94209378D01*
X149034383Y-93962075D01*
X149034617Y-93694299D01*
X148932359Y-93446817D01*
X148743178Y-93257306D01*
X148495875Y-93154617D01*
X148228099Y-93154383D01*
X147980617Y-93256641D01*
X147791106Y-93445822D01*
X147688417Y-93693125D01*
X147688183Y-93960901D01*
X140014679Y-93960901D01*
X140012405Y-93958624D01*
X139727773Y-93840435D01*
X139419579Y-93840166D01*
X139134741Y-93957859D01*
X138916624Y-94175595D01*
X138798435Y-94460227D01*
X138798166Y-94768421D01*
X134429292Y-94768421D01*
X134428959Y-94767617D01*
X134239778Y-94578106D01*
X133992475Y-94475417D01*
X133724699Y-94475183D01*
X133477217Y-94577441D01*
X133287706Y-94766622D01*
X133185017Y-95013925D01*
X133184783Y-95281701D01*
X130961200Y-95281701D01*
X130961200Y-87814101D01*
X138950583Y-87814101D01*
X139052841Y-88061583D01*
X139242022Y-88251094D01*
X139489325Y-88353783D01*
X139757101Y-88354017D01*
X140004583Y-88251759D01*
X140194094Y-88062578D01*
X140296783Y-87815275D01*
X140297017Y-87547499D01*
X140195092Y-87300821D01*
X143598766Y-87300821D01*
X143716459Y-87585659D01*
X143934195Y-87803776D01*
X144218827Y-87921965D01*
X144527021Y-87922234D01*
X144811859Y-87804541D01*
X145029976Y-87586805D01*
X145148165Y-87302173D01*
X145148166Y-87300821D01*
X149313766Y-87300821D01*
X149431459Y-87585659D01*
X149649195Y-87803776D01*
X149933827Y-87921965D01*
X150242021Y-87922234D01*
X150526859Y-87804541D01*
X150744976Y-87586805D01*
X150863165Y-87302173D01*
X150863434Y-86993979D01*
X150745741Y-86709141D01*
X150528005Y-86491024D01*
X150243373Y-86372835D01*
X149935179Y-86372566D01*
X149650341Y-86490259D01*
X149432224Y-86707995D01*
X149314035Y-86992627D01*
X149313766Y-87300821D01*
X145148166Y-87300821D01*
X145148434Y-86993979D01*
X145030741Y-86709141D01*
X144813005Y-86491024D01*
X144528373Y-86372835D01*
X144220179Y-86372566D01*
X143935341Y-86490259D01*
X143717224Y-86707995D01*
X143599035Y-86992627D01*
X143598766Y-87300821D01*
X140195092Y-87300821D01*
X140194759Y-87300017D01*
X140005578Y-87110506D01*
X139758275Y-87007817D01*
X139490499Y-87007583D01*
X139243017Y-87109841D01*
X139053506Y-87299022D01*
X138950817Y-87546325D01*
X138950583Y-87814101D01*
X130961200Y-87814101D01*
X130961200Y-84684621D01*
X149288366Y-84684621D01*
X149406059Y-84969459D01*
X149623795Y-85187576D01*
X149908427Y-85305765D01*
X150216621Y-85306034D01*
X150501459Y-85188341D01*
X150719576Y-84970605D01*
X150837765Y-84685973D01*
X150838034Y-84377779D01*
X150720341Y-84092941D01*
X150502605Y-83874824D01*
X150217973Y-83756635D01*
X149909779Y-83756366D01*
X149624941Y-83874059D01*
X149406824Y-84091795D01*
X149288635Y-84376427D01*
X149288366Y-84684621D01*
X130961200Y-84684621D01*
X130961200Y-82703421D01*
X132575166Y-82703421D01*
X132692859Y-82988259D01*
X132910595Y-83206376D01*
X133195227Y-83324565D01*
X133503421Y-83324834D01*
X133788259Y-83207141D01*
X134006376Y-82989405D01*
X134124565Y-82704773D01*
X134124834Y-82396579D01*
X134062708Y-82246221D01*
X140195166Y-82246221D01*
X140312859Y-82531059D01*
X140530595Y-82749176D01*
X140815227Y-82867365D01*
X141123421Y-82867634D01*
X141408259Y-82749941D01*
X141626376Y-82532205D01*
X141744565Y-82247573D01*
X141744699Y-82093821D01*
X149262966Y-82093821D01*
X149380659Y-82378659D01*
X149598395Y-82596776D01*
X149883027Y-82714965D01*
X150191221Y-82715234D01*
X150476059Y-82597541D01*
X150694176Y-82379805D01*
X150812365Y-82095173D01*
X150812634Y-81786979D01*
X150694941Y-81502141D01*
X150477205Y-81284024D01*
X150192573Y-81165835D01*
X149884379Y-81165566D01*
X149599541Y-81283259D01*
X149381424Y-81500995D01*
X149263235Y-81785627D01*
X149262966Y-82093821D01*
X141744699Y-82093821D01*
X141744834Y-81939379D01*
X141627141Y-81654541D01*
X141409405Y-81436424D01*
X141124773Y-81318235D01*
X140816579Y-81317966D01*
X140531741Y-81435659D01*
X140313624Y-81653395D01*
X140195435Y-81938027D01*
X140195166Y-82246221D01*
X134062708Y-82246221D01*
X134007141Y-82111741D01*
X133789405Y-81893624D01*
X133504773Y-81775435D01*
X133196579Y-81775166D01*
X132911741Y-81892859D01*
X132693624Y-82110595D01*
X132575435Y-82395227D01*
X132575166Y-82703421D01*
X130961200Y-82703421D01*
X130961200Y-81210101D01*
X144767183Y-81210101D01*
X144869441Y-81457583D01*
X145058622Y-81647094D01*
X145305925Y-81749783D01*
X145573701Y-81750017D01*
X145821183Y-81647759D01*
X146010694Y-81458578D01*
X146113383Y-81211275D01*
X146113617Y-80943499D01*
X146011359Y-80696017D01*
X145822178Y-80506506D01*
X145574875Y-80403817D01*
X145307099Y-80403583D01*
X145059617Y-80505841D01*
X144870106Y-80695022D01*
X144767417Y-80942325D01*
X144767183Y-81210101D01*
X130961200Y-81210101D01*
X130961200Y-77749400D01*
X131768731Y-77749400D01*
X131768731Y-79984600D01*
X131791756Y-80106965D01*
X131864073Y-80219349D01*
X131974417Y-80294744D01*
X132105400Y-80321269D01*
X134340600Y-80321269D01*
X134462965Y-80298244D01*
X134575349Y-80225927D01*
X134650744Y-80115583D01*
X134677269Y-79984600D01*
X134677269Y-79889350D01*
X152349200Y-79889350D01*
X152349200Y-80939281D01*
X152399470Y-81060643D01*
X152492357Y-81153530D01*
X152613719Y-81203800D01*
X153663650Y-81203800D01*
X153746200Y-81121250D01*
X153746200Y-79806800D01*
X153847800Y-79806800D01*
X153847800Y-81121250D01*
X153930350Y-81203800D01*
X154980281Y-81203800D01*
X155101643Y-81153530D01*
X155194530Y-81060643D01*
X155244800Y-80939281D01*
X155244800Y-79889350D01*
X155162250Y-79806800D01*
X153847800Y-79806800D01*
X153746200Y-79806800D01*
X152431750Y-79806800D01*
X152349200Y-79889350D01*
X134677269Y-79889350D01*
X134677269Y-78572719D01*
X152349200Y-78572719D01*
X152349200Y-79622650D01*
X152431750Y-79705200D01*
X153746200Y-79705200D01*
X153746200Y-78390750D01*
X153847800Y-78390750D01*
X153847800Y-79705200D01*
X155162250Y-79705200D01*
X155244800Y-79622650D01*
X155244800Y-78572719D01*
X155194530Y-78451357D01*
X155101643Y-78358470D01*
X154980281Y-78308200D01*
X153930350Y-78308200D01*
X153847800Y-78390750D01*
X153746200Y-78390750D01*
X153663650Y-78308200D01*
X152613719Y-78308200D01*
X152492357Y-78358470D01*
X152399470Y-78451357D01*
X152349200Y-78572719D01*
X134677269Y-78572719D01*
X134677269Y-77749400D01*
X134654244Y-77627035D01*
X134581927Y-77514651D01*
X134471583Y-77439256D01*
X134340600Y-77412731D01*
X132105400Y-77412731D01*
X131983035Y-77435756D01*
X131870651Y-77508073D01*
X131795256Y-77618417D01*
X131768731Y-77749400D01*
X130961200Y-77749400D01*
X130961200Y-75368101D01*
X139788783Y-75368101D01*
X139891041Y-75615583D01*
X140080222Y-75805094D01*
X140327525Y-75907783D01*
X140595301Y-75908017D01*
X140842783Y-75805759D01*
X141032294Y-75616578D01*
X141134983Y-75369275D01*
X141135217Y-75101499D01*
X141032959Y-74854017D01*
X140843778Y-74664506D01*
X140596475Y-74561817D01*
X140328699Y-74561583D01*
X140081217Y-74663841D01*
X139891706Y-74853022D01*
X139789017Y-75100325D01*
X139788783Y-75368101D01*
X130961200Y-75368101D01*
X130961200Y-74702421D01*
X131686166Y-74702421D01*
X131803859Y-74987259D01*
X132021595Y-75205376D01*
X132306227Y-75323565D01*
X132614421Y-75323834D01*
X132899259Y-75206141D01*
X133117376Y-74988405D01*
X133235565Y-74703773D01*
X133235834Y-74395579D01*
X133118141Y-74110741D01*
X132900405Y-73892624D01*
X132615773Y-73774435D01*
X132307579Y-73774166D01*
X132022741Y-73891859D01*
X131804624Y-74109595D01*
X131686435Y-74394227D01*
X131686166Y-74702421D01*
X130961200Y-74702421D01*
X130961200Y-72543421D01*
X151599766Y-72543421D01*
X151717459Y-72828259D01*
X151935195Y-73046376D01*
X152219827Y-73164565D01*
X152528021Y-73164834D01*
X152812859Y-73047141D01*
X153030976Y-72829405D01*
X153149165Y-72544773D01*
X153149434Y-72236579D01*
X153031741Y-71951741D01*
X152814005Y-71733624D01*
X152529373Y-71615435D01*
X152221179Y-71615166D01*
X151936341Y-71732859D01*
X151718224Y-71950595D01*
X151600035Y-72235227D01*
X151599766Y-72543421D01*
X130961200Y-72543421D01*
X130961200Y-70206621D01*
X153682566Y-70206621D01*
X153800259Y-70491459D01*
X154017995Y-70709576D01*
X154302627Y-70827765D01*
X154610821Y-70828034D01*
X154895659Y-70710341D01*
X155113776Y-70492605D01*
X155231965Y-70207973D01*
X155232234Y-69899779D01*
X155114541Y-69614941D01*
X154896805Y-69396824D01*
X154612173Y-69278635D01*
X154303979Y-69278366D01*
X154019141Y-69396059D01*
X153801024Y-69613795D01*
X153682835Y-69898427D01*
X153682566Y-70206621D01*
X130961200Y-70206621D01*
X130961200Y-66700400D01*
X131133731Y-66700400D01*
X131133731Y-68935600D01*
X131156756Y-69057965D01*
X131229073Y-69170349D01*
X131339417Y-69245744D01*
X131470400Y-69272269D01*
X133705600Y-69272269D01*
X133827965Y-69249244D01*
X133940349Y-69176927D01*
X134015744Y-69066583D01*
X134042269Y-68935600D01*
X134042269Y-67208400D01*
X141801731Y-67208400D01*
X141801731Y-69443600D01*
X141824756Y-69565965D01*
X141897073Y-69678349D01*
X142007417Y-69753744D01*
X142138400Y-69780269D01*
X144373600Y-69780269D01*
X144495965Y-69757244D01*
X144608349Y-69684927D01*
X144683744Y-69574583D01*
X144710269Y-69443600D01*
X144710269Y-67208400D01*
X144687244Y-67086035D01*
X144614927Y-66973651D01*
X144504583Y-66898256D01*
X144373600Y-66871731D01*
X142138400Y-66871731D01*
X142016035Y-66894756D01*
X141903651Y-66967073D01*
X141828256Y-67077417D01*
X141801731Y-67208400D01*
X134042269Y-67208400D01*
X134042269Y-66802000D01*
X150031331Y-66802000D01*
X150031331Y-68834000D01*
X150054356Y-68956365D01*
X150126673Y-69068749D01*
X150237017Y-69144144D01*
X150368000Y-69170669D01*
X152400000Y-69170669D01*
X152522365Y-69147644D01*
X152634749Y-69075327D01*
X152710144Y-68964983D01*
X152736669Y-68834000D01*
X152736669Y-68443944D01*
X152972093Y-68796281D01*
X153408832Y-69088101D01*
X153924000Y-69190574D01*
X154439168Y-69088101D01*
X154875907Y-68796281D01*
X155167727Y-68359542D01*
X155270200Y-67844374D01*
X155270200Y-67791626D01*
X155167727Y-67276458D01*
X154875907Y-66839719D01*
X154439168Y-66547899D01*
X153924000Y-66445426D01*
X153408832Y-66547899D01*
X152972093Y-66839719D01*
X152736669Y-67192056D01*
X152736669Y-66802000D01*
X152713644Y-66679635D01*
X152641327Y-66567251D01*
X152530983Y-66491856D01*
X152400000Y-66465331D01*
X150368000Y-66465331D01*
X150245635Y-66488356D01*
X150133251Y-66560673D01*
X150057856Y-66671017D01*
X150031331Y-66802000D01*
X134042269Y-66802000D01*
X134042269Y-66700400D01*
X134019244Y-66578035D01*
X133946927Y-66465651D01*
X133836583Y-66390256D01*
X133705600Y-66363731D01*
X131470400Y-66363731D01*
X131348035Y-66386756D01*
X131235651Y-66459073D01*
X131160256Y-66569417D01*
X131133731Y-66700400D01*
X130961200Y-66700400D01*
X130961200Y-66191200D01*
X155550800Y-66191200D01*
X155550800Y-116180800D01*
M02*
