G04 #@! TF.FileFunction,Copper,L3,Inr,Signal*
%FSLAX46Y46*%
G04 Gerber Fmt 4.6, Leading zero omitted, Abs format (unit mm)*
G04 Created by KiCad (PCBNEW 4.0.2-stable) date Sunday, January 22, 2017 'PMt' 02:28:49 PM*
%MOMM*%
G01*
G04 APERTURE LIST*
%ADD10C,0.100000*%
%ADD11R,2.235200X2.235200*%
%ADD12R,2.032000X2.032000*%
%ADD13O,2.032000X2.032000*%
%ADD14R,1.727200X2.032000*%
%ADD15O,1.727200X2.032000*%
%ADD16C,0.889000*%
%ADD17C,0.685800*%
%ADD18C,0.152400*%
G04 APERTURE END LIST*
D10*
D11*
X153543000Y-97409000D03*
X143256000Y-68326000D03*
X153619200Y-83159600D03*
D12*
X151384000Y-67818000D03*
D13*
X153924000Y-67818000D03*
D11*
X138303000Y-114427000D03*
X138938000Y-102235000D03*
X133223000Y-78867000D03*
X132588000Y-67818000D03*
D14*
X143383000Y-114427000D03*
D15*
X145923000Y-114427000D03*
X148463000Y-114427000D03*
X151003000Y-114427000D03*
X153543000Y-114427000D03*
D16*
X133350000Y-82550000D03*
X150063200Y-84531200D03*
X148412200Y-75717400D03*
X132461000Y-74549000D03*
X154457400Y-94208600D03*
X145288000Y-101600000D03*
X133324600Y-108280200D03*
X139573000Y-94615000D03*
X144322800Y-84582000D03*
X155041600Y-78740000D03*
X155067000Y-75133200D03*
X151358600Y-103225600D03*
X154381200Y-88366600D03*
X144018000Y-108331000D03*
D17*
X140182600Y-74345800D03*
D16*
X150037800Y-81940400D03*
D17*
X148640800Y-94386400D03*
X145465800Y-79451200D03*
X139623800Y-87680800D03*
X145338800Y-99923600D03*
X146685000Y-96393000D03*
X133858000Y-95148400D03*
X139573000Y-112141000D03*
D18*
G36*
X155550800Y-74521297D02*
X155506405Y-74476824D01*
X155221773Y-74358635D01*
X154913579Y-74358366D01*
X154628741Y-74476059D01*
X154410624Y-74693795D01*
X154292435Y-74978427D01*
X154292166Y-75286621D01*
X154409859Y-75571459D01*
X154627595Y-75789576D01*
X154912227Y-75907765D01*
X155220421Y-75908034D01*
X155505259Y-75790341D01*
X155550800Y-75744880D01*
X155550800Y-78153541D01*
X155481005Y-78083624D01*
X155196373Y-77965435D01*
X154888179Y-77965166D01*
X154603341Y-78082859D01*
X154385224Y-78300595D01*
X154267035Y-78585227D01*
X154266766Y-78893421D01*
X154384459Y-79178259D01*
X154602195Y-79396376D01*
X154886827Y-79514565D01*
X155195021Y-79514834D01*
X155479859Y-79397141D01*
X155550800Y-79326324D01*
X155550800Y-116180800D01*
X130961200Y-116180800D01*
X130961200Y-113309400D01*
X136848731Y-113309400D01*
X136848731Y-115544600D01*
X136871756Y-115666965D01*
X136944073Y-115779349D01*
X137054417Y-115854744D01*
X137185400Y-115881269D01*
X139420600Y-115881269D01*
X139542965Y-115858244D01*
X139655349Y-115785927D01*
X139730744Y-115675583D01*
X139757269Y-115544600D01*
X139757269Y-114560350D01*
X142189200Y-114560350D01*
X142189200Y-115508681D01*
X142239470Y-115630043D01*
X142332357Y-115722930D01*
X142453719Y-115773200D01*
X143249650Y-115773200D01*
X143332200Y-115690650D01*
X143332200Y-114477800D01*
X143433800Y-114477800D01*
X143433800Y-115690650D01*
X143516350Y-115773200D01*
X144312281Y-115773200D01*
X144433643Y-115722930D01*
X144526530Y-115630043D01*
X144576800Y-115508681D01*
X144576800Y-114560350D01*
X144494250Y-114477800D01*
X143433800Y-114477800D01*
X143332200Y-114477800D01*
X142271750Y-114477800D01*
X142189200Y-114560350D01*
X139757269Y-114560350D01*
X139757269Y-113345319D01*
X142189200Y-113345319D01*
X142189200Y-114293650D01*
X142271750Y-114376200D01*
X143332200Y-114376200D01*
X143332200Y-113163350D01*
X143433800Y-113163350D01*
X143433800Y-114376200D01*
X144494250Y-114376200D01*
X144576800Y-114293650D01*
X144576800Y-114248226D01*
X144729200Y-114248226D01*
X144729200Y-114605774D01*
X144820073Y-115062621D01*
X145078856Y-115449918D01*
X145466153Y-115708701D01*
X145923000Y-115799574D01*
X146379847Y-115708701D01*
X146767144Y-115449918D01*
X147025927Y-115062621D01*
X147116800Y-114605774D01*
X147116800Y-114248226D01*
X147269200Y-114248226D01*
X147269200Y-114605774D01*
X147360073Y-115062621D01*
X147618856Y-115449918D01*
X148006153Y-115708701D01*
X148463000Y-115799574D01*
X148919847Y-115708701D01*
X149307144Y-115449918D01*
X149565927Y-115062621D01*
X149656800Y-114605774D01*
X149656800Y-114248226D01*
X149809200Y-114248226D01*
X149809200Y-114605774D01*
X149900073Y-115062621D01*
X150158856Y-115449918D01*
X150546153Y-115708701D01*
X151003000Y-115799574D01*
X151459847Y-115708701D01*
X151847144Y-115449918D01*
X152105927Y-115062621D01*
X152196800Y-114605774D01*
X152196800Y-114248226D01*
X152349200Y-114248226D01*
X152349200Y-114605774D01*
X152440073Y-115062621D01*
X152698856Y-115449918D01*
X153086153Y-115708701D01*
X153543000Y-115799574D01*
X153999847Y-115708701D01*
X154387144Y-115449918D01*
X154645927Y-115062621D01*
X154736800Y-114605774D01*
X154736800Y-114248226D01*
X154645927Y-113791379D01*
X154387144Y-113404082D01*
X153999847Y-113145299D01*
X153543000Y-113054426D01*
X153086153Y-113145299D01*
X152698856Y-113404082D01*
X152440073Y-113791379D01*
X152349200Y-114248226D01*
X152196800Y-114248226D01*
X152105927Y-113791379D01*
X151847144Y-113404082D01*
X151459847Y-113145299D01*
X151003000Y-113054426D01*
X150546153Y-113145299D01*
X150158856Y-113404082D01*
X149900073Y-113791379D01*
X149809200Y-114248226D01*
X149656800Y-114248226D01*
X149565927Y-113791379D01*
X149307144Y-113404082D01*
X148919847Y-113145299D01*
X148463000Y-113054426D01*
X148006153Y-113145299D01*
X147618856Y-113404082D01*
X147360073Y-113791379D01*
X147269200Y-114248226D01*
X147116800Y-114248226D01*
X147025927Y-113791379D01*
X146767144Y-113404082D01*
X146379847Y-113145299D01*
X145923000Y-113054426D01*
X145466153Y-113145299D01*
X145078856Y-113404082D01*
X144820073Y-113791379D01*
X144729200Y-114248226D01*
X144576800Y-114248226D01*
X144576800Y-113345319D01*
X144526530Y-113223957D01*
X144433643Y-113131070D01*
X144312281Y-113080800D01*
X143516350Y-113080800D01*
X143433800Y-113163350D01*
X143332200Y-113163350D01*
X143249650Y-113080800D01*
X142453719Y-113080800D01*
X142332357Y-113131070D01*
X142239470Y-113223957D01*
X142189200Y-113345319D01*
X139757269Y-113345319D01*
X139757269Y-113309400D01*
X139734244Y-113187035D01*
X139661927Y-113074651D01*
X139551583Y-112999256D01*
X139420600Y-112972731D01*
X137185400Y-112972731D01*
X137063035Y-112995756D01*
X136950651Y-113068073D01*
X136875256Y-113178417D01*
X136848731Y-113309400D01*
X130961200Y-113309400D01*
X130961200Y-112274301D01*
X138899783Y-112274301D01*
X139002041Y-112521783D01*
X139191222Y-112711294D01*
X139438525Y-112813983D01*
X139706301Y-112814217D01*
X139953783Y-112711959D01*
X140143294Y-112522778D01*
X140245983Y-112275475D01*
X140246217Y-112007699D01*
X140143959Y-111760217D01*
X139954778Y-111570706D01*
X139707475Y-111468017D01*
X139439699Y-111467783D01*
X139192217Y-111570041D01*
X139002706Y-111759222D01*
X138900017Y-112006525D01*
X138899783Y-112274301D01*
X130961200Y-112274301D01*
X130961200Y-108484421D01*
X143243166Y-108484421D01*
X143360859Y-108769259D01*
X143578595Y-108987376D01*
X143863227Y-109105565D01*
X144171421Y-109105834D01*
X144456259Y-108988141D01*
X144674376Y-108770405D01*
X144792565Y-108485773D01*
X144792834Y-108177579D01*
X144675141Y-107892741D01*
X144457405Y-107674624D01*
X144172773Y-107556435D01*
X143864579Y-107556166D01*
X143579741Y-107673859D01*
X143361624Y-107891595D01*
X143243435Y-108176227D01*
X143243166Y-108484421D01*
X130961200Y-108484421D01*
X130961200Y-101117400D01*
X137483731Y-101117400D01*
X137483731Y-103352600D01*
X137506756Y-103474965D01*
X137579073Y-103587349D01*
X137689417Y-103662744D01*
X137820400Y-103689269D01*
X140055600Y-103689269D01*
X140177965Y-103666244D01*
X140290349Y-103593927D01*
X140365744Y-103483583D01*
X140386918Y-103379021D01*
X150583766Y-103379021D01*
X150701459Y-103663859D01*
X150919195Y-103881976D01*
X151203827Y-104000165D01*
X151512021Y-104000434D01*
X151796859Y-103882741D01*
X152014976Y-103665005D01*
X152133165Y-103380373D01*
X152133434Y-103072179D01*
X152015741Y-102787341D01*
X151798005Y-102569224D01*
X151513373Y-102451035D01*
X151205179Y-102450766D01*
X150920341Y-102568459D01*
X150702224Y-102786195D01*
X150584035Y-103070827D01*
X150583766Y-103379021D01*
X140386918Y-103379021D01*
X140392269Y-103352600D01*
X140392269Y-101117400D01*
X140369244Y-100995035D01*
X140296927Y-100882651D01*
X140186583Y-100807256D01*
X140055600Y-100780731D01*
X137820400Y-100780731D01*
X137698035Y-100803756D01*
X137585651Y-100876073D01*
X137510256Y-100986417D01*
X137483731Y-101117400D01*
X130961200Y-101117400D01*
X130961200Y-100056901D01*
X144665583Y-100056901D01*
X144767841Y-100304383D01*
X144957022Y-100493894D01*
X145204325Y-100596583D01*
X145472101Y-100596817D01*
X145719583Y-100494559D01*
X145909094Y-100305378D01*
X146011783Y-100058075D01*
X146012017Y-99790299D01*
X145909759Y-99542817D01*
X145720578Y-99353306D01*
X145473275Y-99250617D01*
X145205499Y-99250383D01*
X144958017Y-99352641D01*
X144768506Y-99541822D01*
X144665817Y-99789125D01*
X144665583Y-100056901D01*
X130961200Y-100056901D01*
X130961200Y-96526301D01*
X146011783Y-96526301D01*
X146114041Y-96773783D01*
X146303222Y-96963294D01*
X146550525Y-97065983D01*
X146818301Y-97066217D01*
X147065783Y-96963959D01*
X147255294Y-96774778D01*
X147357983Y-96527475D01*
X147358189Y-96291400D01*
X152088731Y-96291400D01*
X152088731Y-98526600D01*
X152111756Y-98648965D01*
X152184073Y-98761349D01*
X152294417Y-98836744D01*
X152425400Y-98863269D01*
X154660600Y-98863269D01*
X154782965Y-98840244D01*
X154895349Y-98767927D01*
X154970744Y-98657583D01*
X154997269Y-98526600D01*
X154997269Y-96291400D01*
X154974244Y-96169035D01*
X154901927Y-96056651D01*
X154791583Y-95981256D01*
X154660600Y-95954731D01*
X152425400Y-95954731D01*
X152303035Y-95977756D01*
X152190651Y-96050073D01*
X152115256Y-96160417D01*
X152088731Y-96291400D01*
X147358189Y-96291400D01*
X147358217Y-96259699D01*
X147255959Y-96012217D01*
X147066778Y-95822706D01*
X146819475Y-95720017D01*
X146551699Y-95719783D01*
X146304217Y-95822041D01*
X146114706Y-96011222D01*
X146012017Y-96258525D01*
X146011783Y-96526301D01*
X130961200Y-96526301D01*
X130961200Y-95281701D01*
X133184783Y-95281701D01*
X133287041Y-95529183D01*
X133476222Y-95718694D01*
X133723525Y-95821383D01*
X133991301Y-95821617D01*
X134238783Y-95719359D01*
X134428294Y-95530178D01*
X134530983Y-95282875D01*
X134531217Y-95015099D01*
X134428959Y-94767617D01*
X134239778Y-94578106D01*
X134099123Y-94519701D01*
X147967583Y-94519701D01*
X148069841Y-94767183D01*
X148259022Y-94956694D01*
X148506325Y-95059383D01*
X148774101Y-95059617D01*
X149021583Y-94957359D01*
X149211094Y-94768178D01*
X149313783Y-94520875D01*
X149314017Y-94253099D01*
X149211759Y-94005617D01*
X149022578Y-93816106D01*
X148775275Y-93713417D01*
X148507499Y-93713183D01*
X148260017Y-93815441D01*
X148070506Y-94004622D01*
X147967817Y-94251925D01*
X147967583Y-94519701D01*
X134099123Y-94519701D01*
X133992475Y-94475417D01*
X133724699Y-94475183D01*
X133477217Y-94577441D01*
X133287706Y-94766622D01*
X133185017Y-95013925D01*
X133184783Y-95281701D01*
X130961200Y-95281701D01*
X130961200Y-88520021D01*
X153606366Y-88520021D01*
X153724059Y-88804859D01*
X153941795Y-89022976D01*
X154226427Y-89141165D01*
X154534621Y-89141434D01*
X154819459Y-89023741D01*
X155037576Y-88806005D01*
X155155765Y-88521373D01*
X155156034Y-88213179D01*
X155038341Y-87928341D01*
X154820605Y-87710224D01*
X154535973Y-87592035D01*
X154227779Y-87591766D01*
X153942941Y-87709459D01*
X153724824Y-87927195D01*
X153606635Y-88211827D01*
X153606366Y-88520021D01*
X130961200Y-88520021D01*
X130961200Y-87814101D01*
X138950583Y-87814101D01*
X139052841Y-88061583D01*
X139242022Y-88251094D01*
X139489325Y-88353783D01*
X139757101Y-88354017D01*
X140004583Y-88251759D01*
X140194094Y-88062578D01*
X140296783Y-87815275D01*
X140297017Y-87547499D01*
X140194759Y-87300017D01*
X140005578Y-87110506D01*
X139758275Y-87007817D01*
X139490499Y-87007583D01*
X139243017Y-87109841D01*
X139053506Y-87299022D01*
X138950817Y-87546325D01*
X138950583Y-87814101D01*
X130961200Y-87814101D01*
X130961200Y-84735421D01*
X143547966Y-84735421D01*
X143665659Y-85020259D01*
X143883395Y-85238376D01*
X144168027Y-85356565D01*
X144476221Y-85356834D01*
X144761059Y-85239141D01*
X144979176Y-85021405D01*
X145097365Y-84736773D01*
X145097634Y-84428579D01*
X144979941Y-84143741D01*
X144762205Y-83925624D01*
X144477573Y-83807435D01*
X144169379Y-83807166D01*
X143884541Y-83924859D01*
X143666424Y-84142595D01*
X143548235Y-84427227D01*
X143547966Y-84735421D01*
X130961200Y-84735421D01*
X130961200Y-82093821D01*
X149262966Y-82093821D01*
X149380659Y-82378659D01*
X149598395Y-82596776D01*
X149883027Y-82714965D01*
X150191221Y-82715234D01*
X150476059Y-82597541D01*
X150694176Y-82379805D01*
X150812365Y-82095173D01*
X150812411Y-82042000D01*
X152164931Y-82042000D01*
X152164931Y-84277200D01*
X152187956Y-84399565D01*
X152260273Y-84511949D01*
X152370617Y-84587344D01*
X152501600Y-84613869D01*
X154736800Y-84613869D01*
X154859165Y-84590844D01*
X154971549Y-84518527D01*
X155046944Y-84408183D01*
X155073469Y-84277200D01*
X155073469Y-82042000D01*
X155050444Y-81919635D01*
X154978127Y-81807251D01*
X154867783Y-81731856D01*
X154736800Y-81705331D01*
X152501600Y-81705331D01*
X152379235Y-81728356D01*
X152266851Y-81800673D01*
X152191456Y-81911017D01*
X152164931Y-82042000D01*
X150812411Y-82042000D01*
X150812634Y-81786979D01*
X150694941Y-81502141D01*
X150477205Y-81284024D01*
X150192573Y-81165835D01*
X149884379Y-81165566D01*
X149599541Y-81283259D01*
X149381424Y-81500995D01*
X149263235Y-81785627D01*
X149262966Y-82093821D01*
X130961200Y-82093821D01*
X130961200Y-77749400D01*
X131768731Y-77749400D01*
X131768731Y-79984600D01*
X131791756Y-80106965D01*
X131864073Y-80219349D01*
X131974417Y-80294744D01*
X132105400Y-80321269D01*
X134340600Y-80321269D01*
X134462965Y-80298244D01*
X134575349Y-80225927D01*
X134650744Y-80115583D01*
X134677269Y-79984600D01*
X134677269Y-79584501D01*
X144792583Y-79584501D01*
X144894841Y-79831983D01*
X145084022Y-80021494D01*
X145331325Y-80124183D01*
X145599101Y-80124417D01*
X145846583Y-80022159D01*
X146036094Y-79832978D01*
X146138783Y-79585675D01*
X146139017Y-79317899D01*
X146036759Y-79070417D01*
X145847578Y-78880906D01*
X145600275Y-78778217D01*
X145332499Y-78777983D01*
X145085017Y-78880241D01*
X144895506Y-79069422D01*
X144792817Y-79316725D01*
X144792583Y-79584501D01*
X134677269Y-79584501D01*
X134677269Y-77749400D01*
X134654244Y-77627035D01*
X134581927Y-77514651D01*
X134471583Y-77439256D01*
X134340600Y-77412731D01*
X132105400Y-77412731D01*
X131983035Y-77435756D01*
X131870651Y-77508073D01*
X131795256Y-77618417D01*
X131768731Y-77749400D01*
X130961200Y-77749400D01*
X130961200Y-74479101D01*
X139509383Y-74479101D01*
X139611641Y-74726583D01*
X139800822Y-74916094D01*
X140048125Y-75018783D01*
X140315901Y-75019017D01*
X140563383Y-74916759D01*
X140752894Y-74727578D01*
X140855583Y-74480275D01*
X140855817Y-74212499D01*
X140753559Y-73965017D01*
X140564378Y-73775506D01*
X140317075Y-73672817D01*
X140049299Y-73672583D01*
X139801817Y-73774841D01*
X139612306Y-73964022D01*
X139509617Y-74211325D01*
X139509383Y-74479101D01*
X130961200Y-74479101D01*
X130961200Y-66700400D01*
X131133731Y-66700400D01*
X131133731Y-68935600D01*
X131156756Y-69057965D01*
X131229073Y-69170349D01*
X131339417Y-69245744D01*
X131470400Y-69272269D01*
X133705600Y-69272269D01*
X133827965Y-69249244D01*
X133940349Y-69176927D01*
X134015744Y-69066583D01*
X134042269Y-68935600D01*
X134042269Y-68459350D01*
X141808200Y-68459350D01*
X141808200Y-69509281D01*
X141858470Y-69630643D01*
X141951357Y-69723530D01*
X142072719Y-69773800D01*
X143122650Y-69773800D01*
X143205200Y-69691250D01*
X143205200Y-68376800D01*
X143306800Y-68376800D01*
X143306800Y-69691250D01*
X143389350Y-69773800D01*
X144439281Y-69773800D01*
X144560643Y-69723530D01*
X144653530Y-69630643D01*
X144703800Y-69509281D01*
X144703800Y-68459350D01*
X144621250Y-68376800D01*
X143306800Y-68376800D01*
X143205200Y-68376800D01*
X141890750Y-68376800D01*
X141808200Y-68459350D01*
X134042269Y-68459350D01*
X134042269Y-67142719D01*
X141808200Y-67142719D01*
X141808200Y-68192650D01*
X141890750Y-68275200D01*
X143205200Y-68275200D01*
X143205200Y-66960750D01*
X143306800Y-66960750D01*
X143306800Y-68275200D01*
X144621250Y-68275200D01*
X144703800Y-68192650D01*
X144703800Y-67951350D01*
X150037800Y-67951350D01*
X150037800Y-68899681D01*
X150088070Y-69021043D01*
X150180957Y-69113930D01*
X150302319Y-69164200D01*
X151250650Y-69164200D01*
X151333200Y-69081650D01*
X151333200Y-67868800D01*
X150120350Y-67868800D01*
X150037800Y-67951350D01*
X144703800Y-67951350D01*
X144703800Y-67142719D01*
X144653530Y-67021357D01*
X144560643Y-66928470D01*
X144439281Y-66878200D01*
X143389350Y-66878200D01*
X143306800Y-66960750D01*
X143205200Y-66960750D01*
X143122650Y-66878200D01*
X142072719Y-66878200D01*
X141951357Y-66928470D01*
X141858470Y-67021357D01*
X141808200Y-67142719D01*
X134042269Y-67142719D01*
X134042269Y-66736319D01*
X150037800Y-66736319D01*
X150037800Y-67684650D01*
X150120350Y-67767200D01*
X151333200Y-67767200D01*
X151333200Y-66554350D01*
X151434800Y-66554350D01*
X151434800Y-67767200D01*
X151454800Y-67767200D01*
X151454800Y-67868800D01*
X151434800Y-67868800D01*
X151434800Y-69081650D01*
X151517350Y-69164200D01*
X152465681Y-69164200D01*
X152587043Y-69113930D01*
X152679930Y-69021043D01*
X152730200Y-68899681D01*
X152730200Y-68434263D01*
X152972093Y-68796281D01*
X153408832Y-69088101D01*
X153924000Y-69190574D01*
X154439168Y-69088101D01*
X154875907Y-68796281D01*
X155167727Y-68359542D01*
X155270200Y-67844374D01*
X155270200Y-67791626D01*
X155167727Y-67276458D01*
X154875907Y-66839719D01*
X154439168Y-66547899D01*
X153924000Y-66445426D01*
X153408832Y-66547899D01*
X152972093Y-66839719D01*
X152730200Y-67201737D01*
X152730200Y-66736319D01*
X152679930Y-66614957D01*
X152587043Y-66522070D01*
X152465681Y-66471800D01*
X151517350Y-66471800D01*
X151434800Y-66554350D01*
X151333200Y-66554350D01*
X151250650Y-66471800D01*
X150302319Y-66471800D01*
X150180957Y-66522070D01*
X150088070Y-66614957D01*
X150037800Y-66736319D01*
X134042269Y-66736319D01*
X134042269Y-66700400D01*
X134019244Y-66578035D01*
X133946927Y-66465651D01*
X133836583Y-66390256D01*
X133705600Y-66363731D01*
X131470400Y-66363731D01*
X131348035Y-66386756D01*
X131235651Y-66459073D01*
X131160256Y-66569417D01*
X131133731Y-66700400D01*
X130961200Y-66700400D01*
X130961200Y-66191200D01*
X155550800Y-66191200D01*
X155550800Y-74521297D01*
X155550800Y-74521297D01*
G37*
X155550800Y-74521297D02*
X155506405Y-74476824D01*
X155221773Y-74358635D01*
X154913579Y-74358366D01*
X154628741Y-74476059D01*
X154410624Y-74693795D01*
X154292435Y-74978427D01*
X154292166Y-75286621D01*
X154409859Y-75571459D01*
X154627595Y-75789576D01*
X154912227Y-75907765D01*
X155220421Y-75908034D01*
X155505259Y-75790341D01*
X155550800Y-75744880D01*
X155550800Y-78153541D01*
X155481005Y-78083624D01*
X155196373Y-77965435D01*
X154888179Y-77965166D01*
X154603341Y-78082859D01*
X154385224Y-78300595D01*
X154267035Y-78585227D01*
X154266766Y-78893421D01*
X154384459Y-79178259D01*
X154602195Y-79396376D01*
X154886827Y-79514565D01*
X155195021Y-79514834D01*
X155479859Y-79397141D01*
X155550800Y-79326324D01*
X155550800Y-116180800D01*
X130961200Y-116180800D01*
X130961200Y-113309400D01*
X136848731Y-113309400D01*
X136848731Y-115544600D01*
X136871756Y-115666965D01*
X136944073Y-115779349D01*
X137054417Y-115854744D01*
X137185400Y-115881269D01*
X139420600Y-115881269D01*
X139542965Y-115858244D01*
X139655349Y-115785927D01*
X139730744Y-115675583D01*
X139757269Y-115544600D01*
X139757269Y-114560350D01*
X142189200Y-114560350D01*
X142189200Y-115508681D01*
X142239470Y-115630043D01*
X142332357Y-115722930D01*
X142453719Y-115773200D01*
X143249650Y-115773200D01*
X143332200Y-115690650D01*
X143332200Y-114477800D01*
X143433800Y-114477800D01*
X143433800Y-115690650D01*
X143516350Y-115773200D01*
X144312281Y-115773200D01*
X144433643Y-115722930D01*
X144526530Y-115630043D01*
X144576800Y-115508681D01*
X144576800Y-114560350D01*
X144494250Y-114477800D01*
X143433800Y-114477800D01*
X143332200Y-114477800D01*
X142271750Y-114477800D01*
X142189200Y-114560350D01*
X139757269Y-114560350D01*
X139757269Y-113345319D01*
X142189200Y-113345319D01*
X142189200Y-114293650D01*
X142271750Y-114376200D01*
X143332200Y-114376200D01*
X143332200Y-113163350D01*
X143433800Y-113163350D01*
X143433800Y-114376200D01*
X144494250Y-114376200D01*
X144576800Y-114293650D01*
X144576800Y-114248226D01*
X144729200Y-114248226D01*
X144729200Y-114605774D01*
X144820073Y-115062621D01*
X145078856Y-115449918D01*
X145466153Y-115708701D01*
X145923000Y-115799574D01*
X146379847Y-115708701D01*
X146767144Y-115449918D01*
X147025927Y-115062621D01*
X147116800Y-114605774D01*
X147116800Y-114248226D01*
X147269200Y-114248226D01*
X147269200Y-114605774D01*
X147360073Y-115062621D01*
X147618856Y-115449918D01*
X148006153Y-115708701D01*
X148463000Y-115799574D01*
X148919847Y-115708701D01*
X149307144Y-115449918D01*
X149565927Y-115062621D01*
X149656800Y-114605774D01*
X149656800Y-114248226D01*
X149809200Y-114248226D01*
X149809200Y-114605774D01*
X149900073Y-115062621D01*
X150158856Y-115449918D01*
X150546153Y-115708701D01*
X151003000Y-115799574D01*
X151459847Y-115708701D01*
X151847144Y-115449918D01*
X152105927Y-115062621D01*
X152196800Y-114605774D01*
X152196800Y-114248226D01*
X152349200Y-114248226D01*
X152349200Y-114605774D01*
X152440073Y-115062621D01*
X152698856Y-115449918D01*
X153086153Y-115708701D01*
X153543000Y-115799574D01*
X153999847Y-115708701D01*
X154387144Y-115449918D01*
X154645927Y-115062621D01*
X154736800Y-114605774D01*
X154736800Y-114248226D01*
X154645927Y-113791379D01*
X154387144Y-113404082D01*
X153999847Y-113145299D01*
X153543000Y-113054426D01*
X153086153Y-113145299D01*
X152698856Y-113404082D01*
X152440073Y-113791379D01*
X152349200Y-114248226D01*
X152196800Y-114248226D01*
X152105927Y-113791379D01*
X151847144Y-113404082D01*
X151459847Y-113145299D01*
X151003000Y-113054426D01*
X150546153Y-113145299D01*
X150158856Y-113404082D01*
X149900073Y-113791379D01*
X149809200Y-114248226D01*
X149656800Y-114248226D01*
X149565927Y-113791379D01*
X149307144Y-113404082D01*
X148919847Y-113145299D01*
X148463000Y-113054426D01*
X148006153Y-113145299D01*
X147618856Y-113404082D01*
X147360073Y-113791379D01*
X147269200Y-114248226D01*
X147116800Y-114248226D01*
X147025927Y-113791379D01*
X146767144Y-113404082D01*
X146379847Y-113145299D01*
X145923000Y-113054426D01*
X145466153Y-113145299D01*
X145078856Y-113404082D01*
X144820073Y-113791379D01*
X144729200Y-114248226D01*
X144576800Y-114248226D01*
X144576800Y-113345319D01*
X144526530Y-113223957D01*
X144433643Y-113131070D01*
X144312281Y-113080800D01*
X143516350Y-113080800D01*
X143433800Y-113163350D01*
X143332200Y-113163350D01*
X143249650Y-113080800D01*
X142453719Y-113080800D01*
X142332357Y-113131070D01*
X142239470Y-113223957D01*
X142189200Y-113345319D01*
X139757269Y-113345319D01*
X139757269Y-113309400D01*
X139734244Y-113187035D01*
X139661927Y-113074651D01*
X139551583Y-112999256D01*
X139420600Y-112972731D01*
X137185400Y-112972731D01*
X137063035Y-112995756D01*
X136950651Y-113068073D01*
X136875256Y-113178417D01*
X136848731Y-113309400D01*
X130961200Y-113309400D01*
X130961200Y-112274301D01*
X138899783Y-112274301D01*
X139002041Y-112521783D01*
X139191222Y-112711294D01*
X139438525Y-112813983D01*
X139706301Y-112814217D01*
X139953783Y-112711959D01*
X140143294Y-112522778D01*
X140245983Y-112275475D01*
X140246217Y-112007699D01*
X140143959Y-111760217D01*
X139954778Y-111570706D01*
X139707475Y-111468017D01*
X139439699Y-111467783D01*
X139192217Y-111570041D01*
X139002706Y-111759222D01*
X138900017Y-112006525D01*
X138899783Y-112274301D01*
X130961200Y-112274301D01*
X130961200Y-108484421D01*
X143243166Y-108484421D01*
X143360859Y-108769259D01*
X143578595Y-108987376D01*
X143863227Y-109105565D01*
X144171421Y-109105834D01*
X144456259Y-108988141D01*
X144674376Y-108770405D01*
X144792565Y-108485773D01*
X144792834Y-108177579D01*
X144675141Y-107892741D01*
X144457405Y-107674624D01*
X144172773Y-107556435D01*
X143864579Y-107556166D01*
X143579741Y-107673859D01*
X143361624Y-107891595D01*
X143243435Y-108176227D01*
X143243166Y-108484421D01*
X130961200Y-108484421D01*
X130961200Y-101117400D01*
X137483731Y-101117400D01*
X137483731Y-103352600D01*
X137506756Y-103474965D01*
X137579073Y-103587349D01*
X137689417Y-103662744D01*
X137820400Y-103689269D01*
X140055600Y-103689269D01*
X140177965Y-103666244D01*
X140290349Y-103593927D01*
X140365744Y-103483583D01*
X140386918Y-103379021D01*
X150583766Y-103379021D01*
X150701459Y-103663859D01*
X150919195Y-103881976D01*
X151203827Y-104000165D01*
X151512021Y-104000434D01*
X151796859Y-103882741D01*
X152014976Y-103665005D01*
X152133165Y-103380373D01*
X152133434Y-103072179D01*
X152015741Y-102787341D01*
X151798005Y-102569224D01*
X151513373Y-102451035D01*
X151205179Y-102450766D01*
X150920341Y-102568459D01*
X150702224Y-102786195D01*
X150584035Y-103070827D01*
X150583766Y-103379021D01*
X140386918Y-103379021D01*
X140392269Y-103352600D01*
X140392269Y-101117400D01*
X140369244Y-100995035D01*
X140296927Y-100882651D01*
X140186583Y-100807256D01*
X140055600Y-100780731D01*
X137820400Y-100780731D01*
X137698035Y-100803756D01*
X137585651Y-100876073D01*
X137510256Y-100986417D01*
X137483731Y-101117400D01*
X130961200Y-101117400D01*
X130961200Y-100056901D01*
X144665583Y-100056901D01*
X144767841Y-100304383D01*
X144957022Y-100493894D01*
X145204325Y-100596583D01*
X145472101Y-100596817D01*
X145719583Y-100494559D01*
X145909094Y-100305378D01*
X146011783Y-100058075D01*
X146012017Y-99790299D01*
X145909759Y-99542817D01*
X145720578Y-99353306D01*
X145473275Y-99250617D01*
X145205499Y-99250383D01*
X144958017Y-99352641D01*
X144768506Y-99541822D01*
X144665817Y-99789125D01*
X144665583Y-100056901D01*
X130961200Y-100056901D01*
X130961200Y-96526301D01*
X146011783Y-96526301D01*
X146114041Y-96773783D01*
X146303222Y-96963294D01*
X146550525Y-97065983D01*
X146818301Y-97066217D01*
X147065783Y-96963959D01*
X147255294Y-96774778D01*
X147357983Y-96527475D01*
X147358189Y-96291400D01*
X152088731Y-96291400D01*
X152088731Y-98526600D01*
X152111756Y-98648965D01*
X152184073Y-98761349D01*
X152294417Y-98836744D01*
X152425400Y-98863269D01*
X154660600Y-98863269D01*
X154782965Y-98840244D01*
X154895349Y-98767927D01*
X154970744Y-98657583D01*
X154997269Y-98526600D01*
X154997269Y-96291400D01*
X154974244Y-96169035D01*
X154901927Y-96056651D01*
X154791583Y-95981256D01*
X154660600Y-95954731D01*
X152425400Y-95954731D01*
X152303035Y-95977756D01*
X152190651Y-96050073D01*
X152115256Y-96160417D01*
X152088731Y-96291400D01*
X147358189Y-96291400D01*
X147358217Y-96259699D01*
X147255959Y-96012217D01*
X147066778Y-95822706D01*
X146819475Y-95720017D01*
X146551699Y-95719783D01*
X146304217Y-95822041D01*
X146114706Y-96011222D01*
X146012017Y-96258525D01*
X146011783Y-96526301D01*
X130961200Y-96526301D01*
X130961200Y-95281701D01*
X133184783Y-95281701D01*
X133287041Y-95529183D01*
X133476222Y-95718694D01*
X133723525Y-95821383D01*
X133991301Y-95821617D01*
X134238783Y-95719359D01*
X134428294Y-95530178D01*
X134530983Y-95282875D01*
X134531217Y-95015099D01*
X134428959Y-94767617D01*
X134239778Y-94578106D01*
X134099123Y-94519701D01*
X147967583Y-94519701D01*
X148069841Y-94767183D01*
X148259022Y-94956694D01*
X148506325Y-95059383D01*
X148774101Y-95059617D01*
X149021583Y-94957359D01*
X149211094Y-94768178D01*
X149313783Y-94520875D01*
X149314017Y-94253099D01*
X149211759Y-94005617D01*
X149022578Y-93816106D01*
X148775275Y-93713417D01*
X148507499Y-93713183D01*
X148260017Y-93815441D01*
X148070506Y-94004622D01*
X147967817Y-94251925D01*
X147967583Y-94519701D01*
X134099123Y-94519701D01*
X133992475Y-94475417D01*
X133724699Y-94475183D01*
X133477217Y-94577441D01*
X133287706Y-94766622D01*
X133185017Y-95013925D01*
X133184783Y-95281701D01*
X130961200Y-95281701D01*
X130961200Y-88520021D01*
X153606366Y-88520021D01*
X153724059Y-88804859D01*
X153941795Y-89022976D01*
X154226427Y-89141165D01*
X154534621Y-89141434D01*
X154819459Y-89023741D01*
X155037576Y-88806005D01*
X155155765Y-88521373D01*
X155156034Y-88213179D01*
X155038341Y-87928341D01*
X154820605Y-87710224D01*
X154535973Y-87592035D01*
X154227779Y-87591766D01*
X153942941Y-87709459D01*
X153724824Y-87927195D01*
X153606635Y-88211827D01*
X153606366Y-88520021D01*
X130961200Y-88520021D01*
X130961200Y-87814101D01*
X138950583Y-87814101D01*
X139052841Y-88061583D01*
X139242022Y-88251094D01*
X139489325Y-88353783D01*
X139757101Y-88354017D01*
X140004583Y-88251759D01*
X140194094Y-88062578D01*
X140296783Y-87815275D01*
X140297017Y-87547499D01*
X140194759Y-87300017D01*
X140005578Y-87110506D01*
X139758275Y-87007817D01*
X139490499Y-87007583D01*
X139243017Y-87109841D01*
X139053506Y-87299022D01*
X138950817Y-87546325D01*
X138950583Y-87814101D01*
X130961200Y-87814101D01*
X130961200Y-84735421D01*
X143547966Y-84735421D01*
X143665659Y-85020259D01*
X143883395Y-85238376D01*
X144168027Y-85356565D01*
X144476221Y-85356834D01*
X144761059Y-85239141D01*
X144979176Y-85021405D01*
X145097365Y-84736773D01*
X145097634Y-84428579D01*
X144979941Y-84143741D01*
X144762205Y-83925624D01*
X144477573Y-83807435D01*
X144169379Y-83807166D01*
X143884541Y-83924859D01*
X143666424Y-84142595D01*
X143548235Y-84427227D01*
X143547966Y-84735421D01*
X130961200Y-84735421D01*
X130961200Y-82093821D01*
X149262966Y-82093821D01*
X149380659Y-82378659D01*
X149598395Y-82596776D01*
X149883027Y-82714965D01*
X150191221Y-82715234D01*
X150476059Y-82597541D01*
X150694176Y-82379805D01*
X150812365Y-82095173D01*
X150812411Y-82042000D01*
X152164931Y-82042000D01*
X152164931Y-84277200D01*
X152187956Y-84399565D01*
X152260273Y-84511949D01*
X152370617Y-84587344D01*
X152501600Y-84613869D01*
X154736800Y-84613869D01*
X154859165Y-84590844D01*
X154971549Y-84518527D01*
X155046944Y-84408183D01*
X155073469Y-84277200D01*
X155073469Y-82042000D01*
X155050444Y-81919635D01*
X154978127Y-81807251D01*
X154867783Y-81731856D01*
X154736800Y-81705331D01*
X152501600Y-81705331D01*
X152379235Y-81728356D01*
X152266851Y-81800673D01*
X152191456Y-81911017D01*
X152164931Y-82042000D01*
X150812411Y-82042000D01*
X150812634Y-81786979D01*
X150694941Y-81502141D01*
X150477205Y-81284024D01*
X150192573Y-81165835D01*
X149884379Y-81165566D01*
X149599541Y-81283259D01*
X149381424Y-81500995D01*
X149263235Y-81785627D01*
X149262966Y-82093821D01*
X130961200Y-82093821D01*
X130961200Y-77749400D01*
X131768731Y-77749400D01*
X131768731Y-79984600D01*
X131791756Y-80106965D01*
X131864073Y-80219349D01*
X131974417Y-80294744D01*
X132105400Y-80321269D01*
X134340600Y-80321269D01*
X134462965Y-80298244D01*
X134575349Y-80225927D01*
X134650744Y-80115583D01*
X134677269Y-79984600D01*
X134677269Y-79584501D01*
X144792583Y-79584501D01*
X144894841Y-79831983D01*
X145084022Y-80021494D01*
X145331325Y-80124183D01*
X145599101Y-80124417D01*
X145846583Y-80022159D01*
X146036094Y-79832978D01*
X146138783Y-79585675D01*
X146139017Y-79317899D01*
X146036759Y-79070417D01*
X145847578Y-78880906D01*
X145600275Y-78778217D01*
X145332499Y-78777983D01*
X145085017Y-78880241D01*
X144895506Y-79069422D01*
X144792817Y-79316725D01*
X144792583Y-79584501D01*
X134677269Y-79584501D01*
X134677269Y-77749400D01*
X134654244Y-77627035D01*
X134581927Y-77514651D01*
X134471583Y-77439256D01*
X134340600Y-77412731D01*
X132105400Y-77412731D01*
X131983035Y-77435756D01*
X131870651Y-77508073D01*
X131795256Y-77618417D01*
X131768731Y-77749400D01*
X130961200Y-77749400D01*
X130961200Y-74479101D01*
X139509383Y-74479101D01*
X139611641Y-74726583D01*
X139800822Y-74916094D01*
X140048125Y-75018783D01*
X140315901Y-75019017D01*
X140563383Y-74916759D01*
X140752894Y-74727578D01*
X140855583Y-74480275D01*
X140855817Y-74212499D01*
X140753559Y-73965017D01*
X140564378Y-73775506D01*
X140317075Y-73672817D01*
X140049299Y-73672583D01*
X139801817Y-73774841D01*
X139612306Y-73964022D01*
X139509617Y-74211325D01*
X139509383Y-74479101D01*
X130961200Y-74479101D01*
X130961200Y-66700400D01*
X131133731Y-66700400D01*
X131133731Y-68935600D01*
X131156756Y-69057965D01*
X131229073Y-69170349D01*
X131339417Y-69245744D01*
X131470400Y-69272269D01*
X133705600Y-69272269D01*
X133827965Y-69249244D01*
X133940349Y-69176927D01*
X134015744Y-69066583D01*
X134042269Y-68935600D01*
X134042269Y-68459350D01*
X141808200Y-68459350D01*
X141808200Y-69509281D01*
X141858470Y-69630643D01*
X141951357Y-69723530D01*
X142072719Y-69773800D01*
X143122650Y-69773800D01*
X143205200Y-69691250D01*
X143205200Y-68376800D01*
X143306800Y-68376800D01*
X143306800Y-69691250D01*
X143389350Y-69773800D01*
X144439281Y-69773800D01*
X144560643Y-69723530D01*
X144653530Y-69630643D01*
X144703800Y-69509281D01*
X144703800Y-68459350D01*
X144621250Y-68376800D01*
X143306800Y-68376800D01*
X143205200Y-68376800D01*
X141890750Y-68376800D01*
X141808200Y-68459350D01*
X134042269Y-68459350D01*
X134042269Y-67142719D01*
X141808200Y-67142719D01*
X141808200Y-68192650D01*
X141890750Y-68275200D01*
X143205200Y-68275200D01*
X143205200Y-66960750D01*
X143306800Y-66960750D01*
X143306800Y-68275200D01*
X144621250Y-68275200D01*
X144703800Y-68192650D01*
X144703800Y-67951350D01*
X150037800Y-67951350D01*
X150037800Y-68899681D01*
X150088070Y-69021043D01*
X150180957Y-69113930D01*
X150302319Y-69164200D01*
X151250650Y-69164200D01*
X151333200Y-69081650D01*
X151333200Y-67868800D01*
X150120350Y-67868800D01*
X150037800Y-67951350D01*
X144703800Y-67951350D01*
X144703800Y-67142719D01*
X144653530Y-67021357D01*
X144560643Y-66928470D01*
X144439281Y-66878200D01*
X143389350Y-66878200D01*
X143306800Y-66960750D01*
X143205200Y-66960750D01*
X143122650Y-66878200D01*
X142072719Y-66878200D01*
X141951357Y-66928470D01*
X141858470Y-67021357D01*
X141808200Y-67142719D01*
X134042269Y-67142719D01*
X134042269Y-66736319D01*
X150037800Y-66736319D01*
X150037800Y-67684650D01*
X150120350Y-67767200D01*
X151333200Y-67767200D01*
X151333200Y-66554350D01*
X151434800Y-66554350D01*
X151434800Y-67767200D01*
X151454800Y-67767200D01*
X151454800Y-67868800D01*
X151434800Y-67868800D01*
X151434800Y-69081650D01*
X151517350Y-69164200D01*
X152465681Y-69164200D01*
X152587043Y-69113930D01*
X152679930Y-69021043D01*
X152730200Y-68899681D01*
X152730200Y-68434263D01*
X152972093Y-68796281D01*
X153408832Y-69088101D01*
X153924000Y-69190574D01*
X154439168Y-69088101D01*
X154875907Y-68796281D01*
X155167727Y-68359542D01*
X155270200Y-67844374D01*
X155270200Y-67791626D01*
X155167727Y-67276458D01*
X154875907Y-66839719D01*
X154439168Y-66547899D01*
X153924000Y-66445426D01*
X153408832Y-66547899D01*
X152972093Y-66839719D01*
X152730200Y-67201737D01*
X152730200Y-66736319D01*
X152679930Y-66614957D01*
X152587043Y-66522070D01*
X152465681Y-66471800D01*
X151517350Y-66471800D01*
X151434800Y-66554350D01*
X151333200Y-66554350D01*
X151250650Y-66471800D01*
X150302319Y-66471800D01*
X150180957Y-66522070D01*
X150088070Y-66614957D01*
X150037800Y-66736319D01*
X134042269Y-66736319D01*
X134042269Y-66700400D01*
X134019244Y-66578035D01*
X133946927Y-66465651D01*
X133836583Y-66390256D01*
X133705600Y-66363731D01*
X131470400Y-66363731D01*
X131348035Y-66386756D01*
X131235651Y-66459073D01*
X131160256Y-66569417D01*
X131133731Y-66700400D01*
X130961200Y-66700400D01*
X130961200Y-66191200D01*
X155550800Y-66191200D01*
X155550800Y-74521297D01*
M02*
