G04 #@! TF.FileFunction,Copper,L1,Top,Signal*
%FSLAX46Y46*%
G04 Gerber Fmt 4.6, Leading zero omitted, Abs format (unit mm)*
G04 Created by KiCad (PCBNEW 4.0.2-stable) date Sunday, January 22, 2017 'PMt' 02:28:49 PM*
%MOMM*%
G01*
G04 APERTURE LIST*
%ADD10C,0.100000*%
%ADD11R,2.235200X2.235200*%
%ADD12R,2.032000X2.032000*%
%ADD13O,2.032000X2.032000*%
%ADD14R,1.727200X2.032000*%
%ADD15O,1.727200X2.032000*%
%ADD16R,1.200000X1.200000*%
%ADD17R,1.500000X1.600000*%
%ADD18R,0.650000X1.060000*%
%ADD19R,1.300000X1.500000*%
%ADD20R,1.500000X1.300000*%
%ADD21R,1.250000X1.500000*%
%ADD22R,1.500000X1.250000*%
%ADD23R,1.500000X0.600000*%
%ADD24C,0.889000*%
%ADD25C,0.685800*%
%ADD26C,0.609600*%
%ADD27C,0.254000*%
G04 APERTURE END LIST*
D10*
D11*
X153543000Y-97409000D03*
X143256000Y-68326000D03*
X153619200Y-83159600D03*
D12*
X151384000Y-67818000D03*
D13*
X153924000Y-67818000D03*
D11*
X138303000Y-114427000D03*
X138938000Y-102235000D03*
X133223000Y-78867000D03*
X132588000Y-67818000D03*
D14*
X143383000Y-114427000D03*
D15*
X145923000Y-114427000D03*
X148463000Y-114427000D03*
X151003000Y-114427000D03*
X153543000Y-114427000D03*
D16*
X154381000Y-90313000D03*
X154381000Y-92313000D03*
D17*
X151131000Y-91313000D03*
D18*
X153883400Y-73550600D03*
X152933400Y-73550600D03*
X151983400Y-73550600D03*
X151983400Y-75750600D03*
X153883400Y-75750600D03*
D19*
X137782300Y-108644700D03*
X137782300Y-111344700D03*
D20*
X138256000Y-96520000D03*
X135556000Y-96520000D03*
X138256000Y-84074000D03*
X135556000Y-84074000D03*
D19*
X138303000Y-70938400D03*
X138303000Y-73638400D03*
D20*
X151761200Y-71297800D03*
X154461200Y-71297800D03*
D21*
X135496300Y-108744700D03*
X135496300Y-111244700D03*
D22*
X138156000Y-98806000D03*
X135656000Y-98806000D03*
X138156000Y-86233000D03*
X135656000Y-86233000D03*
D21*
X135788400Y-71063800D03*
X135788400Y-73563800D03*
D23*
X148750000Y-103759000D03*
X148750000Y-102489000D03*
X148750000Y-101219000D03*
X148750000Y-99949000D03*
X148750000Y-98679000D03*
X148750000Y-97409000D03*
X148750000Y-96139000D03*
X143350000Y-96139000D03*
X143350000Y-97409000D03*
X143350000Y-98679000D03*
X143350000Y-99949000D03*
X143350000Y-101219000D03*
X143350000Y-102489000D03*
X143350000Y-103759000D03*
X142842000Y-80772000D03*
X142842000Y-82042000D03*
X142842000Y-83312000D03*
X142842000Y-84582000D03*
X142842000Y-85852000D03*
X142842000Y-87122000D03*
X142842000Y-88392000D03*
X148242000Y-88392000D03*
X148242000Y-87122000D03*
X148242000Y-85852000D03*
X148242000Y-84582000D03*
X148242000Y-83312000D03*
X148242000Y-82042000D03*
X148242000Y-80772000D03*
D24*
X133350000Y-82550000D03*
X150063200Y-84531200D03*
X148412200Y-75717400D03*
X132461000Y-74549000D03*
X154457400Y-94208600D03*
X145288000Y-101600000D03*
X133324600Y-108280200D03*
X139573000Y-94615000D03*
X144322800Y-84582000D03*
X155041600Y-78740000D03*
X155067000Y-75133200D03*
X151358600Y-103225600D03*
X154381200Y-88366600D03*
X144018000Y-108331000D03*
D25*
X140182600Y-74345800D03*
D24*
X150037800Y-81940400D03*
D25*
X148640800Y-94386400D03*
X145465800Y-79451200D03*
X139623800Y-87680800D03*
X145338800Y-99923600D03*
X146685000Y-96393000D03*
X133858000Y-95148400D03*
X139573000Y-112141000D03*
D26*
X153883400Y-73550600D02*
X153883400Y-72989400D01*
X154461200Y-72411600D02*
X154461200Y-71297800D01*
X153883400Y-72989400D02*
X154461200Y-72411600D01*
X154461200Y-71297800D02*
X154461200Y-68355200D01*
X154461200Y-68355200D02*
X153924000Y-67818000D01*
X142842000Y-83312000D02*
X148242000Y-83312000D01*
X142842000Y-85852000D02*
X148242000Y-85852000D01*
X148242000Y-85852000D02*
X148742400Y-85852000D01*
X148742400Y-85852000D02*
X150063200Y-84531200D01*
X148242000Y-83312000D02*
X149631400Y-83312000D01*
X150063200Y-83743800D02*
X150063200Y-84531200D01*
X149631400Y-83312000D02*
X150063200Y-83743800D01*
X148242000Y-84582000D02*
X150012400Y-84582000D01*
X150012400Y-84582000D02*
X150063200Y-84531200D01*
D27*
X147574000Y-85852000D02*
X148242000Y-85852000D01*
D26*
X152933400Y-73550600D02*
X152933400Y-72517000D01*
X153111200Y-69545200D02*
X151384000Y-67818000D01*
X153111200Y-72339200D02*
X153111200Y-69545200D01*
X152933400Y-72517000D02*
X153111200Y-72339200D01*
X154381000Y-92313000D02*
X154381000Y-94132200D01*
X154381000Y-94132200D02*
X154457400Y-94208600D01*
X144907000Y-101219000D02*
X145288000Y-101600000D01*
X144907000Y-101219000D02*
X143350000Y-101219000D01*
X142842000Y-84582000D02*
X144322800Y-84582000D01*
X153883400Y-77581800D02*
X155041600Y-78740000D01*
X153883400Y-77581800D02*
X153883400Y-75750600D01*
X153883400Y-75750600D02*
X154449600Y-75750600D01*
X154449600Y-75750600D02*
X155067000Y-75133200D01*
X148750000Y-101219000D02*
X149352000Y-101219000D01*
X149352000Y-101219000D02*
X151358600Y-103225600D01*
X154381000Y-90313000D02*
X154381000Y-88366800D01*
X154381000Y-88366800D02*
X154381200Y-88366600D01*
D27*
X148242000Y-80772000D02*
X150444200Y-80772000D01*
X150444200Y-80772000D02*
X151561800Y-81889600D01*
X151561800Y-81889600D02*
X151561800Y-88061800D01*
X151561800Y-88061800D02*
X149987000Y-89636600D01*
X149987000Y-89636600D02*
X149987000Y-94437200D01*
X149987000Y-94437200D02*
X150393400Y-94843600D01*
X150393400Y-94843600D02*
X150393400Y-98298000D01*
X150393400Y-98298000D02*
X150012400Y-98679000D01*
X150012400Y-98679000D02*
X148750000Y-98679000D01*
X138303000Y-70938400D02*
X141194800Y-70938400D01*
X148242000Y-77985600D02*
X148242000Y-80772000D01*
X141194800Y-70938400D02*
X148242000Y-77985600D01*
X135788400Y-71063800D02*
X138177600Y-71063800D01*
X138177600Y-71063800D02*
X138303000Y-70938400D01*
X132588000Y-67818000D02*
X132588000Y-67863400D01*
X132588000Y-67863400D02*
X135788400Y-71063800D01*
X148242000Y-82042000D02*
X147015200Y-82042000D01*
X143154400Y-74345800D02*
X140182600Y-74345800D01*
X146685000Y-77876400D02*
X143154400Y-74345800D01*
X146685000Y-81711800D02*
X146685000Y-77876400D01*
X147015200Y-82042000D02*
X146685000Y-81711800D01*
X138303000Y-73638400D02*
X139475200Y-73638400D01*
X139475200Y-73638400D02*
X140182600Y-74345800D01*
X135788400Y-73563800D02*
X138228400Y-73563800D01*
X138228400Y-73563800D02*
X138303000Y-73638400D01*
D26*
X148242000Y-82042000D02*
X149936200Y-82042000D01*
X149936200Y-82042000D02*
X150037800Y-81940400D01*
D27*
X142842000Y-80772000D02*
X144145000Y-80772000D01*
X148750000Y-94495600D02*
X148750000Y-96139000D01*
X148640800Y-94386400D02*
X148750000Y-94495600D01*
X144145000Y-80772000D02*
X145465800Y-79451200D01*
X133223000Y-78867000D02*
X133967200Y-78867000D01*
X133967200Y-78867000D02*
X138256000Y-83155800D01*
X138256000Y-84074000D02*
X138256000Y-83155800D01*
X140639800Y-80772000D02*
X142842000Y-80772000D01*
X138256000Y-83155800D02*
X140639800Y-80772000D01*
X138256000Y-84074000D02*
X138256000Y-83486000D01*
X138256000Y-84074000D02*
X138256000Y-86133000D01*
X138256000Y-86133000D02*
X138156000Y-86233000D01*
X138256000Y-86133000D02*
X138156000Y-86233000D01*
X138256000Y-86260000D02*
X138156000Y-86360000D01*
X138256000Y-84074000D02*
X138684000Y-84074000D01*
X139623800Y-87680800D02*
X139623800Y-83743800D01*
X141325600Y-82042000D02*
X142842000Y-82042000D01*
X139623800Y-83743800D02*
X141325600Y-82042000D01*
X135656000Y-86233000D02*
X135656000Y-86811800D01*
X135656000Y-86811800D02*
X136525000Y-87680800D01*
X136525000Y-87680800D02*
X139623800Y-87680800D01*
X135656000Y-86233000D02*
X135656000Y-86659400D01*
X135656000Y-86233000D02*
X135656000Y-86761000D01*
X135556000Y-84074000D02*
X135556000Y-86133000D01*
X135556000Y-86133000D02*
X135656000Y-86233000D01*
X135656000Y-84174000D02*
X135556000Y-84074000D01*
X135556000Y-86133000D02*
X135656000Y-86233000D01*
X138938000Y-102235000D02*
X138938000Y-99588000D01*
X138938000Y-99588000D02*
X138156000Y-98806000D01*
X148242000Y-88392000D02*
X148242000Y-91813400D01*
X145313400Y-99949000D02*
X143350000Y-99949000D01*
X145338800Y-99923600D02*
X145313400Y-99949000D01*
X146685000Y-93370400D02*
X146685000Y-96393000D01*
X148242000Y-91813400D02*
X146685000Y-93370400D01*
X138256000Y-96520000D02*
X138256000Y-94408000D01*
X143822400Y-92811600D02*
X148242000Y-88392000D01*
X139852400Y-92811600D02*
X143822400Y-92811600D01*
X138256000Y-94408000D02*
X139852400Y-92811600D01*
X138156000Y-98806000D02*
X138156000Y-96620000D01*
X148082000Y-88392000D02*
X148242000Y-88392000D01*
X135556000Y-95173800D02*
X135737600Y-95173800D01*
X146913600Y-87122000D02*
X148242000Y-87122000D01*
X143814800Y-90220800D02*
X146913600Y-87122000D01*
X140690600Y-90220800D02*
X143814800Y-90220800D01*
X135737600Y-95173800D02*
X140690600Y-90220800D01*
X135556000Y-95173800D02*
X133883400Y-95173800D01*
X133883400Y-95173800D02*
X133858000Y-95148400D01*
X135556000Y-96520000D02*
X135556000Y-95173800D01*
X135656000Y-98806000D02*
X135656000Y-96620000D01*
X135656000Y-96620000D02*
X135556000Y-96520000D01*
X137782300Y-108644700D02*
X141918700Y-108644700D01*
X142367000Y-111252000D02*
X139192000Y-114427000D01*
X142367000Y-109093000D02*
X142367000Y-111252000D01*
X141918700Y-108644700D02*
X142367000Y-109093000D01*
X139192000Y-114427000D02*
X138303000Y-114427000D01*
X143350000Y-97409000D02*
X142316200Y-97409000D01*
X141147800Y-105279200D02*
X137782300Y-108644700D01*
X141147800Y-98577400D02*
X141147800Y-105279200D01*
X142316200Y-97409000D02*
X141147800Y-98577400D01*
X135496300Y-108744700D02*
X135496300Y-108724700D01*
X135496300Y-108724700D02*
X132994400Y-106222800D01*
X141528800Y-88392000D02*
X142842000Y-88392000D01*
X140614400Y-89306400D02*
X141528800Y-88392000D01*
X135280400Y-89306400D02*
X140614400Y-89306400D01*
X132994400Y-91592400D02*
X135280400Y-89306400D01*
X132994400Y-106222800D02*
X132994400Y-91592400D01*
X137782300Y-108644700D02*
X135596300Y-108644700D01*
X135596300Y-108644700D02*
X135496300Y-108744700D01*
X142842000Y-87122000D02*
X141274800Y-87122000D01*
X133723700Y-111244700D02*
X135496300Y-111244700D01*
X133723700Y-111244700D02*
X131927600Y-109448600D01*
X131927600Y-109448600D02*
X131927600Y-91084400D01*
X131927600Y-91084400D02*
X134543800Y-88468200D01*
X134543800Y-88468200D02*
X139928600Y-88468200D01*
X141274800Y-87122000D02*
X139928600Y-88468200D01*
X137782300Y-111344700D02*
X138776700Y-111344700D01*
X138776700Y-111344700D02*
X139573000Y-112141000D01*
X137782300Y-111344700D02*
X135596300Y-111344700D01*
X135596300Y-111344700D02*
X135496300Y-111244700D01*
X148750000Y-102489000D02*
X149352000Y-102489000D01*
X149352000Y-102489000D02*
X150114000Y-103251000D01*
X150114000Y-103251000D02*
X150114000Y-108204000D01*
X150114000Y-108204000D02*
X153543000Y-111633000D01*
X153543000Y-111633000D02*
X153543000Y-114427000D01*
X148750000Y-103759000D02*
X148750000Y-107602000D01*
X151003000Y-109855000D02*
X151003000Y-114427000D01*
X148750000Y-107602000D02*
X151003000Y-109855000D01*
X143350000Y-102489000D02*
X143891000Y-102489000D01*
X143891000Y-102489000D02*
X145415000Y-104013000D01*
X145415000Y-104013000D02*
X145415000Y-105664000D01*
X145415000Y-105664000D02*
X148463000Y-108712000D01*
X148463000Y-108712000D02*
X148463000Y-114427000D01*
X143350000Y-103759000D02*
X143350000Y-104996000D01*
X145923000Y-107569000D02*
X145923000Y-114427000D01*
X143350000Y-104996000D02*
X145923000Y-107569000D01*
X151761200Y-71297800D02*
X151761200Y-73328400D01*
X151761200Y-73328400D02*
X151983400Y-73550600D01*
X153543000Y-97409000D02*
X152400000Y-97409000D01*
X152400000Y-97409000D02*
X151131000Y-96140000D01*
X148750000Y-97409000D02*
X146202400Y-97409000D01*
X151131000Y-96468200D02*
X151131000Y-98982800D01*
X150164800Y-99949000D02*
X148750000Y-99949000D01*
X151131000Y-98982800D02*
X150164800Y-99949000D01*
X146202400Y-97485200D02*
X146202400Y-99364800D01*
X146202400Y-99364800D02*
X146786600Y-99949000D01*
X146786600Y-99949000D02*
X148750000Y-99949000D01*
X146202400Y-97409000D02*
X146202400Y-97485200D01*
X146202400Y-97485200D02*
X146202400Y-97536000D01*
X145059400Y-98679000D02*
X143350000Y-98679000D01*
X146202400Y-97536000D02*
X145059400Y-98679000D01*
X144932400Y-96139000D02*
X143350000Y-96139000D01*
X146202400Y-97409000D02*
X144932400Y-96139000D01*
X151131000Y-95479600D02*
X151131000Y-96140000D01*
X151131000Y-96140000D02*
X151131000Y-96468200D01*
X151131000Y-91313000D02*
X151131000Y-95479600D01*
M02*
