G04 #@! TF.FileFunction,Legend,Top*
%FSLAX46Y46*%
G04 Gerber Fmt 4.6, Leading zero omitted, Abs format (unit mm)*
G04 Created by KiCad (PCBNEW 4.0.2-stable) date Tuesday, December 20, 2016 'PMt' 02:13:57 PM*
%MOMM*%
G01*
G04 APERTURE LIST*
%ADD10C,0.100000*%
%ADD11C,0.150000*%
%ADD12R,1.650000X1.900000*%
%ADD13R,1.900000X1.650000*%
%ADD14R,1.700000X1.900000*%
%ADD15R,1.900000X1.700000*%
%ADD16R,1.050000X1.460000*%
%ADD17R,1.900000X1.000000*%
%ADD18R,1.600000X1.600000*%
%ADD19R,1.900000X2.000000*%
%ADD20R,2.127200X2.432000*%
%ADD21O,2.127200X2.432000*%
%ADD22R,2.635200X2.635200*%
%ADD23R,2.432000X2.432000*%
%ADD24O,2.432000X2.432000*%
G04 APERTURE END LIST*
D10*
D11*
X147566143Y-68080000D02*
X147470905Y-68032381D01*
X147328048Y-68032381D01*
X147185190Y-68080000D01*
X147089952Y-68175238D01*
X147042333Y-68270476D01*
X146994714Y-68460952D01*
X146994714Y-68603810D01*
X147042333Y-68794286D01*
X147089952Y-68889524D01*
X147185190Y-68984762D01*
X147328048Y-69032381D01*
X147423286Y-69032381D01*
X147566143Y-68984762D01*
X147613762Y-68937143D01*
X147613762Y-68603810D01*
X147423286Y-68603810D01*
X148042333Y-68365714D02*
X148042333Y-69032381D01*
X148042333Y-68460952D02*
X148089952Y-68413333D01*
X148185190Y-68365714D01*
X148328048Y-68365714D01*
X148423286Y-68413333D01*
X148470905Y-68508571D01*
X148470905Y-69032381D01*
X149375667Y-69032381D02*
X149375667Y-68032381D01*
X149375667Y-68984762D02*
X149280429Y-69032381D01*
X149089952Y-69032381D01*
X148994714Y-68984762D01*
X148947095Y-68937143D01*
X148899476Y-68841905D01*
X148899476Y-68556190D01*
X148947095Y-68460952D01*
X148994714Y-68413333D01*
X149089952Y-68365714D01*
X149280429Y-68365714D01*
X149375667Y-68413333D01*
X153249381Y-104187333D02*
X154249381Y-103854000D01*
X153249381Y-103520666D01*
X153868429Y-103187333D02*
X153868429Y-102425428D01*
X154249381Y-101377809D02*
X153773190Y-101711143D01*
X154249381Y-101949238D02*
X153249381Y-101949238D01*
X153249381Y-101568285D01*
X153297000Y-101473047D01*
X153344619Y-101425428D01*
X153439857Y-101377809D01*
X153582714Y-101377809D01*
X153677952Y-101425428D01*
X153725571Y-101473047D01*
X153773190Y-101568285D01*
X153773190Y-101949238D01*
X153725571Y-100949238D02*
X153725571Y-100615904D01*
X154249381Y-100473047D02*
X154249381Y-100949238D01*
X153249381Y-100949238D01*
X153249381Y-100473047D01*
X153725571Y-99711142D02*
X153725571Y-100044476D01*
X154249381Y-100044476D02*
X153249381Y-100044476D01*
X153249381Y-99568285D01*
X139192096Y-68334000D02*
X139096858Y-68286381D01*
X138954001Y-68286381D01*
X138811143Y-68334000D01*
X138715905Y-68429238D01*
X138668286Y-68524476D01*
X138620667Y-68714952D01*
X138620667Y-68857810D01*
X138668286Y-69048286D01*
X138715905Y-69143524D01*
X138811143Y-69238762D01*
X138954001Y-69286381D01*
X139049239Y-69286381D01*
X139192096Y-69238762D01*
X139239715Y-69191143D01*
X139239715Y-68857810D01*
X139049239Y-68857810D01*
X139668286Y-69286381D02*
X139668286Y-68286381D01*
X140239715Y-69286381D01*
X140239715Y-68286381D01*
X140715905Y-69286381D02*
X140715905Y-68286381D01*
X140954000Y-68286381D01*
X141096858Y-68334000D01*
X141192096Y-68429238D01*
X141239715Y-68524476D01*
X141287334Y-68714952D01*
X141287334Y-68857810D01*
X141239715Y-69048286D01*
X141192096Y-69143524D01*
X141096858Y-69238762D01*
X140954000Y-69286381D01*
X140715905Y-69286381D01*
X149082286Y-79573429D02*
X149844191Y-79573429D01*
X149463239Y-79954381D02*
X149463239Y-79192476D01*
X150225143Y-78954381D02*
X150844191Y-78954381D01*
X150510857Y-79335333D01*
X150653715Y-79335333D01*
X150748953Y-79382952D01*
X150796572Y-79430571D01*
X150844191Y-79525810D01*
X150844191Y-79763905D01*
X150796572Y-79859143D01*
X150748953Y-79906762D01*
X150653715Y-79954381D01*
X150368000Y-79954381D01*
X150272762Y-79906762D01*
X150225143Y-79859143D01*
X151129905Y-78954381D02*
X151463238Y-79954381D01*
X151796572Y-78954381D01*
X145470809Y-67127381D02*
X145470809Y-66127381D01*
X145851762Y-66127381D01*
X145947000Y-66175000D01*
X145994619Y-66222619D01*
X146042238Y-66317857D01*
X146042238Y-66460714D01*
X145994619Y-66555952D01*
X145947000Y-66603571D01*
X145851762Y-66651190D01*
X145470809Y-66651190D01*
X146613666Y-67127381D02*
X146518428Y-67079762D01*
X146470809Y-67032143D01*
X146423190Y-66936905D01*
X146423190Y-66651190D01*
X146470809Y-66555952D01*
X146518428Y-66508333D01*
X146613666Y-66460714D01*
X146756524Y-66460714D01*
X146851762Y-66508333D01*
X146899381Y-66555952D01*
X146947000Y-66651190D01*
X146947000Y-66936905D01*
X146899381Y-67032143D01*
X146851762Y-67079762D01*
X146756524Y-67127381D01*
X146613666Y-67127381D01*
X147280333Y-66460714D02*
X147470809Y-67127381D01*
X147661286Y-66651190D01*
X147851762Y-67127381D01*
X148042238Y-66460714D01*
X148804143Y-67079762D02*
X148708905Y-67127381D01*
X148518428Y-67127381D01*
X148423190Y-67079762D01*
X148375571Y-66984524D01*
X148375571Y-66603571D01*
X148423190Y-66508333D01*
X148518428Y-66460714D01*
X148708905Y-66460714D01*
X148804143Y-66508333D01*
X148851762Y-66603571D01*
X148851762Y-66698810D01*
X148375571Y-66794048D01*
X149280333Y-67127381D02*
X149280333Y-66460714D01*
X149280333Y-66651190D02*
X149327952Y-66555952D01*
X149375571Y-66508333D01*
X149470809Y-66460714D01*
X149566048Y-66460714D01*
X133167572Y-114911143D02*
X133119953Y-114958762D01*
X132977096Y-115006381D01*
X132881858Y-115006381D01*
X132739000Y-114958762D01*
X132643762Y-114863524D01*
X132596143Y-114768286D01*
X132548524Y-114577810D01*
X132548524Y-114434952D01*
X132596143Y-114244476D01*
X132643762Y-114149238D01*
X132739000Y-114054000D01*
X132881858Y-114006381D01*
X132977096Y-114006381D01*
X133119953Y-114054000D01*
X133167572Y-114101619D01*
X133596143Y-115006381D02*
X133596143Y-114006381D01*
X133596143Y-114482571D02*
X134167572Y-114482571D01*
X134167572Y-115006381D02*
X134167572Y-114006381D01*
X135834239Y-114339714D02*
X135834239Y-115006381D01*
X135596143Y-113958762D02*
X135358048Y-114673048D01*
X135977096Y-114673048D01*
X133929572Y-102846143D02*
X133881953Y-102893762D01*
X133739096Y-102941381D01*
X133643858Y-102941381D01*
X133501000Y-102893762D01*
X133405762Y-102798524D01*
X133358143Y-102703286D01*
X133310524Y-102512810D01*
X133310524Y-102369952D01*
X133358143Y-102179476D01*
X133405762Y-102084238D01*
X133501000Y-101989000D01*
X133643858Y-101941381D01*
X133739096Y-101941381D01*
X133881953Y-101989000D01*
X133929572Y-102036619D01*
X134358143Y-102941381D02*
X134358143Y-101941381D01*
X134358143Y-102417571D02*
X134929572Y-102417571D01*
X134929572Y-102941381D02*
X134929572Y-101941381D01*
X136072429Y-101941381D02*
X136691477Y-101941381D01*
X136358143Y-102322333D01*
X136501001Y-102322333D01*
X136596239Y-102369952D01*
X136643858Y-102417571D01*
X136691477Y-102512810D01*
X136691477Y-102750905D01*
X136643858Y-102846143D01*
X136596239Y-102893762D01*
X136501001Y-102941381D01*
X136215286Y-102941381D01*
X136120048Y-102893762D01*
X136072429Y-102846143D01*
X136215572Y-79351143D02*
X136167953Y-79398762D01*
X136025096Y-79446381D01*
X135929858Y-79446381D01*
X135787000Y-79398762D01*
X135691762Y-79303524D01*
X135644143Y-79208286D01*
X135596524Y-79017810D01*
X135596524Y-78874952D01*
X135644143Y-78684476D01*
X135691762Y-78589238D01*
X135787000Y-78494000D01*
X135929858Y-78446381D01*
X136025096Y-78446381D01*
X136167953Y-78494000D01*
X136215572Y-78541619D01*
X136644143Y-79446381D02*
X136644143Y-78446381D01*
X136644143Y-78922571D02*
X137215572Y-78922571D01*
X137215572Y-79446381D02*
X137215572Y-78446381D01*
X138406048Y-78541619D02*
X138453667Y-78494000D01*
X138548905Y-78446381D01*
X138787001Y-78446381D01*
X138882239Y-78494000D01*
X138929858Y-78541619D01*
X138977477Y-78636857D01*
X138977477Y-78732095D01*
X138929858Y-78874952D01*
X138358429Y-79446381D01*
X138977477Y-79446381D01*
X135326572Y-67413143D02*
X135278953Y-67460762D01*
X135136096Y-67508381D01*
X135040858Y-67508381D01*
X134898000Y-67460762D01*
X134802762Y-67365524D01*
X134755143Y-67270286D01*
X134707524Y-67079810D01*
X134707524Y-66936952D01*
X134755143Y-66746476D01*
X134802762Y-66651238D01*
X134898000Y-66556000D01*
X135040858Y-66508381D01*
X135136096Y-66508381D01*
X135278953Y-66556000D01*
X135326572Y-66603619D01*
X135755143Y-67508381D02*
X135755143Y-66508381D01*
X135755143Y-66984571D02*
X136326572Y-66984571D01*
X136326572Y-67508381D02*
X136326572Y-66508381D01*
X138088477Y-67508381D02*
X137517048Y-67508381D01*
X137802762Y-67508381D02*
X137802762Y-66508381D01*
X137707524Y-66651238D01*
X137612286Y-66746476D01*
X137517048Y-66794095D01*
X146407143Y-111458476D02*
X146454762Y-111506095D01*
X146502381Y-111648952D01*
X146502381Y-111744190D01*
X146454762Y-111887048D01*
X146359524Y-111982286D01*
X146264286Y-112029905D01*
X146073810Y-112077524D01*
X145930952Y-112077524D01*
X145740476Y-112029905D01*
X145645238Y-111982286D01*
X145550000Y-111887048D01*
X145502381Y-111744190D01*
X145502381Y-111648952D01*
X145550000Y-111506095D01*
X145597619Y-111458476D01*
X146502381Y-111029905D02*
X145502381Y-111029905D01*
X145978571Y-111029905D02*
X145978571Y-110458476D01*
X146502381Y-110458476D02*
X145502381Y-110458476D01*
X145835714Y-108791809D02*
X146502381Y-108791809D01*
X145454762Y-109029905D02*
X146169048Y-109268000D01*
X146169048Y-108648952D01*
X148947143Y-111458476D02*
X148994762Y-111506095D01*
X149042381Y-111648952D01*
X149042381Y-111744190D01*
X148994762Y-111887048D01*
X148899524Y-111982286D01*
X148804286Y-112029905D01*
X148613810Y-112077524D01*
X148470952Y-112077524D01*
X148280476Y-112029905D01*
X148185238Y-111982286D01*
X148090000Y-111887048D01*
X148042381Y-111744190D01*
X148042381Y-111648952D01*
X148090000Y-111506095D01*
X148137619Y-111458476D01*
X149042381Y-111029905D02*
X148042381Y-111029905D01*
X148518571Y-111029905D02*
X148518571Y-110458476D01*
X149042381Y-110458476D02*
X148042381Y-110458476D01*
X148042381Y-109315619D02*
X148042381Y-108696571D01*
X148423333Y-109029905D01*
X148423333Y-108887047D01*
X148470952Y-108791809D01*
X148518571Y-108744190D01*
X148613810Y-108696571D01*
X148851905Y-108696571D01*
X148947143Y-108744190D01*
X148994762Y-108791809D01*
X149042381Y-108887047D01*
X149042381Y-109172762D01*
X148994762Y-109268000D01*
X148947143Y-109315619D01*
X151487143Y-111458476D02*
X151534762Y-111506095D01*
X151582381Y-111648952D01*
X151582381Y-111744190D01*
X151534762Y-111887048D01*
X151439524Y-111982286D01*
X151344286Y-112029905D01*
X151153810Y-112077524D01*
X151010952Y-112077524D01*
X150820476Y-112029905D01*
X150725238Y-111982286D01*
X150630000Y-111887048D01*
X150582381Y-111744190D01*
X150582381Y-111648952D01*
X150630000Y-111506095D01*
X150677619Y-111458476D01*
X151582381Y-111029905D02*
X150582381Y-111029905D01*
X151058571Y-111029905D02*
X151058571Y-110458476D01*
X151582381Y-110458476D02*
X150582381Y-110458476D01*
X150677619Y-109268000D02*
X150630000Y-109220381D01*
X150582381Y-109125143D01*
X150582381Y-108887047D01*
X150630000Y-108791809D01*
X150677619Y-108744190D01*
X150772857Y-108696571D01*
X150868095Y-108696571D01*
X151010952Y-108744190D01*
X151582381Y-109315619D01*
X151582381Y-108696571D01*
X154027143Y-111458476D02*
X154074762Y-111506095D01*
X154122381Y-111648952D01*
X154122381Y-111744190D01*
X154074762Y-111887048D01*
X153979524Y-111982286D01*
X153884286Y-112029905D01*
X153693810Y-112077524D01*
X153550952Y-112077524D01*
X153360476Y-112029905D01*
X153265238Y-111982286D01*
X153170000Y-111887048D01*
X153122381Y-111744190D01*
X153122381Y-111648952D01*
X153170000Y-111506095D01*
X153217619Y-111458476D01*
X154122381Y-111029905D02*
X153122381Y-111029905D01*
X153598571Y-111029905D02*
X153598571Y-110458476D01*
X154122381Y-110458476D02*
X153122381Y-110458476D01*
X154122381Y-108696571D02*
X154122381Y-109268000D01*
X154122381Y-108982286D02*
X153122381Y-108982286D01*
X153265238Y-109077524D01*
X153360476Y-109172762D01*
X153408095Y-109268000D01*
X142756000Y-111506095D02*
X142708381Y-111601333D01*
X142708381Y-111744190D01*
X142756000Y-111887048D01*
X142851238Y-111982286D01*
X142946476Y-112029905D01*
X143136952Y-112077524D01*
X143279810Y-112077524D01*
X143470286Y-112029905D01*
X143565524Y-111982286D01*
X143660762Y-111887048D01*
X143708381Y-111744190D01*
X143708381Y-111648952D01*
X143660762Y-111506095D01*
X143613143Y-111458476D01*
X143279810Y-111458476D01*
X143279810Y-111648952D01*
X143708381Y-111029905D02*
X142708381Y-111029905D01*
X143708381Y-110458476D01*
X142708381Y-110458476D01*
X143708381Y-109982286D02*
X142708381Y-109982286D01*
X142708381Y-109744191D01*
X142756000Y-109601333D01*
X142851238Y-109506095D01*
X142946476Y-109458476D01*
X143136952Y-109410857D01*
X143279810Y-109410857D01*
X143470286Y-109458476D01*
X143565524Y-109506095D01*
X143660762Y-109601333D01*
X143708381Y-109744191D01*
X143708381Y-109982286D01*
X136638400Y-72813800D02*
X136638400Y-71813800D01*
X134938400Y-71813800D02*
X134938400Y-72813800D01*
X136406000Y-87083000D02*
X137406000Y-87083000D01*
X137406000Y-85383000D02*
X136406000Y-85383000D01*
X136406000Y-99656000D02*
X137406000Y-99656000D01*
X137406000Y-97956000D02*
X136406000Y-97956000D01*
X136346300Y-110494700D02*
X136346300Y-109494700D01*
X134646300Y-109494700D02*
X134646300Y-110494700D01*
X148449000Y-71282000D02*
X148449000Y-72482000D01*
X146699000Y-72482000D02*
X146699000Y-71282000D01*
X137428000Y-72888400D02*
X137428000Y-71688400D01*
X139178000Y-71688400D02*
X139178000Y-72888400D01*
X136306000Y-83199000D02*
X137506000Y-83199000D01*
X137506000Y-84949000D02*
X136306000Y-84949000D01*
X136306000Y-95645000D02*
X137506000Y-95645000D01*
X137506000Y-97395000D02*
X136306000Y-97395000D01*
X136907300Y-110594700D02*
X136907300Y-109394700D01*
X138657300Y-109394700D02*
X138657300Y-110594700D01*
X154174600Y-71937600D02*
G75*
G03X154174600Y-71937600I-100000J0D01*
G01*
X153824600Y-72487600D02*
X153824600Y-71987600D01*
X150924600Y-72487600D02*
X153824600Y-72487600D01*
X150924600Y-71987600D02*
X150924600Y-72487600D01*
X153824600Y-71987600D02*
X150924600Y-71987600D01*
X143467000Y-80132000D02*
X143467000Y-80247000D01*
X147617000Y-80132000D02*
X147617000Y-80247000D01*
X147617000Y-89032000D02*
X147617000Y-88917000D01*
X143467000Y-89032000D02*
X143467000Y-88917000D01*
X143467000Y-80132000D02*
X147617000Y-80132000D01*
X143467000Y-89032000D02*
X147617000Y-89032000D01*
X143467000Y-80247000D02*
X142092000Y-80247000D01*
X148125000Y-104399000D02*
X148125000Y-104284000D01*
X143975000Y-104399000D02*
X143975000Y-104284000D01*
X143975000Y-95499000D02*
X143975000Y-95614000D01*
X148125000Y-95499000D02*
X148125000Y-95614000D01*
X148125000Y-104399000D02*
X143975000Y-104399000D01*
X148125000Y-95499000D02*
X143975000Y-95499000D01*
X148125000Y-104284000D02*
X149500000Y-104284000D01*
X151231000Y-89763000D02*
X151231000Y-90213000D01*
X153581000Y-89763000D02*
X151231000Y-89763000D01*
X151231000Y-92863000D02*
X151231000Y-92413000D01*
X153581000Y-92863000D02*
X151231000Y-92863000D01*
X143383000Y-115977000D02*
X141833000Y-115977000D01*
X141833000Y-115977000D02*
X141833000Y-112877000D01*
X141833000Y-112877000D02*
X143383000Y-112877000D01*
X144653000Y-113157000D02*
X154813000Y-113157000D01*
X154813000Y-113157000D02*
X154813000Y-115697000D01*
X154813000Y-115697000D02*
X144653000Y-115697000D01*
X144653000Y-113157000D02*
X144653000Y-115697000D01*
X134138000Y-66268000D02*
X134138000Y-67818000D01*
X131038000Y-67818000D02*
X131038000Y-66268000D01*
X131038000Y-66268000D02*
X134138000Y-66268000D01*
X131318000Y-69088000D02*
X133858000Y-69088000D01*
X134773000Y-77317000D02*
X134773000Y-78867000D01*
X131673000Y-78867000D02*
X131673000Y-77317000D01*
X131673000Y-77317000D02*
X134773000Y-77317000D01*
X131953000Y-80137000D02*
X134493000Y-80137000D01*
X140488000Y-100685000D02*
X140488000Y-102235000D01*
X137388000Y-102235000D02*
X137388000Y-100685000D01*
X137388000Y-100685000D02*
X140488000Y-100685000D01*
X137668000Y-103505000D02*
X140208000Y-103505000D01*
X139853000Y-112877000D02*
X139853000Y-114427000D01*
X136753000Y-114427000D02*
X136753000Y-112877000D01*
X136753000Y-112877000D02*
X139853000Y-112877000D01*
X137033000Y-115697000D02*
X139573000Y-115697000D01*
X152654000Y-66548000D02*
X155194000Y-66548000D01*
X149834000Y-66268000D02*
X151384000Y-66268000D01*
X152654000Y-66548000D02*
X152654000Y-69088000D01*
X151384000Y-69368000D02*
X149834000Y-69368000D01*
X149834000Y-69368000D02*
X149834000Y-66268000D01*
X152654000Y-69088000D02*
X155194000Y-69088000D01*
X155194000Y-69088000D02*
X155194000Y-66548000D01*
X155347000Y-78206000D02*
X155347000Y-79756000D01*
X152247000Y-79756000D02*
X152247000Y-78206000D01*
X152247000Y-78206000D02*
X155347000Y-78206000D01*
X152527000Y-81026000D02*
X155067000Y-81026000D01*
X144806000Y-66776000D02*
X144806000Y-68326000D01*
X141706000Y-68326000D02*
X141706000Y-66776000D01*
X141706000Y-66776000D02*
X144806000Y-66776000D01*
X141986000Y-69596000D02*
X144526000Y-69596000D01*
X155093000Y-95859000D02*
X155093000Y-97409000D01*
X151993000Y-97409000D02*
X151993000Y-95859000D01*
X151993000Y-95859000D02*
X155093000Y-95859000D01*
X152273000Y-98679000D02*
X154813000Y-98679000D01*
X134418343Y-73382047D02*
X134465962Y-73429666D01*
X134513581Y-73572523D01*
X134513581Y-73667761D01*
X134465962Y-73810619D01*
X134370724Y-73905857D01*
X134275486Y-73953476D01*
X134085010Y-74001095D01*
X133942152Y-74001095D01*
X133751676Y-73953476D01*
X133656438Y-73905857D01*
X133561200Y-73810619D01*
X133513581Y-73667761D01*
X133513581Y-73572523D01*
X133561200Y-73429666D01*
X133608819Y-73382047D01*
X133608819Y-73001095D02*
X133561200Y-72953476D01*
X133513581Y-72858238D01*
X133513581Y-72620142D01*
X133561200Y-72524904D01*
X133608819Y-72477285D01*
X133704057Y-72429666D01*
X133799295Y-72429666D01*
X133942152Y-72477285D01*
X134513581Y-73048714D01*
X134513581Y-72429666D01*
X133513581Y-71810619D02*
X133513581Y-71715380D01*
X133561200Y-71620142D01*
X133608819Y-71572523D01*
X133704057Y-71524904D01*
X133894533Y-71477285D01*
X134132629Y-71477285D01*
X134323105Y-71524904D01*
X134418343Y-71572523D01*
X134465962Y-71620142D01*
X134513581Y-71715380D01*
X134513581Y-71810619D01*
X134465962Y-71905857D01*
X134418343Y-71953476D01*
X134323105Y-72001095D01*
X134132629Y-72048714D01*
X133894533Y-72048714D01*
X133704057Y-72001095D01*
X133608819Y-71953476D01*
X133561200Y-71905857D01*
X133513581Y-71810619D01*
X133608819Y-71096333D02*
X133561200Y-71048714D01*
X133513581Y-70953476D01*
X133513581Y-70715380D01*
X133561200Y-70620142D01*
X133608819Y-70572523D01*
X133704057Y-70524904D01*
X133799295Y-70524904D01*
X133942152Y-70572523D01*
X134513581Y-71143952D01*
X134513581Y-70524904D01*
X135786953Y-88368143D02*
X135739334Y-88415762D01*
X135596477Y-88463381D01*
X135501239Y-88463381D01*
X135358381Y-88415762D01*
X135263143Y-88320524D01*
X135215524Y-88225286D01*
X135167905Y-88034810D01*
X135167905Y-87891952D01*
X135215524Y-87701476D01*
X135263143Y-87606238D01*
X135358381Y-87511000D01*
X135501239Y-87463381D01*
X135596477Y-87463381D01*
X135739334Y-87511000D01*
X135786953Y-87558619D01*
X136120286Y-87463381D02*
X136739334Y-87463381D01*
X136406000Y-87844333D01*
X136548858Y-87844333D01*
X136644096Y-87891952D01*
X136691715Y-87939571D01*
X136739334Y-88034810D01*
X136739334Y-88272905D01*
X136691715Y-88368143D01*
X136644096Y-88415762D01*
X136548858Y-88463381D01*
X136263143Y-88463381D01*
X136167905Y-88415762D01*
X136120286Y-88368143D01*
X137358381Y-87463381D02*
X137453620Y-87463381D01*
X137548858Y-87511000D01*
X137596477Y-87558619D01*
X137644096Y-87653857D01*
X137691715Y-87844333D01*
X137691715Y-88082429D01*
X137644096Y-88272905D01*
X137596477Y-88368143D01*
X137548858Y-88415762D01*
X137453620Y-88463381D01*
X137358381Y-88463381D01*
X137263143Y-88415762D01*
X137215524Y-88368143D01*
X137167905Y-88272905D01*
X137120286Y-88082429D01*
X137120286Y-87844333D01*
X137167905Y-87653857D01*
X137215524Y-87558619D01*
X137263143Y-87511000D01*
X137358381Y-87463381D01*
X138644096Y-88463381D02*
X138072667Y-88463381D01*
X138358381Y-88463381D02*
X138358381Y-87463381D01*
X138263143Y-87606238D01*
X138167905Y-87701476D01*
X138072667Y-87749095D01*
X131595953Y-100179143D02*
X131548334Y-100226762D01*
X131405477Y-100274381D01*
X131310239Y-100274381D01*
X131167381Y-100226762D01*
X131072143Y-100131524D01*
X131024524Y-100036286D01*
X130976905Y-99845810D01*
X130976905Y-99702952D01*
X131024524Y-99512476D01*
X131072143Y-99417238D01*
X131167381Y-99322000D01*
X131310239Y-99274381D01*
X131405477Y-99274381D01*
X131548334Y-99322000D01*
X131595953Y-99369619D01*
X132453096Y-99607714D02*
X132453096Y-100274381D01*
X132215000Y-99226762D02*
X131976905Y-99941048D01*
X132595953Y-99941048D01*
X133167381Y-99274381D02*
X133262620Y-99274381D01*
X133357858Y-99322000D01*
X133405477Y-99369619D01*
X133453096Y-99464857D01*
X133500715Y-99655333D01*
X133500715Y-99893429D01*
X133453096Y-100083905D01*
X133405477Y-100179143D01*
X133357858Y-100226762D01*
X133262620Y-100274381D01*
X133167381Y-100274381D01*
X133072143Y-100226762D01*
X133024524Y-100179143D01*
X132976905Y-100083905D01*
X132929286Y-99893429D01*
X132929286Y-99655333D01*
X132976905Y-99464857D01*
X133024524Y-99369619D01*
X133072143Y-99322000D01*
X133167381Y-99274381D01*
X134453096Y-100274381D02*
X133881667Y-100274381D01*
X134167381Y-100274381D02*
X134167381Y-99274381D01*
X134072143Y-99417238D01*
X133976905Y-99512476D01*
X133881667Y-99560095D01*
X132865953Y-106910143D02*
X132818334Y-106957762D01*
X132675477Y-107005381D01*
X132580239Y-107005381D01*
X132437381Y-106957762D01*
X132342143Y-106862524D01*
X132294524Y-106767286D01*
X132246905Y-106576810D01*
X132246905Y-106433952D01*
X132294524Y-106243476D01*
X132342143Y-106148238D01*
X132437381Y-106053000D01*
X132580239Y-106005381D01*
X132675477Y-106005381D01*
X132818334Y-106053000D01*
X132865953Y-106100619D01*
X133770715Y-106005381D02*
X133294524Y-106005381D01*
X133246905Y-106481571D01*
X133294524Y-106433952D01*
X133389762Y-106386333D01*
X133627858Y-106386333D01*
X133723096Y-106433952D01*
X133770715Y-106481571D01*
X133818334Y-106576810D01*
X133818334Y-106814905D01*
X133770715Y-106910143D01*
X133723096Y-106957762D01*
X133627858Y-107005381D01*
X133389762Y-107005381D01*
X133294524Y-106957762D01*
X133246905Y-106910143D01*
X134437381Y-106005381D02*
X134532620Y-106005381D01*
X134627858Y-106053000D01*
X134675477Y-106100619D01*
X134723096Y-106195857D01*
X134770715Y-106386333D01*
X134770715Y-106624429D01*
X134723096Y-106814905D01*
X134675477Y-106910143D01*
X134627858Y-106957762D01*
X134532620Y-107005381D01*
X134437381Y-107005381D01*
X134342143Y-106957762D01*
X134294524Y-106910143D01*
X134246905Y-106814905D01*
X134199286Y-106624429D01*
X134199286Y-106386333D01*
X134246905Y-106195857D01*
X134294524Y-106100619D01*
X134342143Y-106053000D01*
X134437381Y-106005381D01*
X135723096Y-107005381D02*
X135151667Y-107005381D01*
X135437381Y-107005381D02*
X135437381Y-106005381D01*
X135342143Y-106148238D01*
X135246905Y-106243476D01*
X135151667Y-106291095D01*
X146349981Y-73051847D02*
X145873790Y-73385181D01*
X146349981Y-73623276D02*
X145349981Y-73623276D01*
X145349981Y-73242323D01*
X145397600Y-73147085D01*
X145445219Y-73099466D01*
X145540457Y-73051847D01*
X145683314Y-73051847D01*
X145778552Y-73099466D01*
X145826171Y-73147085D01*
X145873790Y-73242323D01*
X145873790Y-73623276D01*
X146349981Y-72099466D02*
X146349981Y-72670895D01*
X146349981Y-72385181D02*
X145349981Y-72385181D01*
X145492838Y-72480419D01*
X145588076Y-72575657D01*
X145635695Y-72670895D01*
X145349981Y-71480419D02*
X145349981Y-71385180D01*
X145397600Y-71289942D01*
X145445219Y-71242323D01*
X145540457Y-71194704D01*
X145730933Y-71147085D01*
X145969029Y-71147085D01*
X146159505Y-71194704D01*
X146254743Y-71242323D01*
X146302362Y-71289942D01*
X146349981Y-71385180D01*
X146349981Y-71480419D01*
X146302362Y-71575657D01*
X146254743Y-71623276D01*
X146159505Y-71670895D01*
X145969029Y-71718514D01*
X145730933Y-71718514D01*
X145540457Y-71670895D01*
X145445219Y-71623276D01*
X145397600Y-71575657D01*
X145349981Y-71480419D01*
X146349981Y-70194704D02*
X146349981Y-70766133D01*
X146349981Y-70480419D02*
X145349981Y-70480419D01*
X145492838Y-70575657D01*
X145588076Y-70670895D01*
X145635695Y-70766133D01*
X140431781Y-73407447D02*
X139955590Y-73740781D01*
X140431781Y-73978876D02*
X139431781Y-73978876D01*
X139431781Y-73597923D01*
X139479400Y-73502685D01*
X139527019Y-73455066D01*
X139622257Y-73407447D01*
X139765114Y-73407447D01*
X139860352Y-73455066D01*
X139907971Y-73502685D01*
X139955590Y-73597923D01*
X139955590Y-73978876D01*
X139527019Y-73026495D02*
X139479400Y-72978876D01*
X139431781Y-72883638D01*
X139431781Y-72645542D01*
X139479400Y-72550304D01*
X139527019Y-72502685D01*
X139622257Y-72455066D01*
X139717495Y-72455066D01*
X139860352Y-72502685D01*
X140431781Y-73074114D01*
X140431781Y-72455066D01*
X139431781Y-71836019D02*
X139431781Y-71740780D01*
X139479400Y-71645542D01*
X139527019Y-71597923D01*
X139622257Y-71550304D01*
X139812733Y-71502685D01*
X140050829Y-71502685D01*
X140241305Y-71550304D01*
X140336543Y-71597923D01*
X140384162Y-71645542D01*
X140431781Y-71740780D01*
X140431781Y-71836019D01*
X140384162Y-71931257D01*
X140336543Y-71978876D01*
X140241305Y-72026495D01*
X140050829Y-72074114D01*
X139812733Y-72074114D01*
X139622257Y-72026495D01*
X139527019Y-71978876D01*
X139479400Y-71931257D01*
X139431781Y-71836019D01*
X140431781Y-70550304D02*
X140431781Y-71121733D01*
X140431781Y-70836019D02*
X139431781Y-70836019D01*
X139574638Y-70931257D01*
X139669876Y-71026495D01*
X139717495Y-71121733D01*
X135786953Y-82875381D02*
X135453619Y-82399190D01*
X135215524Y-82875381D02*
X135215524Y-81875381D01*
X135596477Y-81875381D01*
X135691715Y-81923000D01*
X135739334Y-81970619D01*
X135786953Y-82065857D01*
X135786953Y-82208714D01*
X135739334Y-82303952D01*
X135691715Y-82351571D01*
X135596477Y-82399190D01*
X135215524Y-82399190D01*
X136120286Y-81875381D02*
X136739334Y-81875381D01*
X136406000Y-82256333D01*
X136548858Y-82256333D01*
X136644096Y-82303952D01*
X136691715Y-82351571D01*
X136739334Y-82446810D01*
X136739334Y-82684905D01*
X136691715Y-82780143D01*
X136644096Y-82827762D01*
X136548858Y-82875381D01*
X136263143Y-82875381D01*
X136167905Y-82827762D01*
X136120286Y-82780143D01*
X137358381Y-81875381D02*
X137453620Y-81875381D01*
X137548858Y-81923000D01*
X137596477Y-81970619D01*
X137644096Y-82065857D01*
X137691715Y-82256333D01*
X137691715Y-82494429D01*
X137644096Y-82684905D01*
X137596477Y-82780143D01*
X137548858Y-82827762D01*
X137453620Y-82875381D01*
X137358381Y-82875381D01*
X137263143Y-82827762D01*
X137215524Y-82780143D01*
X137167905Y-82684905D01*
X137120286Y-82494429D01*
X137120286Y-82256333D01*
X137167905Y-82065857D01*
X137215524Y-81970619D01*
X137263143Y-81923000D01*
X137358381Y-81875381D01*
X138644096Y-82875381D02*
X138072667Y-82875381D01*
X138358381Y-82875381D02*
X138358381Y-81875381D01*
X138263143Y-82018238D01*
X138167905Y-82113476D01*
X138072667Y-82161095D01*
X135913953Y-95194381D02*
X135580619Y-94718190D01*
X135342524Y-95194381D02*
X135342524Y-94194381D01*
X135723477Y-94194381D01*
X135818715Y-94242000D01*
X135866334Y-94289619D01*
X135913953Y-94384857D01*
X135913953Y-94527714D01*
X135866334Y-94622952D01*
X135818715Y-94670571D01*
X135723477Y-94718190D01*
X135342524Y-94718190D01*
X136771096Y-94527714D02*
X136771096Y-95194381D01*
X136533000Y-94146762D02*
X136294905Y-94861048D01*
X136913953Y-94861048D01*
X137485381Y-94194381D02*
X137580620Y-94194381D01*
X137675858Y-94242000D01*
X137723477Y-94289619D01*
X137771096Y-94384857D01*
X137818715Y-94575333D01*
X137818715Y-94813429D01*
X137771096Y-95003905D01*
X137723477Y-95099143D01*
X137675858Y-95146762D01*
X137580620Y-95194381D01*
X137485381Y-95194381D01*
X137390143Y-95146762D01*
X137342524Y-95099143D01*
X137294905Y-95003905D01*
X137247286Y-94813429D01*
X137247286Y-94575333D01*
X137294905Y-94384857D01*
X137342524Y-94289619D01*
X137390143Y-94242000D01*
X137485381Y-94194381D01*
X138771096Y-95194381D02*
X138199667Y-95194381D01*
X138485381Y-95194381D02*
X138485381Y-94194381D01*
X138390143Y-94337238D01*
X138294905Y-94432476D01*
X138199667Y-94480095D01*
X138072953Y-107005381D02*
X137739619Y-106529190D01*
X137501524Y-107005381D02*
X137501524Y-106005381D01*
X137882477Y-106005381D01*
X137977715Y-106053000D01*
X138025334Y-106100619D01*
X138072953Y-106195857D01*
X138072953Y-106338714D01*
X138025334Y-106433952D01*
X137977715Y-106481571D01*
X137882477Y-106529190D01*
X137501524Y-106529190D01*
X138977715Y-106005381D02*
X138501524Y-106005381D01*
X138453905Y-106481571D01*
X138501524Y-106433952D01*
X138596762Y-106386333D01*
X138834858Y-106386333D01*
X138930096Y-106433952D01*
X138977715Y-106481571D01*
X139025334Y-106576810D01*
X139025334Y-106814905D01*
X138977715Y-106910143D01*
X138930096Y-106957762D01*
X138834858Y-107005381D01*
X138596762Y-107005381D01*
X138501524Y-106957762D01*
X138453905Y-106910143D01*
X139644381Y-106005381D02*
X139739620Y-106005381D01*
X139834858Y-106053000D01*
X139882477Y-106100619D01*
X139930096Y-106195857D01*
X139977715Y-106386333D01*
X139977715Y-106624429D01*
X139930096Y-106814905D01*
X139882477Y-106910143D01*
X139834858Y-106957762D01*
X139739620Y-107005381D01*
X139644381Y-107005381D01*
X139549143Y-106957762D01*
X139501524Y-106910143D01*
X139453905Y-106814905D01*
X139406286Y-106624429D01*
X139406286Y-106386333D01*
X139453905Y-106195857D01*
X139501524Y-106100619D01*
X139549143Y-106053000D01*
X139644381Y-106005381D01*
X140930096Y-107005381D02*
X140358667Y-107005381D01*
X140644381Y-107005381D02*
X140644381Y-106005381D01*
X140549143Y-106148238D01*
X140453905Y-106243476D01*
X140358667Y-106291095D01*
X150685714Y-74433181D02*
X150685714Y-75242705D01*
X150733333Y-75337943D01*
X150780952Y-75385562D01*
X150876190Y-75433181D01*
X151066667Y-75433181D01*
X151161905Y-75385562D01*
X151209524Y-75337943D01*
X151257143Y-75242705D01*
X151257143Y-74433181D01*
X152257143Y-75433181D02*
X151685714Y-75433181D01*
X151971428Y-75433181D02*
X151971428Y-74433181D01*
X151876190Y-74576038D01*
X151780952Y-74671276D01*
X151685714Y-74718895D01*
X152876190Y-74433181D02*
X152971429Y-74433181D01*
X153066667Y-74480800D01*
X153114286Y-74528419D01*
X153161905Y-74623657D01*
X153209524Y-74814133D01*
X153209524Y-75052229D01*
X153161905Y-75242705D01*
X153114286Y-75337943D01*
X153066667Y-75385562D01*
X152971429Y-75433181D01*
X152876190Y-75433181D01*
X152780952Y-75385562D01*
X152733333Y-75337943D01*
X152685714Y-75242705D01*
X152638095Y-75052229D01*
X152638095Y-74814133D01*
X152685714Y-74623657D01*
X152733333Y-74528419D01*
X152780952Y-74480800D01*
X152876190Y-74433181D01*
X154161905Y-75433181D02*
X153590476Y-75433181D01*
X153876190Y-75433181D02*
X153876190Y-74433181D01*
X153780952Y-74576038D01*
X153685714Y-74671276D01*
X153590476Y-74718895D01*
X143827714Y-78659381D02*
X143827714Y-79468905D01*
X143875333Y-79564143D01*
X143922952Y-79611762D01*
X144018190Y-79659381D01*
X144208667Y-79659381D01*
X144303905Y-79611762D01*
X144351524Y-79564143D01*
X144399143Y-79468905D01*
X144399143Y-78659381D01*
X144827714Y-78754619D02*
X144875333Y-78707000D01*
X144970571Y-78659381D01*
X145208667Y-78659381D01*
X145303905Y-78707000D01*
X145351524Y-78754619D01*
X145399143Y-78849857D01*
X145399143Y-78945095D01*
X145351524Y-79087952D01*
X144780095Y-79659381D01*
X145399143Y-79659381D01*
X146018190Y-78659381D02*
X146113429Y-78659381D01*
X146208667Y-78707000D01*
X146256286Y-78754619D01*
X146303905Y-78849857D01*
X146351524Y-79040333D01*
X146351524Y-79278429D01*
X146303905Y-79468905D01*
X146256286Y-79564143D01*
X146208667Y-79611762D01*
X146113429Y-79659381D01*
X146018190Y-79659381D01*
X145922952Y-79611762D01*
X145875333Y-79564143D01*
X145827714Y-79468905D01*
X145780095Y-79278429D01*
X145780095Y-79040333D01*
X145827714Y-78849857D01*
X145875333Y-78754619D01*
X145922952Y-78707000D01*
X146018190Y-78659381D01*
X147303905Y-79659381D02*
X146732476Y-79659381D01*
X147018190Y-79659381D02*
X147018190Y-78659381D01*
X146922952Y-78802238D01*
X146827714Y-78897476D01*
X146732476Y-78945095D01*
X144208714Y-93940381D02*
X144208714Y-94749905D01*
X144256333Y-94845143D01*
X144303952Y-94892762D01*
X144399190Y-94940381D01*
X144589667Y-94940381D01*
X144684905Y-94892762D01*
X144732524Y-94845143D01*
X144780143Y-94749905D01*
X144780143Y-93940381D01*
X145208714Y-94035619D02*
X145256333Y-93988000D01*
X145351571Y-93940381D01*
X145589667Y-93940381D01*
X145684905Y-93988000D01*
X145732524Y-94035619D01*
X145780143Y-94130857D01*
X145780143Y-94226095D01*
X145732524Y-94368952D01*
X145161095Y-94940381D01*
X145780143Y-94940381D01*
X146399190Y-93940381D02*
X146494429Y-93940381D01*
X146589667Y-93988000D01*
X146637286Y-94035619D01*
X146684905Y-94130857D01*
X146732524Y-94321333D01*
X146732524Y-94559429D01*
X146684905Y-94749905D01*
X146637286Y-94845143D01*
X146589667Y-94892762D01*
X146494429Y-94940381D01*
X146399190Y-94940381D01*
X146303952Y-94892762D01*
X146256333Y-94845143D01*
X146208714Y-94749905D01*
X146161095Y-94559429D01*
X146161095Y-94321333D01*
X146208714Y-94130857D01*
X146256333Y-94035619D01*
X146303952Y-93988000D01*
X146399190Y-93940381D01*
X147113476Y-94035619D02*
X147161095Y-93988000D01*
X147256333Y-93940381D01*
X147494429Y-93940381D01*
X147589667Y-93988000D01*
X147637286Y-94035619D01*
X147684905Y-94130857D01*
X147684905Y-94226095D01*
X147637286Y-94368952D01*
X147065857Y-94940381D01*
X147684905Y-94940381D01*
X153157181Y-88695019D02*
X152680990Y-89028353D01*
X153157181Y-89266448D02*
X152157181Y-89266448D01*
X152157181Y-88885495D01*
X152204800Y-88790257D01*
X152252419Y-88742638D01*
X152347657Y-88695019D01*
X152490514Y-88695019D01*
X152585752Y-88742638D01*
X152633371Y-88790257D01*
X152680990Y-88885495D01*
X152680990Y-89266448D01*
X152157181Y-88409305D02*
X153157181Y-88075972D01*
X152157181Y-87742638D01*
X153157181Y-86885495D02*
X153157181Y-87456924D01*
X153157181Y-87171210D02*
X152157181Y-87171210D01*
X152300038Y-87266448D01*
X152395276Y-87361686D01*
X152442895Y-87456924D01*
X152157181Y-86266448D02*
X152157181Y-86171209D01*
X152204800Y-86075971D01*
X152252419Y-86028352D01*
X152347657Y-85980733D01*
X152538133Y-85933114D01*
X152776229Y-85933114D01*
X152966705Y-85980733D01*
X153061943Y-86028352D01*
X153109562Y-86075971D01*
X153157181Y-86171209D01*
X153157181Y-86266448D01*
X153109562Y-86361686D01*
X153061943Y-86409305D01*
X152966705Y-86456924D01*
X152776229Y-86504543D01*
X152538133Y-86504543D01*
X152347657Y-86456924D01*
X152252419Y-86409305D01*
X152204800Y-86361686D01*
X152157181Y-86266448D01*
X153157181Y-84980733D02*
X153157181Y-85552162D01*
X153157181Y-85266448D02*
X152157181Y-85266448D01*
X152300038Y-85361686D01*
X152395276Y-85456924D01*
X152442895Y-85552162D01*
%LPC*%
D12*
X135788400Y-71063800D03*
X135788400Y-73563800D03*
D13*
X138156000Y-86233000D03*
X135656000Y-86233000D03*
X138156000Y-98806000D03*
X135656000Y-98806000D03*
D12*
X135496300Y-108744700D03*
X135496300Y-111244700D03*
D14*
X147574000Y-73232000D03*
X147574000Y-70532000D03*
X138303000Y-70938400D03*
X138303000Y-73638400D03*
D15*
X138256000Y-84074000D03*
X135556000Y-84074000D03*
X138256000Y-96520000D03*
X135556000Y-96520000D03*
D14*
X137782300Y-108644700D03*
X137782300Y-111344700D03*
D16*
X153324600Y-71137600D03*
X152374600Y-71137600D03*
X151424600Y-71137600D03*
X151424600Y-73337600D03*
X153324600Y-73337600D03*
D17*
X142842000Y-80772000D03*
X142842000Y-82042000D03*
X142842000Y-83312000D03*
X142842000Y-84582000D03*
X142842000Y-85852000D03*
X142842000Y-87122000D03*
X142842000Y-88392000D03*
X148242000Y-88392000D03*
X148242000Y-87122000D03*
X148242000Y-85852000D03*
X148242000Y-84582000D03*
X148242000Y-83312000D03*
X148242000Y-82042000D03*
X148242000Y-80772000D03*
X148750000Y-103759000D03*
X148750000Y-102489000D03*
X148750000Y-101219000D03*
X148750000Y-99949000D03*
X148750000Y-98679000D03*
X148750000Y-97409000D03*
X148750000Y-96139000D03*
X143350000Y-96139000D03*
X143350000Y-97409000D03*
X143350000Y-98679000D03*
X143350000Y-99949000D03*
X143350000Y-101219000D03*
X143350000Y-102489000D03*
X143350000Y-103759000D03*
D18*
X154381000Y-90313000D03*
X154381000Y-92313000D03*
D19*
X151131000Y-91313000D03*
D20*
X143383000Y-114427000D03*
D21*
X145923000Y-114427000D03*
X148463000Y-114427000D03*
X151003000Y-114427000D03*
X153543000Y-114427000D03*
D22*
X132588000Y-67818000D03*
X133223000Y-78867000D03*
X138938000Y-102235000D03*
X138303000Y-114427000D03*
D23*
X151384000Y-67818000D03*
D24*
X153924000Y-67818000D03*
D22*
X153797000Y-79756000D03*
X143256000Y-68326000D03*
X153543000Y-97409000D03*
M02*
