M48
;DRILL file {KiCad 4.0.2-stable} date Sunday, December 18, 2016 'PMt' 01:14:22 PM
;FORMAT={3:3/ absolute / metric / keep zeros}
FMAT,2
METRIC,TZ
T1C0.330
T2C1.016
%
G90
G05
M71
T1
X132461Y-074549
X133325Y-108280
X133350Y-082550
X133858Y-095148
X139573Y-094615
X139573Y-112141
X139624Y-087681
X140462Y-075235
X140970Y-082093
X144018Y-108331
X144374Y-087147
X144729Y-082855
X145288Y-101600
X145339Y-099924
X145440Y-081077
X146685Y-096393
X148361Y-093828
X150038Y-081940
X150063Y-084531
X150089Y-087147
X151359Y-103226
X152375Y-072390
X152425Y-075565
X154381Y-088367
X154457Y-070053
X154457Y-094209
X154762Y-073330
T2
X132588Y-067818
X133223Y-078867
X138303Y-114427
X138938Y-102235
X143256Y-068326
X143383Y-114427
X145923Y-114427
X148463Y-114427
X151003Y-114427
X151384Y-067818
X153543Y-097409
X153543Y-114427
X153797Y-079756
X153924Y-067818
T0
M30
