G04 #@! TF.FileFunction,Copper,L3,Inr,Signal*
%FSLAX46Y46*%
G04 Gerber Fmt 4.6, Leading zero omitted, Abs format (unit mm)*
G04 Created by KiCad (PCBNEW 4.0.2-stable) date Tuesday, December 20, 2016 'PMt' 02:13:57 PM*
%MOMM*%
G01*
G04 APERTURE LIST*
%ADD10C,0.100000*%
%ADD11R,1.727200X2.032000*%
%ADD12O,1.727200X2.032000*%
%ADD13R,2.235200X2.235200*%
%ADD14R,2.032000X2.032000*%
%ADD15O,2.032000X2.032000*%
%ADD16C,0.889000*%
%ADD17C,0.685800*%
%ADD18C,0.152400*%
G04 APERTURE END LIST*
D10*
D11*
X143383000Y-114427000D03*
D12*
X145923000Y-114427000D03*
X148463000Y-114427000D03*
X151003000Y-114427000D03*
X153543000Y-114427000D03*
D13*
X132588000Y-67818000D03*
X133223000Y-78867000D03*
X138938000Y-102235000D03*
X138303000Y-114427000D03*
D14*
X151384000Y-67818000D03*
D15*
X153924000Y-67818000D03*
D13*
X153797000Y-79756000D03*
X143256000Y-68326000D03*
X153543000Y-97409000D03*
D16*
X154457400Y-70053200D03*
X132461000Y-74549000D03*
X154457400Y-94208600D03*
X150088600Y-87147400D03*
X145288000Y-101600000D03*
X144373600Y-87147400D03*
X150037800Y-81940400D03*
X140970000Y-82092800D03*
X150063200Y-84531200D03*
X133324600Y-108280200D03*
X152374600Y-72390000D03*
X139573000Y-94615000D03*
X133350000Y-82550000D03*
X151358600Y-103225600D03*
X154381200Y-88366600D03*
X144018000Y-108331000D03*
X144729200Y-82854800D03*
X152425400Y-75565000D03*
X154762200Y-73329800D03*
D17*
X140462000Y-75234800D03*
X148361400Y-93827600D03*
X145440400Y-81076800D03*
X139623800Y-87680800D03*
X145338800Y-99923600D03*
X146685000Y-96393000D03*
X133858000Y-95148400D03*
X139573000Y-112141000D03*
D18*
G36*
X155550800Y-116180800D02*
X130961200Y-116180800D01*
X130961200Y-113309400D01*
X136848731Y-113309400D01*
X136848731Y-115544600D01*
X136871756Y-115666965D01*
X136944073Y-115779349D01*
X137054417Y-115854744D01*
X137185400Y-115881269D01*
X139420600Y-115881269D01*
X139542965Y-115858244D01*
X139655349Y-115785927D01*
X139730744Y-115675583D01*
X139757269Y-115544600D01*
X139757269Y-114560350D01*
X142189200Y-114560350D01*
X142189200Y-115508681D01*
X142239470Y-115630043D01*
X142332357Y-115722930D01*
X142453719Y-115773200D01*
X143249650Y-115773200D01*
X143332200Y-115690650D01*
X143332200Y-114477800D01*
X143433800Y-114477800D01*
X143433800Y-115690650D01*
X143516350Y-115773200D01*
X144312281Y-115773200D01*
X144433643Y-115722930D01*
X144526530Y-115630043D01*
X144576800Y-115508681D01*
X144576800Y-114560350D01*
X144494250Y-114477800D01*
X143433800Y-114477800D01*
X143332200Y-114477800D01*
X142271750Y-114477800D01*
X142189200Y-114560350D01*
X139757269Y-114560350D01*
X139757269Y-113345319D01*
X142189200Y-113345319D01*
X142189200Y-114293650D01*
X142271750Y-114376200D01*
X143332200Y-114376200D01*
X143332200Y-113163350D01*
X143433800Y-113163350D01*
X143433800Y-114376200D01*
X144494250Y-114376200D01*
X144576800Y-114293650D01*
X144576800Y-114248226D01*
X144729200Y-114248226D01*
X144729200Y-114605774D01*
X144820073Y-115062621D01*
X145078856Y-115449918D01*
X145466153Y-115708701D01*
X145923000Y-115799574D01*
X146379847Y-115708701D01*
X146767144Y-115449918D01*
X147025927Y-115062621D01*
X147116800Y-114605774D01*
X147116800Y-114248226D01*
X147269200Y-114248226D01*
X147269200Y-114605774D01*
X147360073Y-115062621D01*
X147618856Y-115449918D01*
X148006153Y-115708701D01*
X148463000Y-115799574D01*
X148919847Y-115708701D01*
X149307144Y-115449918D01*
X149565927Y-115062621D01*
X149656800Y-114605774D01*
X149656800Y-114248226D01*
X149809200Y-114248226D01*
X149809200Y-114605774D01*
X149900073Y-115062621D01*
X150158856Y-115449918D01*
X150546153Y-115708701D01*
X151003000Y-115799574D01*
X151459847Y-115708701D01*
X151847144Y-115449918D01*
X152105927Y-115062621D01*
X152196800Y-114605774D01*
X152196800Y-114248226D01*
X152349200Y-114248226D01*
X152349200Y-114605774D01*
X152440073Y-115062621D01*
X152698856Y-115449918D01*
X153086153Y-115708701D01*
X153543000Y-115799574D01*
X153999847Y-115708701D01*
X154387144Y-115449918D01*
X154645927Y-115062621D01*
X154736800Y-114605774D01*
X154736800Y-114248226D01*
X154645927Y-113791379D01*
X154387144Y-113404082D01*
X153999847Y-113145299D01*
X153543000Y-113054426D01*
X153086153Y-113145299D01*
X152698856Y-113404082D01*
X152440073Y-113791379D01*
X152349200Y-114248226D01*
X152196800Y-114248226D01*
X152105927Y-113791379D01*
X151847144Y-113404082D01*
X151459847Y-113145299D01*
X151003000Y-113054426D01*
X150546153Y-113145299D01*
X150158856Y-113404082D01*
X149900073Y-113791379D01*
X149809200Y-114248226D01*
X149656800Y-114248226D01*
X149565927Y-113791379D01*
X149307144Y-113404082D01*
X148919847Y-113145299D01*
X148463000Y-113054426D01*
X148006153Y-113145299D01*
X147618856Y-113404082D01*
X147360073Y-113791379D01*
X147269200Y-114248226D01*
X147116800Y-114248226D01*
X147025927Y-113791379D01*
X146767144Y-113404082D01*
X146379847Y-113145299D01*
X145923000Y-113054426D01*
X145466153Y-113145299D01*
X145078856Y-113404082D01*
X144820073Y-113791379D01*
X144729200Y-114248226D01*
X144576800Y-114248226D01*
X144576800Y-113345319D01*
X144526530Y-113223957D01*
X144433643Y-113131070D01*
X144312281Y-113080800D01*
X143516350Y-113080800D01*
X143433800Y-113163350D01*
X143332200Y-113163350D01*
X143249650Y-113080800D01*
X142453719Y-113080800D01*
X142332357Y-113131070D01*
X142239470Y-113223957D01*
X142189200Y-113345319D01*
X139757269Y-113345319D01*
X139757269Y-113309400D01*
X139734244Y-113187035D01*
X139661927Y-113074651D01*
X139551583Y-112999256D01*
X139420600Y-112972731D01*
X137185400Y-112972731D01*
X137063035Y-112995756D01*
X136950651Y-113068073D01*
X136875256Y-113178417D01*
X136848731Y-113309400D01*
X130961200Y-113309400D01*
X130961200Y-112274301D01*
X138899783Y-112274301D01*
X139002041Y-112521783D01*
X139191222Y-112711294D01*
X139438525Y-112813983D01*
X139706301Y-112814217D01*
X139953783Y-112711959D01*
X140143294Y-112522778D01*
X140245983Y-112275475D01*
X140246217Y-112007699D01*
X140143959Y-111760217D01*
X139954778Y-111570706D01*
X139707475Y-111468017D01*
X139439699Y-111467783D01*
X139192217Y-111570041D01*
X139002706Y-111759222D01*
X138900017Y-112006525D01*
X138899783Y-112274301D01*
X130961200Y-112274301D01*
X130961200Y-108484421D01*
X143243166Y-108484421D01*
X143360859Y-108769259D01*
X143578595Y-108987376D01*
X143863227Y-109105565D01*
X144171421Y-109105834D01*
X144456259Y-108988141D01*
X144674376Y-108770405D01*
X144792565Y-108485773D01*
X144792834Y-108177579D01*
X144675141Y-107892741D01*
X144457405Y-107674624D01*
X144172773Y-107556435D01*
X143864579Y-107556166D01*
X143579741Y-107673859D01*
X143361624Y-107891595D01*
X143243435Y-108176227D01*
X143243166Y-108484421D01*
X130961200Y-108484421D01*
X130961200Y-101117400D01*
X137483731Y-101117400D01*
X137483731Y-103352600D01*
X137506756Y-103474965D01*
X137579073Y-103587349D01*
X137689417Y-103662744D01*
X137820400Y-103689269D01*
X140055600Y-103689269D01*
X140177965Y-103666244D01*
X140290349Y-103593927D01*
X140365744Y-103483583D01*
X140386918Y-103379021D01*
X150583766Y-103379021D01*
X150701459Y-103663859D01*
X150919195Y-103881976D01*
X151203827Y-104000165D01*
X151512021Y-104000434D01*
X151796859Y-103882741D01*
X152014976Y-103665005D01*
X152133165Y-103380373D01*
X152133434Y-103072179D01*
X152015741Y-102787341D01*
X151798005Y-102569224D01*
X151513373Y-102451035D01*
X151205179Y-102450766D01*
X150920341Y-102568459D01*
X150702224Y-102786195D01*
X150584035Y-103070827D01*
X150583766Y-103379021D01*
X140386918Y-103379021D01*
X140392269Y-103352600D01*
X140392269Y-101117400D01*
X140369244Y-100995035D01*
X140296927Y-100882651D01*
X140186583Y-100807256D01*
X140055600Y-100780731D01*
X137820400Y-100780731D01*
X137698035Y-100803756D01*
X137585651Y-100876073D01*
X137510256Y-100986417D01*
X137483731Y-101117400D01*
X130961200Y-101117400D01*
X130961200Y-100056901D01*
X144665583Y-100056901D01*
X144767841Y-100304383D01*
X144957022Y-100493894D01*
X145204325Y-100596583D01*
X145472101Y-100596817D01*
X145719583Y-100494559D01*
X145909094Y-100305378D01*
X146011783Y-100058075D01*
X146012017Y-99790299D01*
X145909759Y-99542817D01*
X145720578Y-99353306D01*
X145473275Y-99250617D01*
X145205499Y-99250383D01*
X144958017Y-99352641D01*
X144768506Y-99541822D01*
X144665817Y-99789125D01*
X144665583Y-100056901D01*
X130961200Y-100056901D01*
X130961200Y-96526301D01*
X146011783Y-96526301D01*
X146114041Y-96773783D01*
X146303222Y-96963294D01*
X146550525Y-97065983D01*
X146818301Y-97066217D01*
X147065783Y-96963959D01*
X147255294Y-96774778D01*
X147357983Y-96527475D01*
X147358189Y-96291400D01*
X152088731Y-96291400D01*
X152088731Y-98526600D01*
X152111756Y-98648965D01*
X152184073Y-98761349D01*
X152294417Y-98836744D01*
X152425400Y-98863269D01*
X154660600Y-98863269D01*
X154782965Y-98840244D01*
X154895349Y-98767927D01*
X154970744Y-98657583D01*
X154997269Y-98526600D01*
X154997269Y-96291400D01*
X154974244Y-96169035D01*
X154901927Y-96056651D01*
X154791583Y-95981256D01*
X154660600Y-95954731D01*
X152425400Y-95954731D01*
X152303035Y-95977756D01*
X152190651Y-96050073D01*
X152115256Y-96160417D01*
X152088731Y-96291400D01*
X147358189Y-96291400D01*
X147358217Y-96259699D01*
X147255959Y-96012217D01*
X147066778Y-95822706D01*
X146819475Y-95720017D01*
X146551699Y-95719783D01*
X146304217Y-95822041D01*
X146114706Y-96011222D01*
X146012017Y-96258525D01*
X146011783Y-96526301D01*
X130961200Y-96526301D01*
X130961200Y-95281701D01*
X133184783Y-95281701D01*
X133287041Y-95529183D01*
X133476222Y-95718694D01*
X133723525Y-95821383D01*
X133991301Y-95821617D01*
X134238783Y-95719359D01*
X134428294Y-95530178D01*
X134530983Y-95282875D01*
X134531217Y-95015099D01*
X134428959Y-94767617D01*
X134239778Y-94578106D01*
X133992475Y-94475417D01*
X133724699Y-94475183D01*
X133477217Y-94577441D01*
X133287706Y-94766622D01*
X133185017Y-95013925D01*
X133184783Y-95281701D01*
X130961200Y-95281701D01*
X130961200Y-93960901D01*
X147688183Y-93960901D01*
X147790441Y-94208383D01*
X147979622Y-94397894D01*
X148226925Y-94500583D01*
X148494701Y-94500817D01*
X148742183Y-94398559D01*
X148931694Y-94209378D01*
X149034383Y-93962075D01*
X149034617Y-93694299D01*
X148932359Y-93446817D01*
X148743178Y-93257306D01*
X148495875Y-93154617D01*
X148228099Y-93154383D01*
X147980617Y-93256641D01*
X147791106Y-93445822D01*
X147688417Y-93693125D01*
X147688183Y-93960901D01*
X130961200Y-93960901D01*
X130961200Y-88520021D01*
X153606366Y-88520021D01*
X153724059Y-88804859D01*
X153941795Y-89022976D01*
X154226427Y-89141165D01*
X154534621Y-89141434D01*
X154819459Y-89023741D01*
X155037576Y-88806005D01*
X155155765Y-88521373D01*
X155156034Y-88213179D01*
X155038341Y-87928341D01*
X154820605Y-87710224D01*
X154535973Y-87592035D01*
X154227779Y-87591766D01*
X153942941Y-87709459D01*
X153724824Y-87927195D01*
X153606635Y-88211827D01*
X153606366Y-88520021D01*
X130961200Y-88520021D01*
X130961200Y-87814101D01*
X138950583Y-87814101D01*
X139052841Y-88061583D01*
X139242022Y-88251094D01*
X139489325Y-88353783D01*
X139757101Y-88354017D01*
X140004583Y-88251759D01*
X140194094Y-88062578D01*
X140296783Y-87815275D01*
X140297017Y-87547499D01*
X140194759Y-87300017D01*
X140005578Y-87110506D01*
X139758275Y-87007817D01*
X139490499Y-87007583D01*
X139243017Y-87109841D01*
X139053506Y-87299022D01*
X138950817Y-87546325D01*
X138950583Y-87814101D01*
X130961200Y-87814101D01*
X130961200Y-83008221D01*
X143954366Y-83008221D01*
X144072059Y-83293059D01*
X144289795Y-83511176D01*
X144574427Y-83629365D01*
X144882621Y-83629634D01*
X145167459Y-83511941D01*
X145385576Y-83294205D01*
X145503765Y-83009573D01*
X145504034Y-82701379D01*
X145386341Y-82416541D01*
X145168605Y-82198424D01*
X144883973Y-82080235D01*
X144575779Y-82079966D01*
X144290941Y-82197659D01*
X144072824Y-82415395D01*
X143954635Y-82700027D01*
X143954366Y-83008221D01*
X130961200Y-83008221D01*
X130961200Y-81210101D01*
X144767183Y-81210101D01*
X144869441Y-81457583D01*
X145058622Y-81647094D01*
X145305925Y-81749783D01*
X145573701Y-81750017D01*
X145821183Y-81647759D01*
X146010694Y-81458578D01*
X146113383Y-81211275D01*
X146113617Y-80943499D01*
X146011359Y-80696017D01*
X145822178Y-80506506D01*
X145574875Y-80403817D01*
X145307099Y-80403583D01*
X145059617Y-80505841D01*
X144870106Y-80695022D01*
X144767417Y-80942325D01*
X144767183Y-81210101D01*
X130961200Y-81210101D01*
X130961200Y-77749400D01*
X131768731Y-77749400D01*
X131768731Y-79984600D01*
X131791756Y-80106965D01*
X131864073Y-80219349D01*
X131974417Y-80294744D01*
X132105400Y-80321269D01*
X134340600Y-80321269D01*
X134462965Y-80298244D01*
X134575349Y-80225927D01*
X134650744Y-80115583D01*
X134677269Y-79984600D01*
X134677269Y-78638400D01*
X152342731Y-78638400D01*
X152342731Y-80873600D01*
X152365756Y-80995965D01*
X152438073Y-81108349D01*
X152548417Y-81183744D01*
X152679400Y-81210269D01*
X154914600Y-81210269D01*
X155036965Y-81187244D01*
X155149349Y-81114927D01*
X155224744Y-81004583D01*
X155251269Y-80873600D01*
X155251269Y-78638400D01*
X155228244Y-78516035D01*
X155155927Y-78403651D01*
X155045583Y-78328256D01*
X154914600Y-78301731D01*
X152679400Y-78301731D01*
X152557035Y-78324756D01*
X152444651Y-78397073D01*
X152369256Y-78507417D01*
X152342731Y-78638400D01*
X134677269Y-78638400D01*
X134677269Y-77749400D01*
X134654244Y-77627035D01*
X134581927Y-77514651D01*
X134471583Y-77439256D01*
X134340600Y-77412731D01*
X132105400Y-77412731D01*
X131983035Y-77435756D01*
X131870651Y-77508073D01*
X131795256Y-77618417D01*
X131768731Y-77749400D01*
X130961200Y-77749400D01*
X130961200Y-75368101D01*
X139788783Y-75368101D01*
X139891041Y-75615583D01*
X140080222Y-75805094D01*
X140327525Y-75907783D01*
X140595301Y-75908017D01*
X140842783Y-75805759D01*
X140930273Y-75718421D01*
X151650566Y-75718421D01*
X151768259Y-76003259D01*
X151985995Y-76221376D01*
X152270627Y-76339565D01*
X152578821Y-76339834D01*
X152863659Y-76222141D01*
X153081776Y-76004405D01*
X153199965Y-75719773D01*
X153200234Y-75411579D01*
X153082541Y-75126741D01*
X152864805Y-74908624D01*
X152580173Y-74790435D01*
X152271979Y-74790166D01*
X151987141Y-74907859D01*
X151769024Y-75125595D01*
X151650835Y-75410227D01*
X151650566Y-75718421D01*
X140930273Y-75718421D01*
X141032294Y-75616578D01*
X141134983Y-75369275D01*
X141135217Y-75101499D01*
X141032959Y-74854017D01*
X140843778Y-74664506D01*
X140596475Y-74561817D01*
X140328699Y-74561583D01*
X140081217Y-74663841D01*
X139891706Y-74853022D01*
X139789017Y-75100325D01*
X139788783Y-75368101D01*
X130961200Y-75368101D01*
X130961200Y-73483221D01*
X153987366Y-73483221D01*
X154105059Y-73768059D01*
X154322795Y-73986176D01*
X154607427Y-74104365D01*
X154915621Y-74104634D01*
X155200459Y-73986941D01*
X155418576Y-73769205D01*
X155536765Y-73484573D01*
X155537034Y-73176379D01*
X155419341Y-72891541D01*
X155201605Y-72673424D01*
X154916973Y-72555235D01*
X154608779Y-72554966D01*
X154323941Y-72672659D01*
X154105824Y-72890395D01*
X153987635Y-73175027D01*
X153987366Y-73483221D01*
X130961200Y-73483221D01*
X130961200Y-70206621D01*
X153682566Y-70206621D01*
X153800259Y-70491459D01*
X154017995Y-70709576D01*
X154302627Y-70827765D01*
X154610821Y-70828034D01*
X154895659Y-70710341D01*
X155113776Y-70492605D01*
X155231965Y-70207973D01*
X155232234Y-69899779D01*
X155114541Y-69614941D01*
X154896805Y-69396824D01*
X154612173Y-69278635D01*
X154303979Y-69278366D01*
X154019141Y-69396059D01*
X153801024Y-69613795D01*
X153682835Y-69898427D01*
X153682566Y-70206621D01*
X130961200Y-70206621D01*
X130961200Y-66700400D01*
X131133731Y-66700400D01*
X131133731Y-68935600D01*
X131156756Y-69057965D01*
X131229073Y-69170349D01*
X131339417Y-69245744D01*
X131470400Y-69272269D01*
X133705600Y-69272269D01*
X133827965Y-69249244D01*
X133940349Y-69176927D01*
X134015744Y-69066583D01*
X134042269Y-68935600D01*
X134042269Y-68459350D01*
X141808200Y-68459350D01*
X141808200Y-69509281D01*
X141858470Y-69630643D01*
X141951357Y-69723530D01*
X142072719Y-69773800D01*
X143122650Y-69773800D01*
X143205200Y-69691250D01*
X143205200Y-68376800D01*
X143306800Y-68376800D01*
X143306800Y-69691250D01*
X143389350Y-69773800D01*
X144439281Y-69773800D01*
X144560643Y-69723530D01*
X144653530Y-69630643D01*
X144703800Y-69509281D01*
X144703800Y-68459350D01*
X144621250Y-68376800D01*
X143306800Y-68376800D01*
X143205200Y-68376800D01*
X141890750Y-68376800D01*
X141808200Y-68459350D01*
X134042269Y-68459350D01*
X134042269Y-67142719D01*
X141808200Y-67142719D01*
X141808200Y-68192650D01*
X141890750Y-68275200D01*
X143205200Y-68275200D01*
X143205200Y-66960750D01*
X143306800Y-66960750D01*
X143306800Y-68275200D01*
X144621250Y-68275200D01*
X144703800Y-68192650D01*
X144703800Y-67951350D01*
X150037800Y-67951350D01*
X150037800Y-68899681D01*
X150088070Y-69021043D01*
X150180957Y-69113930D01*
X150302319Y-69164200D01*
X151250650Y-69164200D01*
X151333200Y-69081650D01*
X151333200Y-67868800D01*
X150120350Y-67868800D01*
X150037800Y-67951350D01*
X144703800Y-67951350D01*
X144703800Y-67142719D01*
X144653530Y-67021357D01*
X144560643Y-66928470D01*
X144439281Y-66878200D01*
X143389350Y-66878200D01*
X143306800Y-66960750D01*
X143205200Y-66960750D01*
X143122650Y-66878200D01*
X142072719Y-66878200D01*
X141951357Y-66928470D01*
X141858470Y-67021357D01*
X141808200Y-67142719D01*
X134042269Y-67142719D01*
X134042269Y-66736319D01*
X150037800Y-66736319D01*
X150037800Y-67684650D01*
X150120350Y-67767200D01*
X151333200Y-67767200D01*
X151333200Y-66554350D01*
X151434800Y-66554350D01*
X151434800Y-67767200D01*
X151454800Y-67767200D01*
X151454800Y-67868800D01*
X151434800Y-67868800D01*
X151434800Y-69081650D01*
X151517350Y-69164200D01*
X152465681Y-69164200D01*
X152587043Y-69113930D01*
X152679930Y-69021043D01*
X152730200Y-68899681D01*
X152730200Y-68434263D01*
X152972093Y-68796281D01*
X153408832Y-69088101D01*
X153924000Y-69190574D01*
X154439168Y-69088101D01*
X154875907Y-68796281D01*
X155167727Y-68359542D01*
X155270200Y-67844374D01*
X155270200Y-67791626D01*
X155167727Y-67276458D01*
X154875907Y-66839719D01*
X154439168Y-66547899D01*
X153924000Y-66445426D01*
X153408832Y-66547899D01*
X152972093Y-66839719D01*
X152730200Y-67201737D01*
X152730200Y-66736319D01*
X152679930Y-66614957D01*
X152587043Y-66522070D01*
X152465681Y-66471800D01*
X151517350Y-66471800D01*
X151434800Y-66554350D01*
X151333200Y-66554350D01*
X151250650Y-66471800D01*
X150302319Y-66471800D01*
X150180957Y-66522070D01*
X150088070Y-66614957D01*
X150037800Y-66736319D01*
X134042269Y-66736319D01*
X134042269Y-66700400D01*
X134019244Y-66578035D01*
X133946927Y-66465651D01*
X133836583Y-66390256D01*
X133705600Y-66363731D01*
X131470400Y-66363731D01*
X131348035Y-66386756D01*
X131235651Y-66459073D01*
X131160256Y-66569417D01*
X131133731Y-66700400D01*
X130961200Y-66700400D01*
X130961200Y-66191200D01*
X155550800Y-66191200D01*
X155550800Y-116180800D01*
X155550800Y-116180800D01*
G37*
X155550800Y-116180800D02*
X130961200Y-116180800D01*
X130961200Y-113309400D01*
X136848731Y-113309400D01*
X136848731Y-115544600D01*
X136871756Y-115666965D01*
X136944073Y-115779349D01*
X137054417Y-115854744D01*
X137185400Y-115881269D01*
X139420600Y-115881269D01*
X139542965Y-115858244D01*
X139655349Y-115785927D01*
X139730744Y-115675583D01*
X139757269Y-115544600D01*
X139757269Y-114560350D01*
X142189200Y-114560350D01*
X142189200Y-115508681D01*
X142239470Y-115630043D01*
X142332357Y-115722930D01*
X142453719Y-115773200D01*
X143249650Y-115773200D01*
X143332200Y-115690650D01*
X143332200Y-114477800D01*
X143433800Y-114477800D01*
X143433800Y-115690650D01*
X143516350Y-115773200D01*
X144312281Y-115773200D01*
X144433643Y-115722930D01*
X144526530Y-115630043D01*
X144576800Y-115508681D01*
X144576800Y-114560350D01*
X144494250Y-114477800D01*
X143433800Y-114477800D01*
X143332200Y-114477800D01*
X142271750Y-114477800D01*
X142189200Y-114560350D01*
X139757269Y-114560350D01*
X139757269Y-113345319D01*
X142189200Y-113345319D01*
X142189200Y-114293650D01*
X142271750Y-114376200D01*
X143332200Y-114376200D01*
X143332200Y-113163350D01*
X143433800Y-113163350D01*
X143433800Y-114376200D01*
X144494250Y-114376200D01*
X144576800Y-114293650D01*
X144576800Y-114248226D01*
X144729200Y-114248226D01*
X144729200Y-114605774D01*
X144820073Y-115062621D01*
X145078856Y-115449918D01*
X145466153Y-115708701D01*
X145923000Y-115799574D01*
X146379847Y-115708701D01*
X146767144Y-115449918D01*
X147025927Y-115062621D01*
X147116800Y-114605774D01*
X147116800Y-114248226D01*
X147269200Y-114248226D01*
X147269200Y-114605774D01*
X147360073Y-115062621D01*
X147618856Y-115449918D01*
X148006153Y-115708701D01*
X148463000Y-115799574D01*
X148919847Y-115708701D01*
X149307144Y-115449918D01*
X149565927Y-115062621D01*
X149656800Y-114605774D01*
X149656800Y-114248226D01*
X149809200Y-114248226D01*
X149809200Y-114605774D01*
X149900073Y-115062621D01*
X150158856Y-115449918D01*
X150546153Y-115708701D01*
X151003000Y-115799574D01*
X151459847Y-115708701D01*
X151847144Y-115449918D01*
X152105927Y-115062621D01*
X152196800Y-114605774D01*
X152196800Y-114248226D01*
X152349200Y-114248226D01*
X152349200Y-114605774D01*
X152440073Y-115062621D01*
X152698856Y-115449918D01*
X153086153Y-115708701D01*
X153543000Y-115799574D01*
X153999847Y-115708701D01*
X154387144Y-115449918D01*
X154645927Y-115062621D01*
X154736800Y-114605774D01*
X154736800Y-114248226D01*
X154645927Y-113791379D01*
X154387144Y-113404082D01*
X153999847Y-113145299D01*
X153543000Y-113054426D01*
X153086153Y-113145299D01*
X152698856Y-113404082D01*
X152440073Y-113791379D01*
X152349200Y-114248226D01*
X152196800Y-114248226D01*
X152105927Y-113791379D01*
X151847144Y-113404082D01*
X151459847Y-113145299D01*
X151003000Y-113054426D01*
X150546153Y-113145299D01*
X150158856Y-113404082D01*
X149900073Y-113791379D01*
X149809200Y-114248226D01*
X149656800Y-114248226D01*
X149565927Y-113791379D01*
X149307144Y-113404082D01*
X148919847Y-113145299D01*
X148463000Y-113054426D01*
X148006153Y-113145299D01*
X147618856Y-113404082D01*
X147360073Y-113791379D01*
X147269200Y-114248226D01*
X147116800Y-114248226D01*
X147025927Y-113791379D01*
X146767144Y-113404082D01*
X146379847Y-113145299D01*
X145923000Y-113054426D01*
X145466153Y-113145299D01*
X145078856Y-113404082D01*
X144820073Y-113791379D01*
X144729200Y-114248226D01*
X144576800Y-114248226D01*
X144576800Y-113345319D01*
X144526530Y-113223957D01*
X144433643Y-113131070D01*
X144312281Y-113080800D01*
X143516350Y-113080800D01*
X143433800Y-113163350D01*
X143332200Y-113163350D01*
X143249650Y-113080800D01*
X142453719Y-113080800D01*
X142332357Y-113131070D01*
X142239470Y-113223957D01*
X142189200Y-113345319D01*
X139757269Y-113345319D01*
X139757269Y-113309400D01*
X139734244Y-113187035D01*
X139661927Y-113074651D01*
X139551583Y-112999256D01*
X139420600Y-112972731D01*
X137185400Y-112972731D01*
X137063035Y-112995756D01*
X136950651Y-113068073D01*
X136875256Y-113178417D01*
X136848731Y-113309400D01*
X130961200Y-113309400D01*
X130961200Y-112274301D01*
X138899783Y-112274301D01*
X139002041Y-112521783D01*
X139191222Y-112711294D01*
X139438525Y-112813983D01*
X139706301Y-112814217D01*
X139953783Y-112711959D01*
X140143294Y-112522778D01*
X140245983Y-112275475D01*
X140246217Y-112007699D01*
X140143959Y-111760217D01*
X139954778Y-111570706D01*
X139707475Y-111468017D01*
X139439699Y-111467783D01*
X139192217Y-111570041D01*
X139002706Y-111759222D01*
X138900017Y-112006525D01*
X138899783Y-112274301D01*
X130961200Y-112274301D01*
X130961200Y-108484421D01*
X143243166Y-108484421D01*
X143360859Y-108769259D01*
X143578595Y-108987376D01*
X143863227Y-109105565D01*
X144171421Y-109105834D01*
X144456259Y-108988141D01*
X144674376Y-108770405D01*
X144792565Y-108485773D01*
X144792834Y-108177579D01*
X144675141Y-107892741D01*
X144457405Y-107674624D01*
X144172773Y-107556435D01*
X143864579Y-107556166D01*
X143579741Y-107673859D01*
X143361624Y-107891595D01*
X143243435Y-108176227D01*
X143243166Y-108484421D01*
X130961200Y-108484421D01*
X130961200Y-101117400D01*
X137483731Y-101117400D01*
X137483731Y-103352600D01*
X137506756Y-103474965D01*
X137579073Y-103587349D01*
X137689417Y-103662744D01*
X137820400Y-103689269D01*
X140055600Y-103689269D01*
X140177965Y-103666244D01*
X140290349Y-103593927D01*
X140365744Y-103483583D01*
X140386918Y-103379021D01*
X150583766Y-103379021D01*
X150701459Y-103663859D01*
X150919195Y-103881976D01*
X151203827Y-104000165D01*
X151512021Y-104000434D01*
X151796859Y-103882741D01*
X152014976Y-103665005D01*
X152133165Y-103380373D01*
X152133434Y-103072179D01*
X152015741Y-102787341D01*
X151798005Y-102569224D01*
X151513373Y-102451035D01*
X151205179Y-102450766D01*
X150920341Y-102568459D01*
X150702224Y-102786195D01*
X150584035Y-103070827D01*
X150583766Y-103379021D01*
X140386918Y-103379021D01*
X140392269Y-103352600D01*
X140392269Y-101117400D01*
X140369244Y-100995035D01*
X140296927Y-100882651D01*
X140186583Y-100807256D01*
X140055600Y-100780731D01*
X137820400Y-100780731D01*
X137698035Y-100803756D01*
X137585651Y-100876073D01*
X137510256Y-100986417D01*
X137483731Y-101117400D01*
X130961200Y-101117400D01*
X130961200Y-100056901D01*
X144665583Y-100056901D01*
X144767841Y-100304383D01*
X144957022Y-100493894D01*
X145204325Y-100596583D01*
X145472101Y-100596817D01*
X145719583Y-100494559D01*
X145909094Y-100305378D01*
X146011783Y-100058075D01*
X146012017Y-99790299D01*
X145909759Y-99542817D01*
X145720578Y-99353306D01*
X145473275Y-99250617D01*
X145205499Y-99250383D01*
X144958017Y-99352641D01*
X144768506Y-99541822D01*
X144665817Y-99789125D01*
X144665583Y-100056901D01*
X130961200Y-100056901D01*
X130961200Y-96526301D01*
X146011783Y-96526301D01*
X146114041Y-96773783D01*
X146303222Y-96963294D01*
X146550525Y-97065983D01*
X146818301Y-97066217D01*
X147065783Y-96963959D01*
X147255294Y-96774778D01*
X147357983Y-96527475D01*
X147358189Y-96291400D01*
X152088731Y-96291400D01*
X152088731Y-98526600D01*
X152111756Y-98648965D01*
X152184073Y-98761349D01*
X152294417Y-98836744D01*
X152425400Y-98863269D01*
X154660600Y-98863269D01*
X154782965Y-98840244D01*
X154895349Y-98767927D01*
X154970744Y-98657583D01*
X154997269Y-98526600D01*
X154997269Y-96291400D01*
X154974244Y-96169035D01*
X154901927Y-96056651D01*
X154791583Y-95981256D01*
X154660600Y-95954731D01*
X152425400Y-95954731D01*
X152303035Y-95977756D01*
X152190651Y-96050073D01*
X152115256Y-96160417D01*
X152088731Y-96291400D01*
X147358189Y-96291400D01*
X147358217Y-96259699D01*
X147255959Y-96012217D01*
X147066778Y-95822706D01*
X146819475Y-95720017D01*
X146551699Y-95719783D01*
X146304217Y-95822041D01*
X146114706Y-96011222D01*
X146012017Y-96258525D01*
X146011783Y-96526301D01*
X130961200Y-96526301D01*
X130961200Y-95281701D01*
X133184783Y-95281701D01*
X133287041Y-95529183D01*
X133476222Y-95718694D01*
X133723525Y-95821383D01*
X133991301Y-95821617D01*
X134238783Y-95719359D01*
X134428294Y-95530178D01*
X134530983Y-95282875D01*
X134531217Y-95015099D01*
X134428959Y-94767617D01*
X134239778Y-94578106D01*
X133992475Y-94475417D01*
X133724699Y-94475183D01*
X133477217Y-94577441D01*
X133287706Y-94766622D01*
X133185017Y-95013925D01*
X133184783Y-95281701D01*
X130961200Y-95281701D01*
X130961200Y-93960901D01*
X147688183Y-93960901D01*
X147790441Y-94208383D01*
X147979622Y-94397894D01*
X148226925Y-94500583D01*
X148494701Y-94500817D01*
X148742183Y-94398559D01*
X148931694Y-94209378D01*
X149034383Y-93962075D01*
X149034617Y-93694299D01*
X148932359Y-93446817D01*
X148743178Y-93257306D01*
X148495875Y-93154617D01*
X148228099Y-93154383D01*
X147980617Y-93256641D01*
X147791106Y-93445822D01*
X147688417Y-93693125D01*
X147688183Y-93960901D01*
X130961200Y-93960901D01*
X130961200Y-88520021D01*
X153606366Y-88520021D01*
X153724059Y-88804859D01*
X153941795Y-89022976D01*
X154226427Y-89141165D01*
X154534621Y-89141434D01*
X154819459Y-89023741D01*
X155037576Y-88806005D01*
X155155765Y-88521373D01*
X155156034Y-88213179D01*
X155038341Y-87928341D01*
X154820605Y-87710224D01*
X154535973Y-87592035D01*
X154227779Y-87591766D01*
X153942941Y-87709459D01*
X153724824Y-87927195D01*
X153606635Y-88211827D01*
X153606366Y-88520021D01*
X130961200Y-88520021D01*
X130961200Y-87814101D01*
X138950583Y-87814101D01*
X139052841Y-88061583D01*
X139242022Y-88251094D01*
X139489325Y-88353783D01*
X139757101Y-88354017D01*
X140004583Y-88251759D01*
X140194094Y-88062578D01*
X140296783Y-87815275D01*
X140297017Y-87547499D01*
X140194759Y-87300017D01*
X140005578Y-87110506D01*
X139758275Y-87007817D01*
X139490499Y-87007583D01*
X139243017Y-87109841D01*
X139053506Y-87299022D01*
X138950817Y-87546325D01*
X138950583Y-87814101D01*
X130961200Y-87814101D01*
X130961200Y-83008221D01*
X143954366Y-83008221D01*
X144072059Y-83293059D01*
X144289795Y-83511176D01*
X144574427Y-83629365D01*
X144882621Y-83629634D01*
X145167459Y-83511941D01*
X145385576Y-83294205D01*
X145503765Y-83009573D01*
X145504034Y-82701379D01*
X145386341Y-82416541D01*
X145168605Y-82198424D01*
X144883973Y-82080235D01*
X144575779Y-82079966D01*
X144290941Y-82197659D01*
X144072824Y-82415395D01*
X143954635Y-82700027D01*
X143954366Y-83008221D01*
X130961200Y-83008221D01*
X130961200Y-81210101D01*
X144767183Y-81210101D01*
X144869441Y-81457583D01*
X145058622Y-81647094D01*
X145305925Y-81749783D01*
X145573701Y-81750017D01*
X145821183Y-81647759D01*
X146010694Y-81458578D01*
X146113383Y-81211275D01*
X146113617Y-80943499D01*
X146011359Y-80696017D01*
X145822178Y-80506506D01*
X145574875Y-80403817D01*
X145307099Y-80403583D01*
X145059617Y-80505841D01*
X144870106Y-80695022D01*
X144767417Y-80942325D01*
X144767183Y-81210101D01*
X130961200Y-81210101D01*
X130961200Y-77749400D01*
X131768731Y-77749400D01*
X131768731Y-79984600D01*
X131791756Y-80106965D01*
X131864073Y-80219349D01*
X131974417Y-80294744D01*
X132105400Y-80321269D01*
X134340600Y-80321269D01*
X134462965Y-80298244D01*
X134575349Y-80225927D01*
X134650744Y-80115583D01*
X134677269Y-79984600D01*
X134677269Y-78638400D01*
X152342731Y-78638400D01*
X152342731Y-80873600D01*
X152365756Y-80995965D01*
X152438073Y-81108349D01*
X152548417Y-81183744D01*
X152679400Y-81210269D01*
X154914600Y-81210269D01*
X155036965Y-81187244D01*
X155149349Y-81114927D01*
X155224744Y-81004583D01*
X155251269Y-80873600D01*
X155251269Y-78638400D01*
X155228244Y-78516035D01*
X155155927Y-78403651D01*
X155045583Y-78328256D01*
X154914600Y-78301731D01*
X152679400Y-78301731D01*
X152557035Y-78324756D01*
X152444651Y-78397073D01*
X152369256Y-78507417D01*
X152342731Y-78638400D01*
X134677269Y-78638400D01*
X134677269Y-77749400D01*
X134654244Y-77627035D01*
X134581927Y-77514651D01*
X134471583Y-77439256D01*
X134340600Y-77412731D01*
X132105400Y-77412731D01*
X131983035Y-77435756D01*
X131870651Y-77508073D01*
X131795256Y-77618417D01*
X131768731Y-77749400D01*
X130961200Y-77749400D01*
X130961200Y-75368101D01*
X139788783Y-75368101D01*
X139891041Y-75615583D01*
X140080222Y-75805094D01*
X140327525Y-75907783D01*
X140595301Y-75908017D01*
X140842783Y-75805759D01*
X140930273Y-75718421D01*
X151650566Y-75718421D01*
X151768259Y-76003259D01*
X151985995Y-76221376D01*
X152270627Y-76339565D01*
X152578821Y-76339834D01*
X152863659Y-76222141D01*
X153081776Y-76004405D01*
X153199965Y-75719773D01*
X153200234Y-75411579D01*
X153082541Y-75126741D01*
X152864805Y-74908624D01*
X152580173Y-74790435D01*
X152271979Y-74790166D01*
X151987141Y-74907859D01*
X151769024Y-75125595D01*
X151650835Y-75410227D01*
X151650566Y-75718421D01*
X140930273Y-75718421D01*
X141032294Y-75616578D01*
X141134983Y-75369275D01*
X141135217Y-75101499D01*
X141032959Y-74854017D01*
X140843778Y-74664506D01*
X140596475Y-74561817D01*
X140328699Y-74561583D01*
X140081217Y-74663841D01*
X139891706Y-74853022D01*
X139789017Y-75100325D01*
X139788783Y-75368101D01*
X130961200Y-75368101D01*
X130961200Y-73483221D01*
X153987366Y-73483221D01*
X154105059Y-73768059D01*
X154322795Y-73986176D01*
X154607427Y-74104365D01*
X154915621Y-74104634D01*
X155200459Y-73986941D01*
X155418576Y-73769205D01*
X155536765Y-73484573D01*
X155537034Y-73176379D01*
X155419341Y-72891541D01*
X155201605Y-72673424D01*
X154916973Y-72555235D01*
X154608779Y-72554966D01*
X154323941Y-72672659D01*
X154105824Y-72890395D01*
X153987635Y-73175027D01*
X153987366Y-73483221D01*
X130961200Y-73483221D01*
X130961200Y-70206621D01*
X153682566Y-70206621D01*
X153800259Y-70491459D01*
X154017995Y-70709576D01*
X154302627Y-70827765D01*
X154610821Y-70828034D01*
X154895659Y-70710341D01*
X155113776Y-70492605D01*
X155231965Y-70207973D01*
X155232234Y-69899779D01*
X155114541Y-69614941D01*
X154896805Y-69396824D01*
X154612173Y-69278635D01*
X154303979Y-69278366D01*
X154019141Y-69396059D01*
X153801024Y-69613795D01*
X153682835Y-69898427D01*
X153682566Y-70206621D01*
X130961200Y-70206621D01*
X130961200Y-66700400D01*
X131133731Y-66700400D01*
X131133731Y-68935600D01*
X131156756Y-69057965D01*
X131229073Y-69170349D01*
X131339417Y-69245744D01*
X131470400Y-69272269D01*
X133705600Y-69272269D01*
X133827965Y-69249244D01*
X133940349Y-69176927D01*
X134015744Y-69066583D01*
X134042269Y-68935600D01*
X134042269Y-68459350D01*
X141808200Y-68459350D01*
X141808200Y-69509281D01*
X141858470Y-69630643D01*
X141951357Y-69723530D01*
X142072719Y-69773800D01*
X143122650Y-69773800D01*
X143205200Y-69691250D01*
X143205200Y-68376800D01*
X143306800Y-68376800D01*
X143306800Y-69691250D01*
X143389350Y-69773800D01*
X144439281Y-69773800D01*
X144560643Y-69723530D01*
X144653530Y-69630643D01*
X144703800Y-69509281D01*
X144703800Y-68459350D01*
X144621250Y-68376800D01*
X143306800Y-68376800D01*
X143205200Y-68376800D01*
X141890750Y-68376800D01*
X141808200Y-68459350D01*
X134042269Y-68459350D01*
X134042269Y-67142719D01*
X141808200Y-67142719D01*
X141808200Y-68192650D01*
X141890750Y-68275200D01*
X143205200Y-68275200D01*
X143205200Y-66960750D01*
X143306800Y-66960750D01*
X143306800Y-68275200D01*
X144621250Y-68275200D01*
X144703800Y-68192650D01*
X144703800Y-67951350D01*
X150037800Y-67951350D01*
X150037800Y-68899681D01*
X150088070Y-69021043D01*
X150180957Y-69113930D01*
X150302319Y-69164200D01*
X151250650Y-69164200D01*
X151333200Y-69081650D01*
X151333200Y-67868800D01*
X150120350Y-67868800D01*
X150037800Y-67951350D01*
X144703800Y-67951350D01*
X144703800Y-67142719D01*
X144653530Y-67021357D01*
X144560643Y-66928470D01*
X144439281Y-66878200D01*
X143389350Y-66878200D01*
X143306800Y-66960750D01*
X143205200Y-66960750D01*
X143122650Y-66878200D01*
X142072719Y-66878200D01*
X141951357Y-66928470D01*
X141858470Y-67021357D01*
X141808200Y-67142719D01*
X134042269Y-67142719D01*
X134042269Y-66736319D01*
X150037800Y-66736319D01*
X150037800Y-67684650D01*
X150120350Y-67767200D01*
X151333200Y-67767200D01*
X151333200Y-66554350D01*
X151434800Y-66554350D01*
X151434800Y-67767200D01*
X151454800Y-67767200D01*
X151454800Y-67868800D01*
X151434800Y-67868800D01*
X151434800Y-69081650D01*
X151517350Y-69164200D01*
X152465681Y-69164200D01*
X152587043Y-69113930D01*
X152679930Y-69021043D01*
X152730200Y-68899681D01*
X152730200Y-68434263D01*
X152972093Y-68796281D01*
X153408832Y-69088101D01*
X153924000Y-69190574D01*
X154439168Y-69088101D01*
X154875907Y-68796281D01*
X155167727Y-68359542D01*
X155270200Y-67844374D01*
X155270200Y-67791626D01*
X155167727Y-67276458D01*
X154875907Y-66839719D01*
X154439168Y-66547899D01*
X153924000Y-66445426D01*
X153408832Y-66547899D01*
X152972093Y-66839719D01*
X152730200Y-67201737D01*
X152730200Y-66736319D01*
X152679930Y-66614957D01*
X152587043Y-66522070D01*
X152465681Y-66471800D01*
X151517350Y-66471800D01*
X151434800Y-66554350D01*
X151333200Y-66554350D01*
X151250650Y-66471800D01*
X150302319Y-66471800D01*
X150180957Y-66522070D01*
X150088070Y-66614957D01*
X150037800Y-66736319D01*
X134042269Y-66736319D01*
X134042269Y-66700400D01*
X134019244Y-66578035D01*
X133946927Y-66465651D01*
X133836583Y-66390256D01*
X133705600Y-66363731D01*
X131470400Y-66363731D01*
X131348035Y-66386756D01*
X131235651Y-66459073D01*
X131160256Y-66569417D01*
X131133731Y-66700400D01*
X130961200Y-66700400D01*
X130961200Y-66191200D01*
X155550800Y-66191200D01*
X155550800Y-116180800D01*
M02*
