M48
;DRILL file {KiCad 4.0.2-stable} date Sunday, January 22, 2017 'PMt' 02:28:51 PM
;FORMAT={-:-/ absolute / metric / decimal}
FMAT,2
METRIC,TZ
T1C0.330
T2C1.016
%
G90
G05
M71
T1
X132.461Y-74.549
X133.325Y-108.28
X133.35Y-82.55
X133.858Y-95.148
X139.573Y-94.615
X139.573Y-112.141
X139.624Y-87.681
X140.183Y-74.346
X144.018Y-108.331
X144.323Y-84.582
X145.288Y-101.6
X145.339Y-99.924
X145.466Y-79.451
X146.685Y-96.393
X148.412Y-75.717
X148.641Y-94.386
X150.038Y-81.94
X150.063Y-84.531
X151.359Y-103.226
X154.381Y-88.367
X154.457Y-94.209
X155.042Y-78.74
X155.067Y-75.133
T2
X132.588Y-67.818
X133.223Y-78.867
X138.303Y-114.427
X138.938Y-102.235
X143.256Y-68.326
X143.383Y-114.427
X145.923Y-114.427
X148.463Y-114.427
X151.003Y-114.427
X151.384Y-67.818
X153.543Y-97.409
X153.543Y-114.427
X153.619Y-83.16
X153.924Y-67.818
T0
M30
