G04 #@! TF.FileFunction,Legend,Bot*
%FSLAX46Y46*%
G04 Gerber Fmt 4.6, Leading zero omitted, Abs format (unit mm)*
G04 Created by KiCad (PCBNEW 4.0.2-stable) date Sunday, January 22, 2017 'PMt' 02:28:49 PM*
%MOMM*%
G01*
G04 APERTURE LIST*
%ADD10C,0.100000*%
%ADD11C,0.150000*%
%ADD12R,1.901600X1.901600*%
%ADD13R,2.336800X2.336800*%
%ADD14R,2.133600X2.133600*%
%ADD15O,2.133600X2.133600*%
%ADD16R,1.401600X1.601600*%
%ADD17R,1.828800X2.133600*%
%ADD18O,1.828800X2.133600*%
%ADD19R,1.601600X1.351600*%
%ADD20R,3.101340X1.602740*%
G04 APERTURE END LIST*
D10*
D11*
X148986905Y-90609381D02*
X148986905Y-89609381D01*
X148748810Y-89609381D01*
X148605952Y-89657000D01*
X148510714Y-89752238D01*
X148463095Y-89847476D01*
X148415476Y-90037952D01*
X148415476Y-90180810D01*
X148463095Y-90371286D01*
X148510714Y-90466524D01*
X148605952Y-90561762D01*
X148748810Y-90609381D01*
X148986905Y-90609381D01*
X147558333Y-90609381D02*
X147558333Y-90085571D01*
X147605952Y-89990333D01*
X147701190Y-89942714D01*
X147891667Y-89942714D01*
X147986905Y-89990333D01*
X147558333Y-90561762D02*
X147653571Y-90609381D01*
X147891667Y-90609381D01*
X147986905Y-90561762D01*
X148034524Y-90466524D01*
X148034524Y-90371286D01*
X147986905Y-90276048D01*
X147891667Y-90228429D01*
X147653571Y-90228429D01*
X147558333Y-90180810D01*
X147129762Y-90561762D02*
X147034524Y-90609381D01*
X146844048Y-90609381D01*
X146748809Y-90561762D01*
X146701190Y-90466524D01*
X146701190Y-90418905D01*
X146748809Y-90323667D01*
X146844048Y-90276048D01*
X146986905Y-90276048D01*
X147082143Y-90228429D01*
X147129762Y-90133190D01*
X147129762Y-90085571D01*
X147082143Y-89990333D01*
X146986905Y-89942714D01*
X146844048Y-89942714D01*
X146748809Y-89990333D01*
X145939285Y-90085571D02*
X145796428Y-90133190D01*
X145748809Y-90180810D01*
X145701190Y-90276048D01*
X145701190Y-90418905D01*
X145748809Y-90514143D01*
X145796428Y-90561762D01*
X145891666Y-90609381D01*
X146272619Y-90609381D01*
X146272619Y-89609381D01*
X145939285Y-89609381D01*
X145844047Y-89657000D01*
X145796428Y-89704619D01*
X145748809Y-89799857D01*
X145748809Y-89895095D01*
X145796428Y-89990333D01*
X145844047Y-90037952D01*
X145939285Y-90085571D01*
X146272619Y-90085571D01*
X145129762Y-90609381D02*
X145225000Y-90561762D01*
X145272619Y-90466524D01*
X145272619Y-89609381D01*
X144748809Y-90609381D02*
X144748809Y-89942714D01*
X144748809Y-89609381D02*
X144796428Y-89657000D01*
X144748809Y-89704619D01*
X144701190Y-89657000D01*
X144748809Y-89609381D01*
X144748809Y-89704619D01*
X144272619Y-89942714D02*
X144272619Y-90609381D01*
X144272619Y-90037952D02*
X144225000Y-89990333D01*
X144129762Y-89942714D01*
X143986904Y-89942714D01*
X143891666Y-89990333D01*
X143844047Y-90085571D01*
X143844047Y-90609381D01*
X143367857Y-90609381D02*
X143367857Y-89609381D01*
X143272619Y-90228429D02*
X142986904Y-90609381D01*
X142986904Y-89942714D02*
X143367857Y-90323667D01*
X142558333Y-90609381D02*
X142558333Y-89609381D01*
X142082143Y-89942714D02*
X142082143Y-90609381D01*
X142082143Y-90037952D02*
X142034524Y-89990333D01*
X141939286Y-89942714D01*
X141796428Y-89942714D01*
X141701190Y-89990333D01*
X141653571Y-90085571D01*
X141653571Y-90609381D01*
X141177381Y-89942714D02*
X141177381Y-90942714D01*
X141177381Y-89990333D02*
X141082143Y-89942714D01*
X140891666Y-89942714D01*
X140796428Y-89990333D01*
X140748809Y-90037952D01*
X140701190Y-90133190D01*
X140701190Y-90418905D01*
X140748809Y-90514143D01*
X140796428Y-90561762D01*
X140891666Y-90609381D01*
X141082143Y-90609381D01*
X141177381Y-90561762D01*
X139844047Y-89942714D02*
X139844047Y-90609381D01*
X140272619Y-89942714D02*
X140272619Y-90466524D01*
X140225000Y-90561762D01*
X140129762Y-90609381D01*
X139986904Y-90609381D01*
X139891666Y-90561762D01*
X139844047Y-90514143D01*
X139510714Y-89942714D02*
X139129762Y-89942714D01*
X139367857Y-89609381D02*
X139367857Y-90466524D01*
X139320238Y-90561762D01*
X139225000Y-90609381D01*
X139129762Y-90609381D01*
X148415476Y-92159381D02*
X148748810Y-91683190D01*
X148986905Y-92159381D02*
X148986905Y-91159381D01*
X148605952Y-91159381D01*
X148510714Y-91207000D01*
X148463095Y-91254619D01*
X148415476Y-91349857D01*
X148415476Y-91492714D01*
X148463095Y-91587952D01*
X148510714Y-91635571D01*
X148605952Y-91683190D01*
X148986905Y-91683190D01*
X147605952Y-92111762D02*
X147701190Y-92159381D01*
X147891667Y-92159381D01*
X147986905Y-92111762D01*
X148034524Y-92016524D01*
X148034524Y-91635571D01*
X147986905Y-91540333D01*
X147891667Y-91492714D01*
X147701190Y-91492714D01*
X147605952Y-91540333D01*
X147558333Y-91635571D01*
X147558333Y-91730810D01*
X148034524Y-91826048D01*
X147225000Y-91492714D02*
X146986905Y-92159381D01*
X146748809Y-91492714D01*
X146367857Y-92064143D02*
X146320238Y-92111762D01*
X146367857Y-92159381D01*
X146415476Y-92111762D01*
X146367857Y-92064143D01*
X146367857Y-92159381D01*
X144605952Y-92159381D02*
X145177381Y-92159381D01*
X144891667Y-92159381D02*
X144891667Y-91159381D01*
X144986905Y-91302238D01*
X145082143Y-91397476D01*
X145177381Y-91445095D01*
X149397791Y-70302381D02*
X149397791Y-69302381D01*
X149016838Y-69302381D01*
X148921600Y-69350000D01*
X148873981Y-69397619D01*
X148826362Y-69492857D01*
X148826362Y-69635714D01*
X148873981Y-69730952D01*
X148921600Y-69778571D01*
X149016838Y-69826190D01*
X149397791Y-69826190D01*
X148254934Y-70302381D02*
X148350172Y-70254762D01*
X148397791Y-70207143D01*
X148445410Y-70111905D01*
X148445410Y-69826190D01*
X148397791Y-69730952D01*
X148350172Y-69683333D01*
X148254934Y-69635714D01*
X148112076Y-69635714D01*
X148016838Y-69683333D01*
X147969219Y-69730952D01*
X147921600Y-69826190D01*
X147921600Y-70111905D01*
X147969219Y-70207143D01*
X148016838Y-70254762D01*
X148112076Y-70302381D01*
X148254934Y-70302381D01*
X147588267Y-69635714D02*
X147397791Y-70302381D01*
X147207314Y-69826190D01*
X147016838Y-70302381D01*
X146826362Y-69635714D01*
X146064457Y-70254762D02*
X146159695Y-70302381D01*
X146350172Y-70302381D01*
X146445410Y-70254762D01*
X146493029Y-70159524D01*
X146493029Y-69778571D01*
X146445410Y-69683333D01*
X146350172Y-69635714D01*
X146159695Y-69635714D01*
X146064457Y-69683333D01*
X146016838Y-69778571D01*
X146016838Y-69873810D01*
X146493029Y-69969048D01*
X145588267Y-70302381D02*
X145588267Y-69635714D01*
X145588267Y-69826190D02*
X145540648Y-69730952D01*
X145493029Y-69683333D01*
X145397791Y-69635714D01*
X145302552Y-69635714D01*
X143187381Y-71252390D02*
X142187381Y-71252390D01*
X142520714Y-71728580D02*
X143187381Y-71728580D01*
X142615952Y-71728580D02*
X142568333Y-71776199D01*
X142520714Y-71871437D01*
X142520714Y-72014295D01*
X142568333Y-72109533D01*
X142663571Y-72157152D01*
X143187381Y-72157152D01*
X142520714Y-72633342D02*
X143520714Y-72633342D01*
X142568333Y-72633342D02*
X142520714Y-72728580D01*
X142520714Y-72919057D01*
X142568333Y-73014295D01*
X142615952Y-73061914D01*
X142711190Y-73109533D01*
X142996905Y-73109533D01*
X143092143Y-73061914D01*
X143139762Y-73014295D01*
X143187381Y-72919057D01*
X143187381Y-72728580D01*
X143139762Y-72633342D01*
X142520714Y-73966676D02*
X143187381Y-73966676D01*
X142520714Y-73538104D02*
X143044524Y-73538104D01*
X143139762Y-73585723D01*
X143187381Y-73680961D01*
X143187381Y-73823819D01*
X143139762Y-73919057D01*
X143092143Y-73966676D01*
X142520714Y-74300009D02*
X142520714Y-74680961D01*
X142187381Y-74442866D02*
X143044524Y-74442866D01*
X143139762Y-74490485D01*
X143187381Y-74585723D01*
X143187381Y-74680961D01*
X142187381Y-75633343D02*
X143187381Y-75966676D01*
X142187381Y-76300010D01*
X143187381Y-76776200D02*
X143139762Y-76680962D01*
X143092143Y-76633343D01*
X142996905Y-76585724D01*
X142711190Y-76585724D01*
X142615952Y-76633343D01*
X142568333Y-76680962D01*
X142520714Y-76776200D01*
X142520714Y-76919058D01*
X142568333Y-77014296D01*
X142615952Y-77061915D01*
X142711190Y-77109534D01*
X142996905Y-77109534D01*
X143092143Y-77061915D01*
X143139762Y-77014296D01*
X143187381Y-76919058D01*
X143187381Y-76776200D01*
X143187381Y-77680962D02*
X143139762Y-77585724D01*
X143044524Y-77538105D01*
X142187381Y-77538105D01*
X142520714Y-77919058D02*
X142520714Y-78300010D01*
X142187381Y-78061915D02*
X143044524Y-78061915D01*
X143139762Y-78109534D01*
X143187381Y-78204772D01*
X143187381Y-78300010D01*
X143187381Y-79061916D02*
X142663571Y-79061916D01*
X142568333Y-79014297D01*
X142520714Y-78919059D01*
X142520714Y-78728582D01*
X142568333Y-78633344D01*
X143139762Y-79061916D02*
X143187381Y-78966678D01*
X143187381Y-78728582D01*
X143139762Y-78633344D01*
X143044524Y-78585725D01*
X142949286Y-78585725D01*
X142854048Y-78633344D01*
X142806429Y-78728582D01*
X142806429Y-78966678D01*
X142758810Y-79061916D01*
X142520714Y-79966678D02*
X143330238Y-79966678D01*
X143425476Y-79919059D01*
X143473095Y-79871440D01*
X143520714Y-79776201D01*
X143520714Y-79633344D01*
X143473095Y-79538106D01*
X143139762Y-79966678D02*
X143187381Y-79871440D01*
X143187381Y-79680963D01*
X143139762Y-79585725D01*
X143092143Y-79538106D01*
X142996905Y-79490487D01*
X142711190Y-79490487D01*
X142615952Y-79538106D01*
X142568333Y-79585725D01*
X142520714Y-79680963D01*
X142520714Y-79871440D01*
X142568333Y-79966678D01*
X143139762Y-80823821D02*
X143187381Y-80728583D01*
X143187381Y-80538106D01*
X143139762Y-80442868D01*
X143044524Y-80395249D01*
X142663571Y-80395249D01*
X142568333Y-80442868D01*
X142520714Y-80538106D01*
X142520714Y-80728583D01*
X142568333Y-80823821D01*
X142663571Y-80871440D01*
X142758810Y-80871440D01*
X142854048Y-80395249D01*
X143092143Y-81300011D02*
X143139762Y-81347630D01*
X143187381Y-81300011D01*
X143139762Y-81252392D01*
X143092143Y-81300011D01*
X143187381Y-81300011D01*
X142568333Y-81300011D02*
X142615952Y-81347630D01*
X142663571Y-81300011D01*
X142615952Y-81252392D01*
X142568333Y-81300011D01*
X142663571Y-81300011D01*
X144356429Y-70776200D02*
X144356429Y-71538105D01*
X144737381Y-71157153D02*
X143975476Y-71157153D01*
X143737381Y-71919057D02*
X143737381Y-72538105D01*
X144118333Y-72204771D01*
X144118333Y-72347629D01*
X144165952Y-72442867D01*
X144213571Y-72490486D01*
X144308810Y-72538105D01*
X144546905Y-72538105D01*
X144642143Y-72490486D01*
X144689762Y-72442867D01*
X144737381Y-72347629D01*
X144737381Y-72061914D01*
X144689762Y-71966676D01*
X144642143Y-71919057D01*
X144642143Y-72966676D02*
X144689762Y-73014295D01*
X144737381Y-72966676D01*
X144689762Y-72919057D01*
X144642143Y-72966676D01*
X144737381Y-72966676D01*
X143832619Y-73395247D02*
X143785000Y-73442866D01*
X143737381Y-73538104D01*
X143737381Y-73776200D01*
X143785000Y-73871438D01*
X143832619Y-73919057D01*
X143927857Y-73966676D01*
X144023095Y-73966676D01*
X144165952Y-73919057D01*
X144737381Y-73347628D01*
X144737381Y-73966676D01*
X143737381Y-74252390D02*
X144737381Y-74585723D01*
X143737381Y-74919057D01*
X144070714Y-75871438D02*
X144070714Y-76252390D01*
X143737381Y-76014295D02*
X144594524Y-76014295D01*
X144689762Y-76061914D01*
X144737381Y-76157152D01*
X144737381Y-76252390D01*
X144737381Y-76728581D02*
X144689762Y-76633343D01*
X144642143Y-76585724D01*
X144546905Y-76538105D01*
X144261190Y-76538105D01*
X144165952Y-76585724D01*
X144118333Y-76633343D01*
X144070714Y-76728581D01*
X144070714Y-76871439D01*
X144118333Y-76966677D01*
X144165952Y-77014296D01*
X144261190Y-77061915D01*
X144546905Y-77061915D01*
X144642143Y-77014296D01*
X144689762Y-76966677D01*
X144737381Y-76871439D01*
X144737381Y-76728581D01*
X144356429Y-78252391D02*
X144356429Y-79014296D01*
X144737381Y-78633344D02*
X143975476Y-78633344D01*
X144737381Y-80014296D02*
X144737381Y-79442867D01*
X144737381Y-79728581D02*
X143737381Y-79728581D01*
X143880238Y-79633343D01*
X143975476Y-79538105D01*
X144023095Y-79442867D01*
X143737381Y-80871439D02*
X143737381Y-80680962D01*
X143785000Y-80585724D01*
X143832619Y-80538105D01*
X143975476Y-80442867D01*
X144165952Y-80395248D01*
X144546905Y-80395248D01*
X144642143Y-80442867D01*
X144689762Y-80490486D01*
X144737381Y-80585724D01*
X144737381Y-80776201D01*
X144689762Y-80871439D01*
X144642143Y-80919058D01*
X144546905Y-80966677D01*
X144308810Y-80966677D01*
X144213571Y-80919058D01*
X144165952Y-80871439D01*
X144118333Y-80776201D01*
X144118333Y-80585724D01*
X144165952Y-80490486D01*
X144213571Y-80442867D01*
X144308810Y-80395248D01*
X143737381Y-81252391D02*
X144737381Y-81585724D01*
X143737381Y-81919058D01*
X136306000Y-84836000D02*
X135506000Y-84836000D01*
X137506000Y-84836000D02*
X138106000Y-84836000D01*
X134706000Y-82886000D02*
X134706000Y-86786000D01*
X139106000Y-82886000D02*
X139106000Y-86786000D01*
X139106000Y-86786000D02*
X134706000Y-86786000D01*
X139106000Y-82886000D02*
X134706000Y-82886000D01*
X137506000Y-84936000D02*
X136306000Y-84036000D01*
X136306000Y-84036000D02*
X136306000Y-85836000D01*
X136306000Y-85836000D02*
X137406000Y-84836000D01*
X137506000Y-83936000D02*
X137506000Y-85736000D01*
X145048000Y-109128000D02*
X145048000Y-110328000D01*
X146798000Y-110328000D02*
X146798000Y-109128000D01*
X147588000Y-109128000D02*
X147588000Y-110328000D01*
X149338000Y-110328000D02*
X149338000Y-109128000D01*
X150128000Y-109128000D02*
X150128000Y-110328000D01*
X151878000Y-110328000D02*
X151878000Y-109128000D01*
X152668000Y-109128000D02*
X152668000Y-110328000D01*
X154418000Y-110328000D02*
X154418000Y-109128000D01*
X136306000Y-110236000D02*
X135506000Y-110236000D01*
X137506000Y-110236000D02*
X138106000Y-110236000D01*
X134706000Y-108286000D02*
X134706000Y-112186000D01*
X139106000Y-108286000D02*
X139106000Y-112186000D01*
X139106000Y-112186000D02*
X134706000Y-112186000D01*
X139106000Y-108286000D02*
X134706000Y-108286000D01*
X137506000Y-110336000D02*
X136306000Y-109436000D01*
X136306000Y-109436000D02*
X136306000Y-111236000D01*
X136306000Y-111236000D02*
X137406000Y-110236000D01*
X137506000Y-109336000D02*
X137506000Y-111136000D01*
X137506000Y-97536000D02*
X138306000Y-97536000D01*
X136306000Y-97536000D02*
X135706000Y-97536000D01*
X139106000Y-99486000D02*
X139106000Y-95586000D01*
X134706000Y-99486000D02*
X134706000Y-95586000D01*
X134706000Y-95586000D02*
X139106000Y-95586000D01*
X134706000Y-99486000D02*
X139106000Y-99486000D01*
X136306000Y-97436000D02*
X137506000Y-98336000D01*
X137506000Y-98336000D02*
X137506000Y-96536000D01*
X137506000Y-96536000D02*
X136406000Y-97536000D01*
X136306000Y-98436000D02*
X136306000Y-96636000D01*
X136306000Y-72136000D02*
X135506000Y-72136000D01*
X137506000Y-72136000D02*
X138106000Y-72136000D01*
X134706000Y-70186000D02*
X134706000Y-74086000D01*
X139106000Y-70186000D02*
X139106000Y-74086000D01*
X139106000Y-74086000D02*
X134706000Y-74086000D01*
X139106000Y-70186000D02*
X134706000Y-70186000D01*
X137506000Y-72236000D02*
X136306000Y-71336000D01*
X136306000Y-71336000D02*
X136306000Y-73136000D01*
X136306000Y-73136000D02*
X137406000Y-72136000D01*
X137506000Y-71236000D02*
X137506000Y-73036000D01*
X148293200Y-100800800D02*
X149293200Y-100800800D01*
X149293200Y-102500800D02*
X148293200Y-102500800D01*
X145118200Y-84951200D02*
X146118200Y-84951200D01*
X146118200Y-86651200D02*
X145118200Y-86651200D01*
X152585800Y-70447800D02*
X153585800Y-70447800D01*
X153585800Y-72147800D02*
X152585800Y-72147800D01*
X153019760Y-79202280D02*
X147817840Y-79202280D01*
X147817840Y-76804520D02*
X153019760Y-76804520D01*
X155018740Y-75704700D02*
X155018740Y-76804520D01*
X155618180Y-76205080D02*
X154419300Y-76205080D01*
X154414220Y-76804520D02*
X154414220Y-79202280D01*
X139096476Y-88288381D02*
X139096476Y-87288381D01*
X138715523Y-87288381D01*
X138620285Y-87336000D01*
X138572666Y-87383619D01*
X138525047Y-87478857D01*
X138525047Y-87621714D01*
X138572666Y-87716952D01*
X138620285Y-87764571D01*
X138715523Y-87812190D01*
X139096476Y-87812190D01*
X138096476Y-88288381D02*
X138096476Y-87288381D01*
X137858381Y-87288381D01*
X137715523Y-87336000D01*
X137620285Y-87431238D01*
X137572666Y-87526476D01*
X137525047Y-87716952D01*
X137525047Y-87859810D01*
X137572666Y-88050286D01*
X137620285Y-88145524D01*
X137715523Y-88240762D01*
X137858381Y-88288381D01*
X138096476Y-88288381D01*
X137191714Y-87288381D02*
X136572666Y-87288381D01*
X136906000Y-87669333D01*
X136763142Y-87669333D01*
X136667904Y-87716952D01*
X136620285Y-87764571D01*
X136572666Y-87859810D01*
X136572666Y-88097905D01*
X136620285Y-88193143D01*
X136667904Y-88240762D01*
X136763142Y-88288381D01*
X137048857Y-88288381D01*
X137144095Y-88240762D01*
X137191714Y-88193143D01*
X135953619Y-87288381D02*
X135858380Y-87288381D01*
X135763142Y-87336000D01*
X135715523Y-87383619D01*
X135667904Y-87478857D01*
X135620285Y-87669333D01*
X135620285Y-87907429D01*
X135667904Y-88097905D01*
X135715523Y-88193143D01*
X135763142Y-88240762D01*
X135858380Y-88288381D01*
X135953619Y-88288381D01*
X136048857Y-88240762D01*
X136096476Y-88193143D01*
X136144095Y-88097905D01*
X136191714Y-87907429D01*
X136191714Y-87669333D01*
X136144095Y-87478857D01*
X136096476Y-87383619D01*
X136048857Y-87336000D01*
X135953619Y-87288381D01*
X134667904Y-88288381D02*
X135239333Y-88288381D01*
X134953619Y-88288381D02*
X134953619Y-87288381D01*
X135048857Y-87431238D01*
X135144095Y-87526476D01*
X135239333Y-87574095D01*
X146375381Y-104011553D02*
X145899190Y-103678219D01*
X146375381Y-103440124D02*
X145375381Y-103440124D01*
X145375381Y-103821077D01*
X145423000Y-103916315D01*
X145470619Y-103963934D01*
X145565857Y-104011553D01*
X145708714Y-104011553D01*
X145803952Y-103963934D01*
X145851571Y-103916315D01*
X145899190Y-103821077D01*
X145899190Y-103440124D01*
X145375381Y-104916315D02*
X145375381Y-104440124D01*
X145851571Y-104392505D01*
X145803952Y-104440124D01*
X145756333Y-104535362D01*
X145756333Y-104773458D01*
X145803952Y-104868696D01*
X145851571Y-104916315D01*
X145946810Y-104963934D01*
X146184905Y-104963934D01*
X146280143Y-104916315D01*
X146327762Y-104868696D01*
X146375381Y-104773458D01*
X146375381Y-104535362D01*
X146327762Y-104440124D01*
X146280143Y-104392505D01*
X145375381Y-105582981D02*
X145375381Y-105678220D01*
X145423000Y-105773458D01*
X145470619Y-105821077D01*
X145565857Y-105868696D01*
X145756333Y-105916315D01*
X145994429Y-105916315D01*
X146184905Y-105868696D01*
X146280143Y-105821077D01*
X146327762Y-105773458D01*
X146375381Y-105678220D01*
X146375381Y-105582981D01*
X146327762Y-105487743D01*
X146280143Y-105440124D01*
X146184905Y-105392505D01*
X145994429Y-105344886D01*
X145756333Y-105344886D01*
X145565857Y-105392505D01*
X145470619Y-105440124D01*
X145423000Y-105487743D01*
X145375381Y-105582981D01*
X145470619Y-106297267D02*
X145423000Y-106344886D01*
X145375381Y-106440124D01*
X145375381Y-106678220D01*
X145423000Y-106773458D01*
X145470619Y-106821077D01*
X145565857Y-106868696D01*
X145661095Y-106868696D01*
X145803952Y-106821077D01*
X146375381Y-106249648D01*
X146375381Y-106868696D01*
X148991581Y-103960753D02*
X148515390Y-103627419D01*
X148991581Y-103389324D02*
X147991581Y-103389324D01*
X147991581Y-103770277D01*
X148039200Y-103865515D01*
X148086819Y-103913134D01*
X148182057Y-103960753D01*
X148324914Y-103960753D01*
X148420152Y-103913134D01*
X148467771Y-103865515D01*
X148515390Y-103770277D01*
X148515390Y-103389324D01*
X148324914Y-104817896D02*
X148991581Y-104817896D01*
X147943962Y-104579800D02*
X148658248Y-104341705D01*
X148658248Y-104960753D01*
X147991581Y-105532181D02*
X147991581Y-105627420D01*
X148039200Y-105722658D01*
X148086819Y-105770277D01*
X148182057Y-105817896D01*
X148372533Y-105865515D01*
X148610629Y-105865515D01*
X148801105Y-105817896D01*
X148896343Y-105770277D01*
X148943962Y-105722658D01*
X148991581Y-105627420D01*
X148991581Y-105532181D01*
X148943962Y-105436943D01*
X148896343Y-105389324D01*
X148801105Y-105341705D01*
X148610629Y-105294086D01*
X148372533Y-105294086D01*
X148182057Y-105341705D01*
X148086819Y-105389324D01*
X148039200Y-105436943D01*
X147991581Y-105532181D01*
X148086819Y-106246467D02*
X148039200Y-106294086D01*
X147991581Y-106389324D01*
X147991581Y-106627420D01*
X148039200Y-106722658D01*
X148086819Y-106770277D01*
X148182057Y-106817896D01*
X148277295Y-106817896D01*
X148420152Y-106770277D01*
X148991581Y-106198848D01*
X148991581Y-106817896D01*
X151074381Y-104163953D02*
X150598190Y-103830619D01*
X151074381Y-103592524D02*
X150074381Y-103592524D01*
X150074381Y-103973477D01*
X150122000Y-104068715D01*
X150169619Y-104116334D01*
X150264857Y-104163953D01*
X150407714Y-104163953D01*
X150502952Y-104116334D01*
X150550571Y-104068715D01*
X150598190Y-103973477D01*
X150598190Y-103592524D01*
X150074381Y-104497286D02*
X150074381Y-105116334D01*
X150455333Y-104783000D01*
X150455333Y-104925858D01*
X150502952Y-105021096D01*
X150550571Y-105068715D01*
X150645810Y-105116334D01*
X150883905Y-105116334D01*
X150979143Y-105068715D01*
X151026762Y-105021096D01*
X151074381Y-104925858D01*
X151074381Y-104640143D01*
X151026762Y-104544905D01*
X150979143Y-104497286D01*
X150074381Y-105735381D02*
X150074381Y-105830620D01*
X150122000Y-105925858D01*
X150169619Y-105973477D01*
X150264857Y-106021096D01*
X150455333Y-106068715D01*
X150693429Y-106068715D01*
X150883905Y-106021096D01*
X150979143Y-105973477D01*
X151026762Y-105925858D01*
X151074381Y-105830620D01*
X151074381Y-105735381D01*
X151026762Y-105640143D01*
X150979143Y-105592524D01*
X150883905Y-105544905D01*
X150693429Y-105497286D01*
X150455333Y-105497286D01*
X150264857Y-105544905D01*
X150169619Y-105592524D01*
X150122000Y-105640143D01*
X150074381Y-105735381D01*
X150169619Y-106449667D02*
X150122000Y-106497286D01*
X150074381Y-106592524D01*
X150074381Y-106830620D01*
X150122000Y-106925858D01*
X150169619Y-106973477D01*
X150264857Y-107021096D01*
X150360095Y-107021096D01*
X150502952Y-106973477D01*
X151074381Y-106402048D01*
X151074381Y-107021096D01*
X154147781Y-103935353D02*
X153671590Y-103602019D01*
X154147781Y-103363924D02*
X153147781Y-103363924D01*
X153147781Y-103744877D01*
X153195400Y-103840115D01*
X153243019Y-103887734D01*
X153338257Y-103935353D01*
X153481114Y-103935353D01*
X153576352Y-103887734D01*
X153623971Y-103840115D01*
X153671590Y-103744877D01*
X153671590Y-103363924D01*
X153243019Y-104316305D02*
X153195400Y-104363924D01*
X153147781Y-104459162D01*
X153147781Y-104697258D01*
X153195400Y-104792496D01*
X153243019Y-104840115D01*
X153338257Y-104887734D01*
X153433495Y-104887734D01*
X153576352Y-104840115D01*
X154147781Y-104268686D01*
X154147781Y-104887734D01*
X153147781Y-105506781D02*
X153147781Y-105602020D01*
X153195400Y-105697258D01*
X153243019Y-105744877D01*
X153338257Y-105792496D01*
X153528733Y-105840115D01*
X153766829Y-105840115D01*
X153957305Y-105792496D01*
X154052543Y-105744877D01*
X154100162Y-105697258D01*
X154147781Y-105602020D01*
X154147781Y-105506781D01*
X154100162Y-105411543D01*
X154052543Y-105363924D01*
X153957305Y-105316305D01*
X153766829Y-105268686D01*
X153528733Y-105268686D01*
X153338257Y-105316305D01*
X153243019Y-105363924D01*
X153195400Y-105411543D01*
X153147781Y-105506781D01*
X153243019Y-106221067D02*
X153195400Y-106268686D01*
X153147781Y-106363924D01*
X153147781Y-106602020D01*
X153195400Y-106697258D01*
X153243019Y-106744877D01*
X153338257Y-106792496D01*
X153433495Y-106792496D01*
X153576352Y-106744877D01*
X154147781Y-106173448D01*
X154147781Y-106792496D01*
X139096476Y-107665781D02*
X139096476Y-106665781D01*
X138715523Y-106665781D01*
X138620285Y-106713400D01*
X138572666Y-106761019D01*
X138525047Y-106856257D01*
X138525047Y-106999114D01*
X138572666Y-107094352D01*
X138620285Y-107141971D01*
X138715523Y-107189590D01*
X139096476Y-107189590D01*
X138096476Y-107665781D02*
X138096476Y-106665781D01*
X137858381Y-106665781D01*
X137715523Y-106713400D01*
X137620285Y-106808638D01*
X137572666Y-106903876D01*
X137525047Y-107094352D01*
X137525047Y-107237210D01*
X137572666Y-107427686D01*
X137620285Y-107522924D01*
X137715523Y-107618162D01*
X137858381Y-107665781D01*
X138096476Y-107665781D01*
X136620285Y-106665781D02*
X137096476Y-106665781D01*
X137144095Y-107141971D01*
X137096476Y-107094352D01*
X137001238Y-107046733D01*
X136763142Y-107046733D01*
X136667904Y-107094352D01*
X136620285Y-107141971D01*
X136572666Y-107237210D01*
X136572666Y-107475305D01*
X136620285Y-107570543D01*
X136667904Y-107618162D01*
X136763142Y-107665781D01*
X137001238Y-107665781D01*
X137096476Y-107618162D01*
X137144095Y-107570543D01*
X135953619Y-106665781D02*
X135858380Y-106665781D01*
X135763142Y-106713400D01*
X135715523Y-106761019D01*
X135667904Y-106856257D01*
X135620285Y-107046733D01*
X135620285Y-107284829D01*
X135667904Y-107475305D01*
X135715523Y-107570543D01*
X135763142Y-107618162D01*
X135858380Y-107665781D01*
X135953619Y-107665781D01*
X136048857Y-107618162D01*
X136096476Y-107570543D01*
X136144095Y-107475305D01*
X136191714Y-107284829D01*
X136191714Y-107046733D01*
X136144095Y-106856257D01*
X136096476Y-106761019D01*
X136048857Y-106713400D01*
X135953619Y-106665781D01*
X134667904Y-107665781D02*
X135239333Y-107665781D01*
X134953619Y-107665781D02*
X134953619Y-106665781D01*
X135048857Y-106808638D01*
X135144095Y-106903876D01*
X135239333Y-106951495D01*
X138715476Y-94432381D02*
X138715476Y-93432381D01*
X138334523Y-93432381D01*
X138239285Y-93480000D01*
X138191666Y-93527619D01*
X138144047Y-93622857D01*
X138144047Y-93765714D01*
X138191666Y-93860952D01*
X138239285Y-93908571D01*
X138334523Y-93956190D01*
X138715476Y-93956190D01*
X137715476Y-94432381D02*
X137715476Y-93432381D01*
X137477381Y-93432381D01*
X137334523Y-93480000D01*
X137239285Y-93575238D01*
X137191666Y-93670476D01*
X137144047Y-93860952D01*
X137144047Y-94003810D01*
X137191666Y-94194286D01*
X137239285Y-94289524D01*
X137334523Y-94384762D01*
X137477381Y-94432381D01*
X137715476Y-94432381D01*
X136286904Y-93765714D02*
X136286904Y-94432381D01*
X136525000Y-93384762D02*
X136763095Y-94099048D01*
X136144047Y-94099048D01*
X135572619Y-93432381D02*
X135477380Y-93432381D01*
X135382142Y-93480000D01*
X135334523Y-93527619D01*
X135286904Y-93622857D01*
X135239285Y-93813333D01*
X135239285Y-94051429D01*
X135286904Y-94241905D01*
X135334523Y-94337143D01*
X135382142Y-94384762D01*
X135477380Y-94432381D01*
X135572619Y-94432381D01*
X135667857Y-94384762D01*
X135715476Y-94337143D01*
X135763095Y-94241905D01*
X135810714Y-94051429D01*
X135810714Y-93813333D01*
X135763095Y-93622857D01*
X135715476Y-93527619D01*
X135667857Y-93480000D01*
X135572619Y-93432381D01*
X134286904Y-94432381D02*
X134858333Y-94432381D01*
X134572619Y-94432381D02*
X134572619Y-93432381D01*
X134667857Y-93575238D01*
X134763095Y-93670476D01*
X134858333Y-93718095D01*
X139096476Y-75588381D02*
X139096476Y-74588381D01*
X138715523Y-74588381D01*
X138620285Y-74636000D01*
X138572666Y-74683619D01*
X138525047Y-74778857D01*
X138525047Y-74921714D01*
X138572666Y-75016952D01*
X138620285Y-75064571D01*
X138715523Y-75112190D01*
X139096476Y-75112190D01*
X138096476Y-75588381D02*
X138096476Y-74588381D01*
X137858381Y-74588381D01*
X137715523Y-74636000D01*
X137620285Y-74731238D01*
X137572666Y-74826476D01*
X137525047Y-75016952D01*
X137525047Y-75159810D01*
X137572666Y-75350286D01*
X137620285Y-75445524D01*
X137715523Y-75540762D01*
X137858381Y-75588381D01*
X138096476Y-75588381D01*
X137144095Y-74683619D02*
X137096476Y-74636000D01*
X137001238Y-74588381D01*
X136763142Y-74588381D01*
X136667904Y-74636000D01*
X136620285Y-74683619D01*
X136572666Y-74778857D01*
X136572666Y-74874095D01*
X136620285Y-75016952D01*
X137191714Y-75588381D01*
X136572666Y-75588381D01*
X135953619Y-74588381D02*
X135858380Y-74588381D01*
X135763142Y-74636000D01*
X135715523Y-74683619D01*
X135667904Y-74778857D01*
X135620285Y-74969333D01*
X135620285Y-75207429D01*
X135667904Y-75397905D01*
X135715523Y-75493143D01*
X135763142Y-75540762D01*
X135858380Y-75588381D01*
X135953619Y-75588381D01*
X136048857Y-75540762D01*
X136096476Y-75493143D01*
X136144095Y-75397905D01*
X136191714Y-75207429D01*
X136191714Y-74969333D01*
X136144095Y-74778857D01*
X136096476Y-74683619D01*
X136048857Y-74636000D01*
X135953619Y-74588381D01*
X134667904Y-75588381D02*
X135239333Y-75588381D01*
X134953619Y-75588381D02*
X134953619Y-74588381D01*
X135048857Y-74731238D01*
X135144095Y-74826476D01*
X135239333Y-74874095D01*
X149912247Y-99907943D02*
X149959866Y-99955562D01*
X150102723Y-100003181D01*
X150197961Y-100003181D01*
X150340819Y-99955562D01*
X150436057Y-99860324D01*
X150483676Y-99765086D01*
X150531295Y-99574610D01*
X150531295Y-99431752D01*
X150483676Y-99241276D01*
X150436057Y-99146038D01*
X150340819Y-99050800D01*
X150197961Y-99003181D01*
X150102723Y-99003181D01*
X149959866Y-99050800D01*
X149912247Y-99098419D01*
X149531295Y-99098419D02*
X149483676Y-99050800D01*
X149388438Y-99003181D01*
X149150342Y-99003181D01*
X149055104Y-99050800D01*
X149007485Y-99098419D01*
X148959866Y-99193657D01*
X148959866Y-99288895D01*
X149007485Y-99431752D01*
X149578914Y-100003181D01*
X148959866Y-100003181D01*
X148340819Y-99003181D02*
X148245580Y-99003181D01*
X148150342Y-99050800D01*
X148102723Y-99098419D01*
X148055104Y-99193657D01*
X148007485Y-99384133D01*
X148007485Y-99622229D01*
X148055104Y-99812705D01*
X148102723Y-99907943D01*
X148150342Y-99955562D01*
X148245580Y-100003181D01*
X148340819Y-100003181D01*
X148436057Y-99955562D01*
X148483676Y-99907943D01*
X148531295Y-99812705D01*
X148578914Y-99622229D01*
X148578914Y-99384133D01*
X148531295Y-99193657D01*
X148483676Y-99098419D01*
X148436057Y-99050800D01*
X148340819Y-99003181D01*
X147674152Y-99003181D02*
X147055104Y-99003181D01*
X147388438Y-99384133D01*
X147245580Y-99384133D01*
X147150342Y-99431752D01*
X147102723Y-99479371D01*
X147055104Y-99574610D01*
X147055104Y-99812705D01*
X147102723Y-99907943D01*
X147150342Y-99955562D01*
X147245580Y-100003181D01*
X147531295Y-100003181D01*
X147626533Y-99955562D01*
X147674152Y-99907943D01*
X148312047Y-84126343D02*
X148359666Y-84173962D01*
X148502523Y-84221581D01*
X148597761Y-84221581D01*
X148740619Y-84173962D01*
X148835857Y-84078724D01*
X148883476Y-83983486D01*
X148931095Y-83793010D01*
X148931095Y-83650152D01*
X148883476Y-83459676D01*
X148835857Y-83364438D01*
X148740619Y-83269200D01*
X148597761Y-83221581D01*
X148502523Y-83221581D01*
X148359666Y-83269200D01*
X148312047Y-83316819D01*
X147931095Y-83316819D02*
X147883476Y-83269200D01*
X147788238Y-83221581D01*
X147550142Y-83221581D01*
X147454904Y-83269200D01*
X147407285Y-83316819D01*
X147359666Y-83412057D01*
X147359666Y-83507295D01*
X147407285Y-83650152D01*
X147978714Y-84221581D01*
X147359666Y-84221581D01*
X146740619Y-83221581D02*
X146645380Y-83221581D01*
X146550142Y-83269200D01*
X146502523Y-83316819D01*
X146454904Y-83412057D01*
X146407285Y-83602533D01*
X146407285Y-83840629D01*
X146454904Y-84031105D01*
X146502523Y-84126343D01*
X146550142Y-84173962D01*
X146645380Y-84221581D01*
X146740619Y-84221581D01*
X146835857Y-84173962D01*
X146883476Y-84126343D01*
X146931095Y-84031105D01*
X146978714Y-83840629D01*
X146978714Y-83602533D01*
X146931095Y-83412057D01*
X146883476Y-83316819D01*
X146835857Y-83269200D01*
X146740619Y-83221581D01*
X145454904Y-84221581D02*
X146026333Y-84221581D01*
X145740619Y-84221581D02*
X145740619Y-83221581D01*
X145835857Y-83364438D01*
X145931095Y-83459676D01*
X146026333Y-83507295D01*
X154230247Y-73788543D02*
X154277866Y-73836162D01*
X154420723Y-73883781D01*
X154515961Y-73883781D01*
X154658819Y-73836162D01*
X154754057Y-73740924D01*
X154801676Y-73645686D01*
X154849295Y-73455210D01*
X154849295Y-73312352D01*
X154801676Y-73121876D01*
X154754057Y-73026638D01*
X154658819Y-72931400D01*
X154515961Y-72883781D01*
X154420723Y-72883781D01*
X154277866Y-72931400D01*
X154230247Y-72979019D01*
X153277866Y-73883781D02*
X153849295Y-73883781D01*
X153563581Y-73883781D02*
X153563581Y-72883781D01*
X153658819Y-73026638D01*
X153754057Y-73121876D01*
X153849295Y-73169495D01*
X152658819Y-72883781D02*
X152563580Y-72883781D01*
X152468342Y-72931400D01*
X152420723Y-72979019D01*
X152373104Y-73074257D01*
X152325485Y-73264733D01*
X152325485Y-73502829D01*
X152373104Y-73693305D01*
X152420723Y-73788543D01*
X152468342Y-73836162D01*
X152563580Y-73883781D01*
X152658819Y-73883781D01*
X152754057Y-73836162D01*
X152801676Y-73788543D01*
X152849295Y-73693305D01*
X152896914Y-73502829D01*
X152896914Y-73264733D01*
X152849295Y-73074257D01*
X152801676Y-72979019D01*
X152754057Y-72931400D01*
X152658819Y-72883781D01*
X151373104Y-73883781D02*
X151944533Y-73883781D01*
X151658819Y-73883781D02*
X151658819Y-72883781D01*
X151754057Y-73026638D01*
X151849295Y-73121876D01*
X151944533Y-73169495D01*
X152172847Y-80646543D02*
X152220466Y-80694162D01*
X152363323Y-80741781D01*
X152458561Y-80741781D01*
X152601419Y-80694162D01*
X152696657Y-80598924D01*
X152744276Y-80503686D01*
X152791895Y-80313210D01*
X152791895Y-80170352D01*
X152744276Y-79979876D01*
X152696657Y-79884638D01*
X152601419Y-79789400D01*
X152458561Y-79741781D01*
X152363323Y-79741781D01*
X152220466Y-79789400D01*
X152172847Y-79837019D01*
X151220466Y-80741781D02*
X151791895Y-80741781D01*
X151506181Y-80741781D02*
X151506181Y-79741781D01*
X151601419Y-79884638D01*
X151696657Y-79979876D01*
X151791895Y-80027495D01*
X150601419Y-79741781D02*
X150506180Y-79741781D01*
X150410942Y-79789400D01*
X150363323Y-79837019D01*
X150315704Y-79932257D01*
X150268085Y-80122733D01*
X150268085Y-80360829D01*
X150315704Y-80551305D01*
X150363323Y-80646543D01*
X150410942Y-80694162D01*
X150506180Y-80741781D01*
X150601419Y-80741781D01*
X150696657Y-80694162D01*
X150744276Y-80646543D01*
X150791895Y-80551305D01*
X150839514Y-80360829D01*
X150839514Y-80122733D01*
X150791895Y-79932257D01*
X150744276Y-79837019D01*
X150696657Y-79789400D01*
X150601419Y-79741781D01*
X149887133Y-79837019D02*
X149839514Y-79789400D01*
X149744276Y-79741781D01*
X149506180Y-79741781D01*
X149410942Y-79789400D01*
X149363323Y-79837019D01*
X149315704Y-79932257D01*
X149315704Y-80027495D01*
X149363323Y-80170352D01*
X149934752Y-80741781D01*
X149315704Y-80741781D01*
X155399692Y-76273969D02*
X154637787Y-76273969D01*
X155018739Y-76654921D02*
X155018739Y-75893016D01*
%LPC*%
D12*
X140481000Y-84836000D03*
X133331000Y-84836000D03*
D13*
X153543000Y-97409000D03*
X143256000Y-68326000D03*
X153619200Y-83159600D03*
D14*
X151384000Y-67818000D03*
D15*
X153924000Y-67818000D03*
D13*
X138303000Y-114427000D03*
X138938000Y-102235000D03*
X133223000Y-78867000D03*
X132588000Y-67818000D03*
D16*
X145923000Y-111078000D03*
X145923000Y-108378000D03*
X148463000Y-111078000D03*
X148463000Y-108378000D03*
X151003000Y-111078000D03*
X151003000Y-108378000D03*
X153543000Y-111078000D03*
X153543000Y-108378000D03*
D17*
X143383000Y-114427000D03*
D18*
X145923000Y-114427000D03*
X148463000Y-114427000D03*
X151003000Y-114427000D03*
X153543000Y-114427000D03*
D12*
X140481000Y-110236000D03*
X133331000Y-110236000D03*
X133331000Y-97536000D03*
X140481000Y-97536000D03*
X140481000Y-72136000D03*
X133331000Y-72136000D03*
D19*
X150043200Y-101650800D03*
X147543200Y-101650800D03*
X146868200Y-85801200D03*
X144368200Y-85801200D03*
X154335800Y-71297800D03*
X151835800Y-71297800D03*
D20*
X148419820Y-78003400D03*
X152417780Y-78003400D03*
M02*
