G04 #@! TF.FileFunction,Copper,L1,Top,Signal*
%FSLAX46Y46*%
G04 Gerber Fmt 4.6, Leading zero omitted, Abs format (unit mm)*
G04 Created by KiCad (PCBNEW 4.0.2-stable) date Tuesday, December 20, 2016 'PMt' 02:13:57 PM*
%MOMM*%
G01*
G04 APERTURE LIST*
%ADD10C,0.100000*%
%ADD11R,1.250000X1.500000*%
%ADD12R,1.500000X1.250000*%
%ADD13R,1.300000X1.500000*%
%ADD14R,1.500000X1.300000*%
%ADD15R,0.650000X1.060000*%
%ADD16R,1.500000X0.600000*%
%ADD17R,1.200000X1.200000*%
%ADD18R,1.500000X1.600000*%
%ADD19R,1.727200X2.032000*%
%ADD20O,1.727200X2.032000*%
%ADD21R,2.235200X2.235200*%
%ADD22R,2.032000X2.032000*%
%ADD23O,2.032000X2.032000*%
%ADD24C,0.889000*%
%ADD25C,0.685800*%
%ADD26C,0.609600*%
%ADD27C,0.254000*%
G04 APERTURE END LIST*
D10*
D11*
X135788400Y-71063800D03*
X135788400Y-73563800D03*
D12*
X138156000Y-86233000D03*
X135656000Y-86233000D03*
X138156000Y-98806000D03*
X135656000Y-98806000D03*
D11*
X135496300Y-108744700D03*
X135496300Y-111244700D03*
D13*
X147574000Y-73232000D03*
X147574000Y-70532000D03*
X138303000Y-70938400D03*
X138303000Y-73638400D03*
D14*
X138256000Y-84074000D03*
X135556000Y-84074000D03*
X138256000Y-96520000D03*
X135556000Y-96520000D03*
D13*
X137782300Y-108644700D03*
X137782300Y-111344700D03*
D15*
X153324600Y-71137600D03*
X152374600Y-71137600D03*
X151424600Y-71137600D03*
X151424600Y-73337600D03*
X153324600Y-73337600D03*
D16*
X142842000Y-80772000D03*
X142842000Y-82042000D03*
X142842000Y-83312000D03*
X142842000Y-84582000D03*
X142842000Y-85852000D03*
X142842000Y-87122000D03*
X142842000Y-88392000D03*
X148242000Y-88392000D03*
X148242000Y-87122000D03*
X148242000Y-85852000D03*
X148242000Y-84582000D03*
X148242000Y-83312000D03*
X148242000Y-82042000D03*
X148242000Y-80772000D03*
X148750000Y-103759000D03*
X148750000Y-102489000D03*
X148750000Y-101219000D03*
X148750000Y-99949000D03*
X148750000Y-98679000D03*
X148750000Y-97409000D03*
X148750000Y-96139000D03*
X143350000Y-96139000D03*
X143350000Y-97409000D03*
X143350000Y-98679000D03*
X143350000Y-99949000D03*
X143350000Y-101219000D03*
X143350000Y-102489000D03*
X143350000Y-103759000D03*
D17*
X154381000Y-90313000D03*
X154381000Y-92313000D03*
D18*
X151131000Y-91313000D03*
D19*
X143383000Y-114427000D03*
D20*
X145923000Y-114427000D03*
X148463000Y-114427000D03*
X151003000Y-114427000D03*
X153543000Y-114427000D03*
D21*
X132588000Y-67818000D03*
X133223000Y-78867000D03*
X138938000Y-102235000D03*
X138303000Y-114427000D03*
D22*
X151384000Y-67818000D03*
D23*
X153924000Y-67818000D03*
D21*
X153797000Y-79756000D03*
X143256000Y-68326000D03*
X153543000Y-97409000D03*
D24*
X154457400Y-70053200D03*
X132461000Y-74549000D03*
X154457400Y-94208600D03*
X150088600Y-87147400D03*
X145288000Y-101600000D03*
X144373600Y-87147400D03*
X150037800Y-81940400D03*
X140970000Y-82092800D03*
X150063200Y-84531200D03*
X133324600Y-108280200D03*
X152374600Y-72390000D03*
X139573000Y-94615000D03*
X133350000Y-82550000D03*
X151358600Y-103225600D03*
X154381200Y-88366600D03*
X144018000Y-108331000D03*
X144729200Y-82854800D03*
X152425400Y-75565000D03*
X154762200Y-73329800D03*
D25*
X140462000Y-75234800D03*
X148361400Y-93827600D03*
X145440400Y-81076800D03*
X139623800Y-87680800D03*
X145338800Y-99923600D03*
X146685000Y-96393000D03*
X133858000Y-95148400D03*
X139573000Y-112141000D03*
D26*
X153035000Y-70027800D02*
X154432000Y-70027800D01*
X154432000Y-70027800D02*
X154457400Y-70053200D01*
X147574000Y-70532000D02*
X149381200Y-70532000D01*
X153324600Y-70317400D02*
X153324600Y-71137600D01*
X153035000Y-70027800D02*
X153324600Y-70317400D01*
X149885400Y-70027800D02*
X153035000Y-70027800D01*
X149381200Y-70532000D02*
X149885400Y-70027800D01*
X154381000Y-92313000D02*
X154381000Y-94132200D01*
X154381000Y-94132200D02*
X154457400Y-94208600D01*
X148242000Y-87122000D02*
X150063200Y-87122000D01*
X150063200Y-87122000D02*
X150088600Y-87147400D01*
X144907000Y-101219000D02*
X145288000Y-101600000D01*
X144907000Y-101219000D02*
X143350000Y-101219000D01*
X142842000Y-87122000D02*
X144348200Y-87122000D01*
X144348200Y-87122000D02*
X144373600Y-87147400D01*
X148242000Y-82042000D02*
X149936200Y-82042000D01*
X149936200Y-82042000D02*
X150037800Y-81940400D01*
X142842000Y-82042000D02*
X141020800Y-82042000D01*
X141020800Y-82042000D02*
X140970000Y-82092800D01*
X148242000Y-84582000D02*
X150012400Y-84582000D01*
X150012400Y-84582000D02*
X150063200Y-84531200D01*
X152374600Y-71137600D02*
X152374600Y-72390000D01*
X148750000Y-101219000D02*
X149352000Y-101219000D01*
X149352000Y-101219000D02*
X151358600Y-103225600D01*
X154381000Y-90313000D02*
X154381000Y-88366800D01*
X154381000Y-88366800D02*
X154381200Y-88366600D01*
X143941800Y-84582000D02*
X144729200Y-83794600D01*
X144729200Y-83794600D02*
X144729200Y-82854800D01*
X143941800Y-84582000D02*
X142842000Y-84582000D01*
X153324600Y-73337600D02*
X153324600Y-74665800D01*
X153324600Y-74665800D02*
X152425400Y-75565000D01*
X154754400Y-73337600D02*
X154762200Y-73329800D01*
X154754400Y-73337600D02*
X153324600Y-73337600D01*
X153324600Y-73337600D02*
X153324600Y-73441600D01*
D27*
X135788400Y-71063800D02*
X135788400Y-71018400D01*
X135788400Y-71018400D02*
X132588000Y-67818000D01*
X148242000Y-80772000D02*
X150444200Y-80772000D01*
X150012400Y-98679000D02*
X148750000Y-98679000D01*
X150393400Y-98298000D02*
X150012400Y-98679000D01*
X150393400Y-94843600D02*
X150393400Y-98298000D01*
X149555200Y-94005400D02*
X150393400Y-94843600D01*
X149555200Y-90068400D02*
X149555200Y-94005400D01*
X151053800Y-88569800D02*
X149555200Y-90068400D01*
X151053800Y-81381600D02*
X151053800Y-88569800D01*
X150444200Y-80772000D02*
X151053800Y-81381600D01*
X148242000Y-80772000D02*
X148242000Y-78392000D01*
X140788400Y-70938400D02*
X138303000Y-70938400D01*
X148242000Y-78392000D02*
X140788400Y-70938400D01*
X138303000Y-70938400D02*
X138408400Y-70938400D01*
X135788400Y-71063800D02*
X138177600Y-71063800D01*
X138177600Y-71063800D02*
X138303000Y-70938400D01*
X140462000Y-75234800D02*
X143662400Y-75234800D01*
X147066000Y-83312000D02*
X148242000Y-83312000D01*
X146735800Y-82981800D02*
X147066000Y-83312000D01*
X146735800Y-78308200D02*
X146735800Y-82981800D01*
X143662400Y-75234800D02*
X146735800Y-78308200D01*
X138303000Y-73638400D02*
X138865600Y-73638400D01*
X138865600Y-73638400D02*
X140462000Y-75234800D01*
X135788400Y-73563800D02*
X138228400Y-73563800D01*
X138228400Y-73563800D02*
X138303000Y-73638400D01*
X133223000Y-78867000D02*
X133967200Y-78867000D01*
X133967200Y-78867000D02*
X138256000Y-83155800D01*
X142842000Y-80772000D02*
X145135600Y-80772000D01*
X148750000Y-94216200D02*
X148750000Y-96139000D01*
X148361400Y-93827600D02*
X148750000Y-94216200D01*
X145135600Y-80772000D02*
X145440400Y-81076800D01*
X138256000Y-84074000D02*
X138256000Y-83155800D01*
X140639800Y-80772000D02*
X142842000Y-80772000D01*
X138256000Y-83155800D02*
X140639800Y-80772000D01*
X138256000Y-84074000D02*
X138256000Y-83486000D01*
X138256000Y-84074000D02*
X138256000Y-86133000D01*
X138256000Y-86133000D02*
X138156000Y-86233000D01*
X138256000Y-86133000D02*
X138156000Y-86233000D01*
X138256000Y-86260000D02*
X138156000Y-86360000D01*
X138256000Y-84074000D02*
X138684000Y-84074000D01*
X139623800Y-87680800D02*
X139623800Y-84226400D01*
X140538200Y-83312000D02*
X142842000Y-83312000D01*
X139623800Y-84226400D02*
X140538200Y-83312000D01*
X135656000Y-86233000D02*
X135656000Y-86811800D01*
X135656000Y-86811800D02*
X136525000Y-87680800D01*
X136525000Y-87680800D02*
X139623800Y-87680800D01*
X135656000Y-86233000D02*
X135656000Y-86659400D01*
X142588000Y-83058000D02*
X142842000Y-83312000D01*
X135656000Y-86233000D02*
X135656000Y-86761000D01*
X135556000Y-84074000D02*
X135556000Y-86133000D01*
X135556000Y-86133000D02*
X135656000Y-86233000D01*
X135656000Y-84174000D02*
X135556000Y-84074000D01*
X135556000Y-86133000D02*
X135656000Y-86233000D01*
X138938000Y-102235000D02*
X138938000Y-99588000D01*
X138938000Y-99588000D02*
X138156000Y-98806000D01*
X148242000Y-88392000D02*
X148242000Y-91813400D01*
X145313400Y-99949000D02*
X143350000Y-99949000D01*
X145338800Y-99923600D02*
X145313400Y-99949000D01*
X146685000Y-93370400D02*
X146685000Y-96393000D01*
X148242000Y-91813400D02*
X146685000Y-93370400D01*
X138256000Y-96520000D02*
X138256000Y-94408000D01*
X143822400Y-92811600D02*
X148242000Y-88392000D01*
X139852400Y-92811600D02*
X143822400Y-92811600D01*
X138256000Y-94408000D02*
X139852400Y-92811600D01*
X138156000Y-98806000D02*
X138156000Y-96620000D01*
X148082000Y-88392000D02*
X148242000Y-88392000D01*
X135556000Y-95173800D02*
X133883400Y-95173800D01*
X133883400Y-95173800D02*
X133858000Y-95148400D01*
X135556000Y-96520000D02*
X135556000Y-95173800D01*
X135556000Y-95173800D02*
X135556000Y-95152200D01*
X146939000Y-85852000D02*
X148242000Y-85852000D01*
X146100800Y-86690200D02*
X146939000Y-85852000D01*
X146100800Y-88442800D02*
X146100800Y-86690200D01*
X142824200Y-91719400D02*
X146100800Y-88442800D01*
X138988800Y-91719400D02*
X142824200Y-91719400D01*
X135556000Y-95152200D02*
X138988800Y-91719400D01*
X135656000Y-98806000D02*
X135656000Y-96620000D01*
X135656000Y-96620000D02*
X135556000Y-96520000D01*
X147574000Y-85852000D02*
X148242000Y-85852000D01*
X137782300Y-108644700D02*
X141918700Y-108644700D01*
X142367000Y-111252000D02*
X139192000Y-114427000D01*
X142367000Y-109093000D02*
X142367000Y-111252000D01*
X141918700Y-108644700D02*
X142367000Y-109093000D01*
X139192000Y-114427000D02*
X138303000Y-114427000D01*
X143350000Y-97409000D02*
X142316200Y-97409000D01*
X141147800Y-105279200D02*
X137782300Y-108644700D01*
X141147800Y-98577400D02*
X141147800Y-105279200D01*
X142316200Y-97409000D02*
X141147800Y-98577400D01*
X135496300Y-108744700D02*
X135496300Y-108724700D01*
X135496300Y-108724700D02*
X132994400Y-106222800D01*
X141528800Y-88392000D02*
X142842000Y-88392000D01*
X140614400Y-89306400D02*
X141528800Y-88392000D01*
X135280400Y-89306400D02*
X140614400Y-89306400D01*
X132994400Y-91592400D02*
X135280400Y-89306400D01*
X132994400Y-106222800D02*
X132994400Y-91592400D01*
X137782300Y-108644700D02*
X135596300Y-108644700D01*
X135596300Y-108644700D02*
X135496300Y-108744700D01*
X137782300Y-111344700D02*
X138776700Y-111344700D01*
X138776700Y-111344700D02*
X139573000Y-112141000D01*
X135496300Y-111244700D02*
X133723700Y-111244700D01*
X141503400Y-85852000D02*
X142842000Y-85852000D01*
X141097000Y-86258400D02*
X141503400Y-85852000D01*
X141097000Y-87299800D02*
X141097000Y-86258400D01*
X139928600Y-88468200D02*
X141097000Y-87299800D01*
X134543800Y-88468200D02*
X139928600Y-88468200D01*
X131927600Y-91084400D02*
X134543800Y-88468200D01*
X131927600Y-109448600D02*
X131927600Y-91084400D01*
X133723700Y-111244700D02*
X131927600Y-109448600D01*
X137782300Y-111344700D02*
X135596300Y-111344700D01*
X135596300Y-111344700D02*
X135496300Y-111244700D01*
X142842000Y-85852000D02*
X142113000Y-85852000D01*
X148750000Y-102489000D02*
X149352000Y-102489000D01*
X149352000Y-102489000D02*
X150114000Y-103251000D01*
X150114000Y-103251000D02*
X150114000Y-108204000D01*
X150114000Y-108204000D02*
X153543000Y-111633000D01*
X153543000Y-111633000D02*
X153543000Y-114427000D01*
X148750000Y-103759000D02*
X148750000Y-107602000D01*
X151003000Y-109855000D02*
X151003000Y-114427000D01*
X148750000Y-107602000D02*
X151003000Y-109855000D01*
X143350000Y-102489000D02*
X143891000Y-102489000D01*
X143891000Y-102489000D02*
X145415000Y-104013000D01*
X145415000Y-104013000D02*
X145415000Y-105664000D01*
X145415000Y-105664000D02*
X148463000Y-108712000D01*
X148463000Y-108712000D02*
X148463000Y-114427000D01*
X143350000Y-103759000D02*
X143350000Y-104996000D01*
X145923000Y-107569000D02*
X145923000Y-114427000D01*
X143350000Y-104996000D02*
X145923000Y-107569000D01*
X147574000Y-73232000D02*
X148256000Y-73232000D01*
X150350400Y-71137600D02*
X151424600Y-71137600D01*
X148256000Y-73232000D02*
X150350400Y-71137600D01*
X153543000Y-97409000D02*
X152400000Y-97409000D01*
X152400000Y-97409000D02*
X151131000Y-96140000D01*
X148750000Y-97409000D02*
X146202400Y-97409000D01*
X151131000Y-96468200D02*
X151131000Y-98982800D01*
X150164800Y-99949000D02*
X148750000Y-99949000D01*
X151131000Y-98982800D02*
X150164800Y-99949000D01*
X146202400Y-97485200D02*
X146202400Y-99364800D01*
X146202400Y-99364800D02*
X146786600Y-99949000D01*
X146786600Y-99949000D02*
X148750000Y-99949000D01*
X146202400Y-97409000D02*
X146202400Y-97485200D01*
X146202400Y-97485200D02*
X146202400Y-97536000D01*
X145059400Y-98679000D02*
X143350000Y-98679000D01*
X146202400Y-97536000D02*
X145059400Y-98679000D01*
X144932400Y-96139000D02*
X143350000Y-96139000D01*
X146202400Y-97409000D02*
X144932400Y-96139000D01*
X151131000Y-95479600D02*
X151131000Y-96140000D01*
X151131000Y-96140000D02*
X151131000Y-96468200D01*
X151131000Y-91313000D02*
X151131000Y-95479600D01*
M02*
