G04 #@! TF.FileFunction,Soldermask,Bot*
%FSLAX46Y46*%
G04 Gerber Fmt 4.6, Leading zero omitted, Abs format (unit mm)*
G04 Created by KiCad (PCBNEW 4.0.2-stable) date Sunday, January 22, 2017 'PMt' 02:28:49 PM*
%MOMM*%
G01*
G04 APERTURE LIST*
%ADD10C,0.100000*%
G04 APERTURE END LIST*
D10*
G36*
X139471400Y-115595400D02*
X137134600Y-115595400D01*
X137134600Y-113258600D01*
X139471400Y-113258600D01*
X139471400Y-115595400D01*
X139471400Y-115595400D01*
G37*
G36*
X146106818Y-113373708D02*
X146106823Y-113373709D01*
X146106866Y-113373714D01*
X146277344Y-113426486D01*
X146434326Y-113511366D01*
X146571831Y-113625120D01*
X146684623Y-113763417D01*
X146768405Y-113920987D01*
X146819985Y-114091830D01*
X146837400Y-114269438D01*
X146837400Y-114584597D01*
X146837326Y-114595273D01*
X146837325Y-114595279D01*
X146837311Y-114597329D01*
X146817418Y-114774676D01*
X146763457Y-114944782D01*
X146677484Y-115101168D01*
X146562772Y-115237876D01*
X146423692Y-115349699D01*
X146265540Y-115432379D01*
X146094341Y-115482765D01*
X146094310Y-115482768D01*
X146094296Y-115482772D01*
X145916620Y-115498941D01*
X145739182Y-115480292D01*
X145739177Y-115480291D01*
X145739134Y-115480286D01*
X145568656Y-115427514D01*
X145411674Y-115342634D01*
X145274169Y-115228880D01*
X145161377Y-115090583D01*
X145077595Y-114933013D01*
X145026015Y-114762170D01*
X145008600Y-114584562D01*
X145008600Y-114269403D01*
X145008674Y-114258727D01*
X145008675Y-114258721D01*
X145008689Y-114256671D01*
X145028582Y-114079324D01*
X145082543Y-113909218D01*
X145168516Y-113752832D01*
X145283228Y-113616124D01*
X145422308Y-113504301D01*
X145580460Y-113421621D01*
X145751659Y-113371235D01*
X145751690Y-113371232D01*
X145751704Y-113371228D01*
X145929380Y-113355059D01*
X146106818Y-113373708D01*
X146106818Y-113373708D01*
G37*
G36*
X148646818Y-113373708D02*
X148646823Y-113373709D01*
X148646866Y-113373714D01*
X148817344Y-113426486D01*
X148974326Y-113511366D01*
X149111831Y-113625120D01*
X149224623Y-113763417D01*
X149308405Y-113920987D01*
X149359985Y-114091830D01*
X149377400Y-114269438D01*
X149377400Y-114584597D01*
X149377326Y-114595273D01*
X149377325Y-114595279D01*
X149377311Y-114597329D01*
X149357418Y-114774676D01*
X149303457Y-114944782D01*
X149217484Y-115101168D01*
X149102772Y-115237876D01*
X148963692Y-115349699D01*
X148805540Y-115432379D01*
X148634341Y-115482765D01*
X148634310Y-115482768D01*
X148634296Y-115482772D01*
X148456620Y-115498941D01*
X148279182Y-115480292D01*
X148279177Y-115480291D01*
X148279134Y-115480286D01*
X148108656Y-115427514D01*
X147951674Y-115342634D01*
X147814169Y-115228880D01*
X147701377Y-115090583D01*
X147617595Y-114933013D01*
X147566015Y-114762170D01*
X147548600Y-114584562D01*
X147548600Y-114269403D01*
X147548674Y-114258727D01*
X147548675Y-114258721D01*
X147548689Y-114256671D01*
X147568582Y-114079324D01*
X147622543Y-113909218D01*
X147708516Y-113752832D01*
X147823228Y-113616124D01*
X147962308Y-113504301D01*
X148120460Y-113421621D01*
X148291659Y-113371235D01*
X148291690Y-113371232D01*
X148291704Y-113371228D01*
X148469380Y-113355059D01*
X148646818Y-113373708D01*
X148646818Y-113373708D01*
G37*
G36*
X151186818Y-113373708D02*
X151186823Y-113373709D01*
X151186866Y-113373714D01*
X151357344Y-113426486D01*
X151514326Y-113511366D01*
X151651831Y-113625120D01*
X151764623Y-113763417D01*
X151848405Y-113920987D01*
X151899985Y-114091830D01*
X151917400Y-114269438D01*
X151917400Y-114584597D01*
X151917326Y-114595273D01*
X151917325Y-114595279D01*
X151917311Y-114597329D01*
X151897418Y-114774676D01*
X151843457Y-114944782D01*
X151757484Y-115101168D01*
X151642772Y-115237876D01*
X151503692Y-115349699D01*
X151345540Y-115432379D01*
X151174341Y-115482765D01*
X151174310Y-115482768D01*
X151174296Y-115482772D01*
X150996620Y-115498941D01*
X150819182Y-115480292D01*
X150819177Y-115480291D01*
X150819134Y-115480286D01*
X150648656Y-115427514D01*
X150491674Y-115342634D01*
X150354169Y-115228880D01*
X150241377Y-115090583D01*
X150157595Y-114933013D01*
X150106015Y-114762170D01*
X150088600Y-114584562D01*
X150088600Y-114269403D01*
X150088674Y-114258727D01*
X150088675Y-114258721D01*
X150088689Y-114256671D01*
X150108582Y-114079324D01*
X150162543Y-113909218D01*
X150248516Y-113752832D01*
X150363228Y-113616124D01*
X150502308Y-113504301D01*
X150660460Y-113421621D01*
X150831659Y-113371235D01*
X150831690Y-113371232D01*
X150831704Y-113371228D01*
X151009380Y-113355059D01*
X151186818Y-113373708D01*
X151186818Y-113373708D01*
G37*
G36*
X153726818Y-113373708D02*
X153726823Y-113373709D01*
X153726866Y-113373714D01*
X153897344Y-113426486D01*
X154054326Y-113511366D01*
X154191831Y-113625120D01*
X154304623Y-113763417D01*
X154388405Y-113920987D01*
X154439985Y-114091830D01*
X154457400Y-114269438D01*
X154457400Y-114584597D01*
X154457326Y-114595273D01*
X154457325Y-114595279D01*
X154457311Y-114597329D01*
X154437418Y-114774676D01*
X154383457Y-114944782D01*
X154297484Y-115101168D01*
X154182772Y-115237876D01*
X154043692Y-115349699D01*
X153885540Y-115432379D01*
X153714341Y-115482765D01*
X153714310Y-115482768D01*
X153714296Y-115482772D01*
X153536620Y-115498941D01*
X153359182Y-115480292D01*
X153359177Y-115480291D01*
X153359134Y-115480286D01*
X153188656Y-115427514D01*
X153031674Y-115342634D01*
X152894169Y-115228880D01*
X152781377Y-115090583D01*
X152697595Y-114933013D01*
X152646015Y-114762170D01*
X152628600Y-114584562D01*
X152628600Y-114269403D01*
X152628674Y-114258727D01*
X152628675Y-114258721D01*
X152628689Y-114256671D01*
X152648582Y-114079324D01*
X152702543Y-113909218D01*
X152788516Y-113752832D01*
X152903228Y-113616124D01*
X153042308Y-113504301D01*
X153200460Y-113421621D01*
X153371659Y-113371235D01*
X153371690Y-113371232D01*
X153371704Y-113371228D01*
X153549380Y-113355059D01*
X153726818Y-113373708D01*
X153726818Y-113373708D01*
G37*
G36*
X144297400Y-115493800D02*
X142468600Y-115493800D01*
X142468600Y-113360200D01*
X144297400Y-113360200D01*
X144297400Y-115493800D01*
X144297400Y-115493800D01*
G37*
G36*
X154243800Y-111878800D02*
X152842200Y-111878800D01*
X152842200Y-110277200D01*
X154243800Y-110277200D01*
X154243800Y-111878800D01*
X154243800Y-111878800D01*
G37*
G36*
X151703800Y-111878800D02*
X150302200Y-111878800D01*
X150302200Y-110277200D01*
X151703800Y-110277200D01*
X151703800Y-111878800D01*
X151703800Y-111878800D01*
G37*
G36*
X149163800Y-111878800D02*
X147762200Y-111878800D01*
X147762200Y-110277200D01*
X149163800Y-110277200D01*
X149163800Y-111878800D01*
X149163800Y-111878800D01*
G37*
G36*
X146623800Y-111878800D02*
X145222200Y-111878800D01*
X145222200Y-110277200D01*
X146623800Y-110277200D01*
X146623800Y-111878800D01*
X146623800Y-111878800D01*
G37*
G36*
X141431800Y-111186800D02*
X139530200Y-111186800D01*
X139530200Y-109285200D01*
X141431800Y-109285200D01*
X141431800Y-111186800D01*
X141431800Y-111186800D01*
G37*
G36*
X134281800Y-111186800D02*
X132380200Y-111186800D01*
X132380200Y-109285200D01*
X134281800Y-109285200D01*
X134281800Y-111186800D01*
X134281800Y-111186800D01*
G37*
G36*
X146623800Y-109178800D02*
X145222200Y-109178800D01*
X145222200Y-107577200D01*
X146623800Y-107577200D01*
X146623800Y-109178800D01*
X146623800Y-109178800D01*
G37*
G36*
X149163800Y-109178800D02*
X147762200Y-109178800D01*
X147762200Y-107577200D01*
X149163800Y-107577200D01*
X149163800Y-109178800D01*
X149163800Y-109178800D01*
G37*
G36*
X151703800Y-109178800D02*
X150302200Y-109178800D01*
X150302200Y-107577200D01*
X151703800Y-107577200D01*
X151703800Y-109178800D01*
X151703800Y-109178800D01*
G37*
G36*
X154243800Y-109178800D02*
X152842200Y-109178800D01*
X152842200Y-107577200D01*
X154243800Y-107577200D01*
X154243800Y-109178800D01*
X154243800Y-109178800D01*
G37*
G36*
X140106400Y-103403400D02*
X137769600Y-103403400D01*
X137769600Y-101066600D01*
X140106400Y-101066600D01*
X140106400Y-103403400D01*
X140106400Y-103403400D01*
G37*
G36*
X150844000Y-102326600D02*
X149242400Y-102326600D01*
X149242400Y-100975000D01*
X150844000Y-100975000D01*
X150844000Y-102326600D01*
X150844000Y-102326600D01*
G37*
G36*
X148344000Y-102326600D02*
X146742400Y-102326600D01*
X146742400Y-100975000D01*
X148344000Y-100975000D01*
X148344000Y-102326600D01*
X148344000Y-102326600D01*
G37*
G36*
X154711400Y-98577400D02*
X152374600Y-98577400D01*
X152374600Y-96240600D01*
X154711400Y-96240600D01*
X154711400Y-98577400D01*
X154711400Y-98577400D01*
G37*
G36*
X134281800Y-98486800D02*
X132380200Y-98486800D01*
X132380200Y-96585200D01*
X134281800Y-96585200D01*
X134281800Y-98486800D01*
X134281800Y-98486800D01*
G37*
G36*
X141431800Y-98486800D02*
X139530200Y-98486800D01*
X139530200Y-96585200D01*
X141431800Y-96585200D01*
X141431800Y-98486800D01*
X141431800Y-98486800D01*
G37*
G36*
X147669000Y-86477000D02*
X146067400Y-86477000D01*
X146067400Y-85125400D01*
X147669000Y-85125400D01*
X147669000Y-86477000D01*
X147669000Y-86477000D01*
G37*
G36*
X145169000Y-86477000D02*
X143567400Y-86477000D01*
X143567400Y-85125400D01*
X145169000Y-85125400D01*
X145169000Y-86477000D01*
X145169000Y-86477000D01*
G37*
G36*
X141431800Y-85786800D02*
X139530200Y-85786800D01*
X139530200Y-83885200D01*
X141431800Y-83885200D01*
X141431800Y-85786800D01*
X141431800Y-85786800D01*
G37*
G36*
X134281800Y-85786800D02*
X132380200Y-85786800D01*
X132380200Y-83885200D01*
X134281800Y-83885200D01*
X134281800Y-85786800D01*
X134281800Y-85786800D01*
G37*
G36*
X154787600Y-84328000D02*
X152450800Y-84328000D01*
X152450800Y-81991200D01*
X154787600Y-81991200D01*
X154787600Y-84328000D01*
X154787600Y-84328000D01*
G37*
G36*
X134391400Y-80035400D02*
X132054600Y-80035400D01*
X132054600Y-77698600D01*
X134391400Y-77698600D01*
X134391400Y-80035400D01*
X134391400Y-80035400D01*
G37*
G36*
X149970490Y-78804770D02*
X146869150Y-78804770D01*
X146869150Y-77202030D01*
X149970490Y-77202030D01*
X149970490Y-78804770D01*
X149970490Y-78804770D01*
G37*
G36*
X153968450Y-78804770D02*
X150867110Y-78804770D01*
X150867110Y-77202030D01*
X153968450Y-77202030D01*
X153968450Y-78804770D01*
X153968450Y-78804770D01*
G37*
G36*
X134281800Y-73086800D02*
X132380200Y-73086800D01*
X132380200Y-71185200D01*
X134281800Y-71185200D01*
X134281800Y-73086800D01*
X134281800Y-73086800D01*
G37*
G36*
X141431800Y-73086800D02*
X139530200Y-73086800D01*
X139530200Y-71185200D01*
X141431800Y-71185200D01*
X141431800Y-73086800D01*
X141431800Y-73086800D01*
G37*
G36*
X155136600Y-71973600D02*
X153535000Y-71973600D01*
X153535000Y-70622000D01*
X155136600Y-70622000D01*
X155136600Y-71973600D01*
X155136600Y-71973600D01*
G37*
G36*
X152636600Y-71973600D02*
X151035000Y-71973600D01*
X151035000Y-70622000D01*
X152636600Y-70622000D01*
X152636600Y-71973600D01*
X152636600Y-71973600D01*
G37*
G36*
X144424400Y-69494400D02*
X142087600Y-69494400D01*
X142087600Y-67157600D01*
X144424400Y-67157600D01*
X144424400Y-69494400D01*
X144424400Y-69494400D01*
G37*
G36*
X133756400Y-68986400D02*
X131419600Y-68986400D01*
X131419600Y-66649600D01*
X133756400Y-66649600D01*
X133756400Y-68986400D01*
X133756400Y-68986400D01*
G37*
G36*
X154138463Y-66767821D02*
X154138468Y-66767823D01*
X154138510Y-66767827D01*
X154337402Y-66829394D01*
X154520547Y-66928421D01*
X154680970Y-67061134D01*
X154812560Y-67222480D01*
X154910306Y-67406312D01*
X154970483Y-67605629D01*
X154990800Y-67812838D01*
X154990800Y-67823196D01*
X154990711Y-67836001D01*
X154990710Y-67836007D01*
X154990696Y-67838057D01*
X154967488Y-68044962D01*
X154904534Y-68243419D01*
X154804231Y-68425869D01*
X154670401Y-68585361D01*
X154508140Y-68715822D01*
X154323630Y-68812282D01*
X154123898Y-68871066D01*
X154123862Y-68871069D01*
X154123853Y-68871072D01*
X153916555Y-68889938D01*
X153709537Y-68868179D01*
X153709532Y-68868177D01*
X153709490Y-68868173D01*
X153510598Y-68806606D01*
X153327453Y-68707579D01*
X153167030Y-68574866D01*
X153035440Y-68413520D01*
X152937694Y-68229688D01*
X152877517Y-68030371D01*
X152857200Y-67823162D01*
X152857200Y-67812804D01*
X152857289Y-67799999D01*
X152857290Y-67799993D01*
X152857304Y-67797943D01*
X152880512Y-67591038D01*
X152943466Y-67392581D01*
X153043769Y-67210131D01*
X153177599Y-67050639D01*
X153339860Y-66920178D01*
X153524370Y-66823718D01*
X153724102Y-66764934D01*
X153724138Y-66764931D01*
X153724147Y-66764928D01*
X153931445Y-66746062D01*
X154138463Y-66767821D01*
X154138463Y-66767821D01*
G37*
G36*
X152450800Y-68884800D02*
X150317200Y-68884800D01*
X150317200Y-66751200D01*
X152450800Y-66751200D01*
X152450800Y-68884800D01*
X152450800Y-68884800D01*
G37*
M02*
