G04 #@! TF.FileFunction,Legend,Top*
%FSLAX46Y46*%
G04 Gerber Fmt 4.6, Leading zero omitted, Abs format (unit mm)*
G04 Created by KiCad (PCBNEW 4.0.2-stable) date Sunday, January 22, 2017 'PMt' 02:28:49 PM*
%MOMM*%
G01*
G04 APERTURE LIST*
%ADD10C,0.100000*%
%ADD11C,0.150000*%
%ADD12R,2.336800X2.336800*%
%ADD13R,2.133600X2.133600*%
%ADD14O,2.133600X2.133600*%
%ADD15R,1.828800X2.133600*%
%ADD16O,1.828800X2.133600*%
%ADD17R,1.301600X1.301600*%
%ADD18R,1.601600X1.701600*%
%ADD19R,0.751600X1.161600*%
%ADD20R,1.401600X1.601600*%
%ADD21R,1.601600X1.401600*%
%ADD22R,1.351600X1.601600*%
%ADD23R,1.601600X1.351600*%
%ADD24R,1.601600X0.701600*%
G04 APERTURE END LIST*
D10*
D11*
X147159743Y-67622800D02*
X147064505Y-67575181D01*
X146921648Y-67575181D01*
X146778790Y-67622800D01*
X146683552Y-67718038D01*
X146635933Y-67813276D01*
X146588314Y-68003752D01*
X146588314Y-68146610D01*
X146635933Y-68337086D01*
X146683552Y-68432324D01*
X146778790Y-68527562D01*
X146921648Y-68575181D01*
X147016886Y-68575181D01*
X147159743Y-68527562D01*
X147207362Y-68479943D01*
X147207362Y-68146610D01*
X147016886Y-68146610D01*
X147635933Y-67908514D02*
X147635933Y-68575181D01*
X147635933Y-68003752D02*
X147683552Y-67956133D01*
X147778790Y-67908514D01*
X147921648Y-67908514D01*
X148016886Y-67956133D01*
X148064505Y-68051371D01*
X148064505Y-68575181D01*
X148969267Y-68575181D02*
X148969267Y-67575181D01*
X148969267Y-68527562D02*
X148874029Y-68575181D01*
X148683552Y-68575181D01*
X148588314Y-68527562D01*
X148540695Y-68479943D01*
X148493076Y-68384705D01*
X148493076Y-68098990D01*
X148540695Y-68003752D01*
X148588314Y-67956133D01*
X148683552Y-67908514D01*
X148874029Y-67908514D01*
X148969267Y-67956133D01*
X153249381Y-104187333D02*
X154249381Y-103854000D01*
X153249381Y-103520666D01*
X153868429Y-103187333D02*
X153868429Y-102425428D01*
X154249381Y-101377809D02*
X153773190Y-101711143D01*
X154249381Y-101949238D02*
X153249381Y-101949238D01*
X153249381Y-101568285D01*
X153297000Y-101473047D01*
X153344619Y-101425428D01*
X153439857Y-101377809D01*
X153582714Y-101377809D01*
X153677952Y-101425428D01*
X153725571Y-101473047D01*
X153773190Y-101568285D01*
X153773190Y-101949238D01*
X153725571Y-100949238D02*
X153725571Y-100615904D01*
X154249381Y-100473047D02*
X154249381Y-100949238D01*
X153249381Y-100949238D01*
X153249381Y-100473047D01*
X153725571Y-99711142D02*
X153725571Y-100044476D01*
X154249381Y-100044476D02*
X153249381Y-100044476D01*
X153249381Y-99568285D01*
X139192096Y-68334000D02*
X139096858Y-68286381D01*
X138954001Y-68286381D01*
X138811143Y-68334000D01*
X138715905Y-68429238D01*
X138668286Y-68524476D01*
X138620667Y-68714952D01*
X138620667Y-68857810D01*
X138668286Y-69048286D01*
X138715905Y-69143524D01*
X138811143Y-69238762D01*
X138954001Y-69286381D01*
X139049239Y-69286381D01*
X139192096Y-69238762D01*
X139239715Y-69191143D01*
X139239715Y-68857810D01*
X139049239Y-68857810D01*
X139668286Y-69286381D02*
X139668286Y-68286381D01*
X140239715Y-69286381D01*
X140239715Y-68286381D01*
X140715905Y-69286381D02*
X140715905Y-68286381D01*
X140954000Y-68286381D01*
X141096858Y-68334000D01*
X141192096Y-68429238D01*
X141239715Y-68524476D01*
X141287334Y-68714952D01*
X141287334Y-68857810D01*
X141239715Y-69048286D01*
X141192096Y-69143524D01*
X141096858Y-69238762D01*
X140954000Y-69286381D01*
X140715905Y-69286381D01*
X152028686Y-80538629D02*
X152790591Y-80538629D01*
X152409639Y-80919581D02*
X152409639Y-80157676D01*
X153171543Y-79919581D02*
X153790591Y-79919581D01*
X153457257Y-80300533D01*
X153600115Y-80300533D01*
X153695353Y-80348152D01*
X153742972Y-80395771D01*
X153790591Y-80491010D01*
X153790591Y-80729105D01*
X153742972Y-80824343D01*
X153695353Y-80871962D01*
X153600115Y-80919581D01*
X153314400Y-80919581D01*
X153219162Y-80871962D01*
X153171543Y-80824343D01*
X154076305Y-79919581D02*
X154409638Y-80919581D01*
X154742972Y-79919581D01*
X133167572Y-114911143D02*
X133119953Y-114958762D01*
X132977096Y-115006381D01*
X132881858Y-115006381D01*
X132739000Y-114958762D01*
X132643762Y-114863524D01*
X132596143Y-114768286D01*
X132548524Y-114577810D01*
X132548524Y-114434952D01*
X132596143Y-114244476D01*
X132643762Y-114149238D01*
X132739000Y-114054000D01*
X132881858Y-114006381D01*
X132977096Y-114006381D01*
X133119953Y-114054000D01*
X133167572Y-114101619D01*
X133596143Y-115006381D02*
X133596143Y-114006381D01*
X133596143Y-114482571D02*
X134167572Y-114482571D01*
X134167572Y-115006381D02*
X134167572Y-114006381D01*
X135834239Y-114339714D02*
X135834239Y-115006381D01*
X135596143Y-113958762D02*
X135358048Y-114673048D01*
X135977096Y-114673048D01*
X133929572Y-102846143D02*
X133881953Y-102893762D01*
X133739096Y-102941381D01*
X133643858Y-102941381D01*
X133501000Y-102893762D01*
X133405762Y-102798524D01*
X133358143Y-102703286D01*
X133310524Y-102512810D01*
X133310524Y-102369952D01*
X133358143Y-102179476D01*
X133405762Y-102084238D01*
X133501000Y-101989000D01*
X133643858Y-101941381D01*
X133739096Y-101941381D01*
X133881953Y-101989000D01*
X133929572Y-102036619D01*
X134358143Y-102941381D02*
X134358143Y-101941381D01*
X134358143Y-102417571D02*
X134929572Y-102417571D01*
X134929572Y-102941381D02*
X134929572Y-101941381D01*
X136072429Y-101941381D02*
X136691477Y-101941381D01*
X136358143Y-102322333D01*
X136501001Y-102322333D01*
X136596239Y-102369952D01*
X136643858Y-102417571D01*
X136691477Y-102512810D01*
X136691477Y-102750905D01*
X136643858Y-102846143D01*
X136596239Y-102893762D01*
X136501001Y-102941381D01*
X136215286Y-102941381D01*
X136120048Y-102893762D01*
X136072429Y-102846143D01*
X136215572Y-79351143D02*
X136167953Y-79398762D01*
X136025096Y-79446381D01*
X135929858Y-79446381D01*
X135787000Y-79398762D01*
X135691762Y-79303524D01*
X135644143Y-79208286D01*
X135596524Y-79017810D01*
X135596524Y-78874952D01*
X135644143Y-78684476D01*
X135691762Y-78589238D01*
X135787000Y-78494000D01*
X135929858Y-78446381D01*
X136025096Y-78446381D01*
X136167953Y-78494000D01*
X136215572Y-78541619D01*
X136644143Y-79446381D02*
X136644143Y-78446381D01*
X136644143Y-78922571D02*
X137215572Y-78922571D01*
X137215572Y-79446381D02*
X137215572Y-78446381D01*
X138406048Y-78541619D02*
X138453667Y-78494000D01*
X138548905Y-78446381D01*
X138787001Y-78446381D01*
X138882239Y-78494000D01*
X138929858Y-78541619D01*
X138977477Y-78636857D01*
X138977477Y-78732095D01*
X138929858Y-78874952D01*
X138358429Y-79446381D01*
X138977477Y-79446381D01*
X135326572Y-67413143D02*
X135278953Y-67460762D01*
X135136096Y-67508381D01*
X135040858Y-67508381D01*
X134898000Y-67460762D01*
X134802762Y-67365524D01*
X134755143Y-67270286D01*
X134707524Y-67079810D01*
X134707524Y-66936952D01*
X134755143Y-66746476D01*
X134802762Y-66651238D01*
X134898000Y-66556000D01*
X135040858Y-66508381D01*
X135136096Y-66508381D01*
X135278953Y-66556000D01*
X135326572Y-66603619D01*
X135755143Y-67508381D02*
X135755143Y-66508381D01*
X135755143Y-66984571D02*
X136326572Y-66984571D01*
X136326572Y-67508381D02*
X136326572Y-66508381D01*
X138088477Y-67508381D02*
X137517048Y-67508381D01*
X137802762Y-67508381D02*
X137802762Y-66508381D01*
X137707524Y-66651238D01*
X137612286Y-66746476D01*
X137517048Y-66794095D01*
X146407143Y-111458476D02*
X146454762Y-111506095D01*
X146502381Y-111648952D01*
X146502381Y-111744190D01*
X146454762Y-111887048D01*
X146359524Y-111982286D01*
X146264286Y-112029905D01*
X146073810Y-112077524D01*
X145930952Y-112077524D01*
X145740476Y-112029905D01*
X145645238Y-111982286D01*
X145550000Y-111887048D01*
X145502381Y-111744190D01*
X145502381Y-111648952D01*
X145550000Y-111506095D01*
X145597619Y-111458476D01*
X146502381Y-111029905D02*
X145502381Y-111029905D01*
X145978571Y-111029905D02*
X145978571Y-110458476D01*
X146502381Y-110458476D02*
X145502381Y-110458476D01*
X145835714Y-108791809D02*
X146502381Y-108791809D01*
X145454762Y-109029905D02*
X146169048Y-109268000D01*
X146169048Y-108648952D01*
X148947143Y-111458476D02*
X148994762Y-111506095D01*
X149042381Y-111648952D01*
X149042381Y-111744190D01*
X148994762Y-111887048D01*
X148899524Y-111982286D01*
X148804286Y-112029905D01*
X148613810Y-112077524D01*
X148470952Y-112077524D01*
X148280476Y-112029905D01*
X148185238Y-111982286D01*
X148090000Y-111887048D01*
X148042381Y-111744190D01*
X148042381Y-111648952D01*
X148090000Y-111506095D01*
X148137619Y-111458476D01*
X149042381Y-111029905D02*
X148042381Y-111029905D01*
X148518571Y-111029905D02*
X148518571Y-110458476D01*
X149042381Y-110458476D02*
X148042381Y-110458476D01*
X148042381Y-109315619D02*
X148042381Y-108696571D01*
X148423333Y-109029905D01*
X148423333Y-108887047D01*
X148470952Y-108791809D01*
X148518571Y-108744190D01*
X148613810Y-108696571D01*
X148851905Y-108696571D01*
X148947143Y-108744190D01*
X148994762Y-108791809D01*
X149042381Y-108887047D01*
X149042381Y-109172762D01*
X148994762Y-109268000D01*
X148947143Y-109315619D01*
X151487143Y-111458476D02*
X151534762Y-111506095D01*
X151582381Y-111648952D01*
X151582381Y-111744190D01*
X151534762Y-111887048D01*
X151439524Y-111982286D01*
X151344286Y-112029905D01*
X151153810Y-112077524D01*
X151010952Y-112077524D01*
X150820476Y-112029905D01*
X150725238Y-111982286D01*
X150630000Y-111887048D01*
X150582381Y-111744190D01*
X150582381Y-111648952D01*
X150630000Y-111506095D01*
X150677619Y-111458476D01*
X151582381Y-111029905D02*
X150582381Y-111029905D01*
X151058571Y-111029905D02*
X151058571Y-110458476D01*
X151582381Y-110458476D02*
X150582381Y-110458476D01*
X150677619Y-109268000D02*
X150630000Y-109220381D01*
X150582381Y-109125143D01*
X150582381Y-108887047D01*
X150630000Y-108791809D01*
X150677619Y-108744190D01*
X150772857Y-108696571D01*
X150868095Y-108696571D01*
X151010952Y-108744190D01*
X151582381Y-109315619D01*
X151582381Y-108696571D01*
X154027143Y-111458476D02*
X154074762Y-111506095D01*
X154122381Y-111648952D01*
X154122381Y-111744190D01*
X154074762Y-111887048D01*
X153979524Y-111982286D01*
X153884286Y-112029905D01*
X153693810Y-112077524D01*
X153550952Y-112077524D01*
X153360476Y-112029905D01*
X153265238Y-111982286D01*
X153170000Y-111887048D01*
X153122381Y-111744190D01*
X153122381Y-111648952D01*
X153170000Y-111506095D01*
X153217619Y-111458476D01*
X154122381Y-111029905D02*
X153122381Y-111029905D01*
X153598571Y-111029905D02*
X153598571Y-110458476D01*
X154122381Y-110458476D02*
X153122381Y-110458476D01*
X154122381Y-108696571D02*
X154122381Y-109268000D01*
X154122381Y-108982286D02*
X153122381Y-108982286D01*
X153265238Y-109077524D01*
X153360476Y-109172762D01*
X153408095Y-109268000D01*
X142756000Y-111506095D02*
X142708381Y-111601333D01*
X142708381Y-111744190D01*
X142756000Y-111887048D01*
X142851238Y-111982286D01*
X142946476Y-112029905D01*
X143136952Y-112077524D01*
X143279810Y-112077524D01*
X143470286Y-112029905D01*
X143565524Y-111982286D01*
X143660762Y-111887048D01*
X143708381Y-111744190D01*
X143708381Y-111648952D01*
X143660762Y-111506095D01*
X143613143Y-111458476D01*
X143279810Y-111458476D01*
X143279810Y-111648952D01*
X143708381Y-111029905D02*
X142708381Y-111029905D01*
X143708381Y-110458476D01*
X142708381Y-110458476D01*
X143708381Y-109982286D02*
X142708381Y-109982286D01*
X142708381Y-109744191D01*
X142756000Y-109601333D01*
X142851238Y-109506095D01*
X142946476Y-109458476D01*
X143136952Y-109410857D01*
X143279810Y-109410857D01*
X143470286Y-109458476D01*
X143565524Y-109506095D01*
X143660762Y-109601333D01*
X143708381Y-109744191D01*
X143708381Y-109982286D01*
X155093000Y-95859000D02*
X155093000Y-97409000D01*
X151993000Y-97409000D02*
X151993000Y-95859000D01*
X151993000Y-95859000D02*
X155093000Y-95859000D01*
X152273000Y-98679000D02*
X154813000Y-98679000D01*
X144806000Y-66776000D02*
X144806000Y-68326000D01*
X141706000Y-68326000D02*
X141706000Y-66776000D01*
X141706000Y-66776000D02*
X144806000Y-66776000D01*
X141986000Y-69596000D02*
X144526000Y-69596000D01*
X155169200Y-81609600D02*
X155169200Y-83159600D01*
X152069200Y-83159600D02*
X152069200Y-81609600D01*
X152069200Y-81609600D02*
X155169200Y-81609600D01*
X152349200Y-84429600D02*
X154889200Y-84429600D01*
X152654000Y-66548000D02*
X155194000Y-66548000D01*
X149834000Y-66268000D02*
X151384000Y-66268000D01*
X152654000Y-66548000D02*
X152654000Y-69088000D01*
X151384000Y-69368000D02*
X149834000Y-69368000D01*
X149834000Y-69368000D02*
X149834000Y-66268000D01*
X152654000Y-69088000D02*
X155194000Y-69088000D01*
X155194000Y-69088000D02*
X155194000Y-66548000D01*
X139853000Y-112877000D02*
X139853000Y-114427000D01*
X136753000Y-114427000D02*
X136753000Y-112877000D01*
X136753000Y-112877000D02*
X139853000Y-112877000D01*
X137033000Y-115697000D02*
X139573000Y-115697000D01*
X140488000Y-100685000D02*
X140488000Y-102235000D01*
X137388000Y-102235000D02*
X137388000Y-100685000D01*
X137388000Y-100685000D02*
X140488000Y-100685000D01*
X137668000Y-103505000D02*
X140208000Y-103505000D01*
X134773000Y-77317000D02*
X134773000Y-78867000D01*
X131673000Y-78867000D02*
X131673000Y-77317000D01*
X131673000Y-77317000D02*
X134773000Y-77317000D01*
X131953000Y-80137000D02*
X134493000Y-80137000D01*
X134138000Y-66268000D02*
X134138000Y-67818000D01*
X131038000Y-67818000D02*
X131038000Y-66268000D01*
X131038000Y-66268000D02*
X134138000Y-66268000D01*
X131318000Y-69088000D02*
X133858000Y-69088000D01*
X143383000Y-115977000D02*
X141833000Y-115977000D01*
X141833000Y-115977000D02*
X141833000Y-112877000D01*
X141833000Y-112877000D02*
X143383000Y-112877000D01*
X144653000Y-113157000D02*
X154813000Y-113157000D01*
X154813000Y-113157000D02*
X154813000Y-115697000D01*
X154813000Y-115697000D02*
X144653000Y-115697000D01*
X144653000Y-113157000D02*
X144653000Y-115697000D01*
X151231000Y-89763000D02*
X151231000Y-90213000D01*
X153581000Y-89763000D02*
X151231000Y-89763000D01*
X151231000Y-92863000D02*
X151231000Y-92413000D01*
X153581000Y-92863000D02*
X151231000Y-92863000D01*
X154733400Y-74350600D02*
G75*
G03X154733400Y-74350600I-100000J0D01*
G01*
X154383400Y-74900600D02*
X154383400Y-74400600D01*
X151483400Y-74900600D02*
X154383400Y-74900600D01*
X151483400Y-74400600D02*
X151483400Y-74900600D01*
X154383400Y-74400600D02*
X151483400Y-74400600D01*
X136907300Y-110594700D02*
X136907300Y-109394700D01*
X138657300Y-109394700D02*
X138657300Y-110594700D01*
X136306000Y-95645000D02*
X137506000Y-95645000D01*
X137506000Y-97395000D02*
X136306000Y-97395000D01*
X136306000Y-83199000D02*
X137506000Y-83199000D01*
X137506000Y-84949000D02*
X136306000Y-84949000D01*
X137428000Y-72888400D02*
X137428000Y-71688400D01*
X139178000Y-71688400D02*
X139178000Y-72888400D01*
X153711200Y-72172800D02*
X152511200Y-72172800D01*
X152511200Y-70422800D02*
X153711200Y-70422800D01*
X136346300Y-110494700D02*
X136346300Y-109494700D01*
X134646300Y-109494700D02*
X134646300Y-110494700D01*
X136406000Y-99656000D02*
X137406000Y-99656000D01*
X137406000Y-97956000D02*
X136406000Y-97956000D01*
X136406000Y-87083000D02*
X137406000Y-87083000D01*
X137406000Y-85383000D02*
X136406000Y-85383000D01*
X136638400Y-72813800D02*
X136638400Y-71813800D01*
X134938400Y-71813800D02*
X134938400Y-72813800D01*
X148125000Y-104399000D02*
X148125000Y-104284000D01*
X143975000Y-104399000D02*
X143975000Y-104284000D01*
X143975000Y-95499000D02*
X143975000Y-95614000D01*
X148125000Y-95499000D02*
X148125000Y-95614000D01*
X148125000Y-104399000D02*
X143975000Y-104399000D01*
X148125000Y-95499000D02*
X143975000Y-95499000D01*
X148125000Y-104284000D02*
X149500000Y-104284000D01*
X143467000Y-80132000D02*
X143467000Y-80247000D01*
X147617000Y-80132000D02*
X147617000Y-80247000D01*
X147617000Y-89032000D02*
X147617000Y-88917000D01*
X143467000Y-89032000D02*
X143467000Y-88917000D01*
X143467000Y-80132000D02*
X147617000Y-80132000D01*
X143467000Y-89032000D02*
X147617000Y-89032000D01*
X143467000Y-80247000D02*
X142092000Y-80247000D01*
X145950181Y-91943181D02*
X145616847Y-91466990D01*
X145378752Y-91943181D02*
X145378752Y-90943181D01*
X145759705Y-90943181D01*
X145854943Y-90990800D01*
X145902562Y-91038419D01*
X145950181Y-91133657D01*
X145950181Y-91276514D01*
X145902562Y-91371752D01*
X145854943Y-91419371D01*
X145759705Y-91466990D01*
X145378752Y-91466990D01*
X146235895Y-90943181D02*
X146569228Y-91943181D01*
X146902562Y-90943181D01*
X147759705Y-91943181D02*
X147188276Y-91943181D01*
X147473990Y-91943181D02*
X147473990Y-90943181D01*
X147378752Y-91086038D01*
X147283514Y-91181276D01*
X147188276Y-91228895D01*
X148378752Y-90943181D02*
X148473991Y-90943181D01*
X148569229Y-90990800D01*
X148616848Y-91038419D01*
X148664467Y-91133657D01*
X148712086Y-91324133D01*
X148712086Y-91562229D01*
X148664467Y-91752705D01*
X148616848Y-91847943D01*
X148569229Y-91895562D01*
X148473991Y-91943181D01*
X148378752Y-91943181D01*
X148283514Y-91895562D01*
X148235895Y-91847943D01*
X148188276Y-91752705D01*
X148140657Y-91562229D01*
X148140657Y-91324133D01*
X148188276Y-91133657D01*
X148235895Y-91038419D01*
X148283514Y-90990800D01*
X148378752Y-90943181D01*
X149664467Y-91943181D02*
X149093038Y-91943181D01*
X149378752Y-91943181D02*
X149378752Y-90943181D01*
X149283514Y-91086038D01*
X149188276Y-91181276D01*
X149093038Y-91228895D01*
X147637714Y-73721981D02*
X147637714Y-74531505D01*
X147685333Y-74626743D01*
X147732952Y-74674362D01*
X147828190Y-74721981D01*
X148018667Y-74721981D01*
X148113905Y-74674362D01*
X148161524Y-74626743D01*
X148209143Y-74531505D01*
X148209143Y-73721981D01*
X149209143Y-74721981D02*
X148637714Y-74721981D01*
X148923428Y-74721981D02*
X148923428Y-73721981D01*
X148828190Y-73864838D01*
X148732952Y-73960076D01*
X148637714Y-74007695D01*
X149828190Y-73721981D02*
X149923429Y-73721981D01*
X150018667Y-73769600D01*
X150066286Y-73817219D01*
X150113905Y-73912457D01*
X150161524Y-74102933D01*
X150161524Y-74341029D01*
X150113905Y-74531505D01*
X150066286Y-74626743D01*
X150018667Y-74674362D01*
X149923429Y-74721981D01*
X149828190Y-74721981D01*
X149732952Y-74674362D01*
X149685333Y-74626743D01*
X149637714Y-74531505D01*
X149590095Y-74341029D01*
X149590095Y-74102933D01*
X149637714Y-73912457D01*
X149685333Y-73817219D01*
X149732952Y-73769600D01*
X149828190Y-73721981D01*
X151113905Y-74721981D02*
X150542476Y-74721981D01*
X150828190Y-74721981D02*
X150828190Y-73721981D01*
X150732952Y-73864838D01*
X150637714Y-73960076D01*
X150542476Y-74007695D01*
X140253981Y-110389847D02*
X139777790Y-110723181D01*
X140253981Y-110961276D02*
X139253981Y-110961276D01*
X139253981Y-110580323D01*
X139301600Y-110485085D01*
X139349219Y-110437466D01*
X139444457Y-110389847D01*
X139587314Y-110389847D01*
X139682552Y-110437466D01*
X139730171Y-110485085D01*
X139777790Y-110580323D01*
X139777790Y-110961276D01*
X139253981Y-109485085D02*
X139253981Y-109961276D01*
X139730171Y-110008895D01*
X139682552Y-109961276D01*
X139634933Y-109866038D01*
X139634933Y-109627942D01*
X139682552Y-109532704D01*
X139730171Y-109485085D01*
X139825410Y-109437466D01*
X140063505Y-109437466D01*
X140158743Y-109485085D01*
X140206362Y-109532704D01*
X140253981Y-109627942D01*
X140253981Y-109866038D01*
X140206362Y-109961276D01*
X140158743Y-110008895D01*
X139253981Y-108818419D02*
X139253981Y-108723180D01*
X139301600Y-108627942D01*
X139349219Y-108580323D01*
X139444457Y-108532704D01*
X139634933Y-108485085D01*
X139873029Y-108485085D01*
X140063505Y-108532704D01*
X140158743Y-108580323D01*
X140206362Y-108627942D01*
X140253981Y-108723180D01*
X140253981Y-108818419D01*
X140206362Y-108913657D01*
X140158743Y-108961276D01*
X140063505Y-109008895D01*
X139873029Y-109056514D01*
X139634933Y-109056514D01*
X139444457Y-109008895D01*
X139349219Y-108961276D01*
X139301600Y-108913657D01*
X139253981Y-108818419D01*
X140253981Y-107532704D02*
X140253981Y-108104133D01*
X140253981Y-107818419D02*
X139253981Y-107818419D01*
X139396838Y-107913657D01*
X139492076Y-108008895D01*
X139539695Y-108104133D01*
X135736153Y-95092781D02*
X135402819Y-94616590D01*
X135164724Y-95092781D02*
X135164724Y-94092781D01*
X135545677Y-94092781D01*
X135640915Y-94140400D01*
X135688534Y-94188019D01*
X135736153Y-94283257D01*
X135736153Y-94426114D01*
X135688534Y-94521352D01*
X135640915Y-94568971D01*
X135545677Y-94616590D01*
X135164724Y-94616590D01*
X136593296Y-94426114D02*
X136593296Y-95092781D01*
X136355200Y-94045162D02*
X136117105Y-94759448D01*
X136736153Y-94759448D01*
X137307581Y-94092781D02*
X137402820Y-94092781D01*
X137498058Y-94140400D01*
X137545677Y-94188019D01*
X137593296Y-94283257D01*
X137640915Y-94473733D01*
X137640915Y-94711829D01*
X137593296Y-94902305D01*
X137545677Y-94997543D01*
X137498058Y-95045162D01*
X137402820Y-95092781D01*
X137307581Y-95092781D01*
X137212343Y-95045162D01*
X137164724Y-94997543D01*
X137117105Y-94902305D01*
X137069486Y-94711829D01*
X137069486Y-94473733D01*
X137117105Y-94283257D01*
X137164724Y-94188019D01*
X137212343Y-94140400D01*
X137307581Y-94092781D01*
X138593296Y-95092781D02*
X138021867Y-95092781D01*
X138307581Y-95092781D02*
X138307581Y-94092781D01*
X138212343Y-94235638D01*
X138117105Y-94330876D01*
X138021867Y-94378495D01*
X135837753Y-82697581D02*
X135504419Y-82221390D01*
X135266324Y-82697581D02*
X135266324Y-81697581D01*
X135647277Y-81697581D01*
X135742515Y-81745200D01*
X135790134Y-81792819D01*
X135837753Y-81888057D01*
X135837753Y-82030914D01*
X135790134Y-82126152D01*
X135742515Y-82173771D01*
X135647277Y-82221390D01*
X135266324Y-82221390D01*
X136171086Y-81697581D02*
X136790134Y-81697581D01*
X136456800Y-82078533D01*
X136599658Y-82078533D01*
X136694896Y-82126152D01*
X136742515Y-82173771D01*
X136790134Y-82269010D01*
X136790134Y-82507105D01*
X136742515Y-82602343D01*
X136694896Y-82649962D01*
X136599658Y-82697581D01*
X136313943Y-82697581D01*
X136218705Y-82649962D01*
X136171086Y-82602343D01*
X137409181Y-81697581D02*
X137504420Y-81697581D01*
X137599658Y-81745200D01*
X137647277Y-81792819D01*
X137694896Y-81888057D01*
X137742515Y-82078533D01*
X137742515Y-82316629D01*
X137694896Y-82507105D01*
X137647277Y-82602343D01*
X137599658Y-82649962D01*
X137504420Y-82697581D01*
X137409181Y-82697581D01*
X137313943Y-82649962D01*
X137266324Y-82602343D01*
X137218705Y-82507105D01*
X137171086Y-82316629D01*
X137171086Y-82078533D01*
X137218705Y-81888057D01*
X137266324Y-81792819D01*
X137313943Y-81745200D01*
X137409181Y-81697581D01*
X138694896Y-82697581D02*
X138123467Y-82697581D01*
X138409181Y-82697581D02*
X138409181Y-81697581D01*
X138313943Y-81840438D01*
X138218705Y-81935676D01*
X138123467Y-81983295D01*
X140739953Y-72664581D02*
X140406619Y-72188390D01*
X140168524Y-72664581D02*
X140168524Y-71664581D01*
X140549477Y-71664581D01*
X140644715Y-71712200D01*
X140692334Y-71759819D01*
X140739953Y-71855057D01*
X140739953Y-71997914D01*
X140692334Y-72093152D01*
X140644715Y-72140771D01*
X140549477Y-72188390D01*
X140168524Y-72188390D01*
X141120905Y-71759819D02*
X141168524Y-71712200D01*
X141263762Y-71664581D01*
X141501858Y-71664581D01*
X141597096Y-71712200D01*
X141644715Y-71759819D01*
X141692334Y-71855057D01*
X141692334Y-71950295D01*
X141644715Y-72093152D01*
X141073286Y-72664581D01*
X141692334Y-72664581D01*
X142311381Y-71664581D02*
X142406620Y-71664581D01*
X142501858Y-71712200D01*
X142549477Y-71759819D01*
X142597096Y-71855057D01*
X142644715Y-72045533D01*
X142644715Y-72283629D01*
X142597096Y-72474105D01*
X142549477Y-72569343D01*
X142501858Y-72616962D01*
X142406620Y-72664581D01*
X142311381Y-72664581D01*
X142216143Y-72616962D01*
X142168524Y-72569343D01*
X142120905Y-72474105D01*
X142073286Y-72283629D01*
X142073286Y-72045533D01*
X142120905Y-71855057D01*
X142168524Y-71759819D01*
X142216143Y-71712200D01*
X142311381Y-71664581D01*
X143597096Y-72664581D02*
X143025667Y-72664581D01*
X143311381Y-72664581D02*
X143311381Y-71664581D01*
X143216143Y-71807438D01*
X143120905Y-71902676D01*
X143025667Y-71950295D01*
X147750353Y-71851781D02*
X147417019Y-71375590D01*
X147178924Y-71851781D02*
X147178924Y-70851781D01*
X147559877Y-70851781D01*
X147655115Y-70899400D01*
X147702734Y-70947019D01*
X147750353Y-71042257D01*
X147750353Y-71185114D01*
X147702734Y-71280352D01*
X147655115Y-71327971D01*
X147559877Y-71375590D01*
X147178924Y-71375590D01*
X148702734Y-71851781D02*
X148131305Y-71851781D01*
X148417019Y-71851781D02*
X148417019Y-70851781D01*
X148321781Y-70994638D01*
X148226543Y-71089876D01*
X148131305Y-71137495D01*
X149321781Y-70851781D02*
X149417020Y-70851781D01*
X149512258Y-70899400D01*
X149559877Y-70947019D01*
X149607496Y-71042257D01*
X149655115Y-71232733D01*
X149655115Y-71470829D01*
X149607496Y-71661305D01*
X149559877Y-71756543D01*
X149512258Y-71804162D01*
X149417020Y-71851781D01*
X149321781Y-71851781D01*
X149226543Y-71804162D01*
X149178924Y-71756543D01*
X149131305Y-71661305D01*
X149083686Y-71470829D01*
X149083686Y-71232733D01*
X149131305Y-71042257D01*
X149178924Y-70947019D01*
X149226543Y-70899400D01*
X149321781Y-70851781D01*
X150607496Y-71851781D02*
X150036067Y-71851781D01*
X150321781Y-71851781D02*
X150321781Y-70851781D01*
X150226543Y-70994638D01*
X150131305Y-71089876D01*
X150036067Y-71137495D01*
X133630943Y-112421847D02*
X133678562Y-112469466D01*
X133726181Y-112612323D01*
X133726181Y-112707561D01*
X133678562Y-112850419D01*
X133583324Y-112945657D01*
X133488086Y-112993276D01*
X133297610Y-113040895D01*
X133154752Y-113040895D01*
X132964276Y-112993276D01*
X132869038Y-112945657D01*
X132773800Y-112850419D01*
X132726181Y-112707561D01*
X132726181Y-112612323D01*
X132773800Y-112469466D01*
X132821419Y-112421847D01*
X132726181Y-111517085D02*
X132726181Y-111993276D01*
X133202371Y-112040895D01*
X133154752Y-111993276D01*
X133107133Y-111898038D01*
X133107133Y-111659942D01*
X133154752Y-111564704D01*
X133202371Y-111517085D01*
X133297610Y-111469466D01*
X133535705Y-111469466D01*
X133630943Y-111517085D01*
X133678562Y-111564704D01*
X133726181Y-111659942D01*
X133726181Y-111898038D01*
X133678562Y-111993276D01*
X133630943Y-112040895D01*
X132726181Y-110850419D02*
X132726181Y-110755180D01*
X132773800Y-110659942D01*
X132821419Y-110612323D01*
X132916657Y-110564704D01*
X133107133Y-110517085D01*
X133345229Y-110517085D01*
X133535705Y-110564704D01*
X133630943Y-110612323D01*
X133678562Y-110659942D01*
X133726181Y-110755180D01*
X133726181Y-110850419D01*
X133678562Y-110945657D01*
X133630943Y-110993276D01*
X133535705Y-111040895D01*
X133345229Y-111088514D01*
X133107133Y-111088514D01*
X132916657Y-111040895D01*
X132821419Y-110993276D01*
X132773800Y-110945657D01*
X132726181Y-110850419D01*
X133726181Y-109564704D02*
X133726181Y-110136133D01*
X133726181Y-109850419D02*
X132726181Y-109850419D01*
X132869038Y-109945657D01*
X132964276Y-110040895D01*
X133011895Y-110136133D01*
X134008953Y-101042743D02*
X133961334Y-101090362D01*
X133818477Y-101137981D01*
X133723239Y-101137981D01*
X133580381Y-101090362D01*
X133485143Y-100995124D01*
X133437524Y-100899886D01*
X133389905Y-100709410D01*
X133389905Y-100566552D01*
X133437524Y-100376076D01*
X133485143Y-100280838D01*
X133580381Y-100185600D01*
X133723239Y-100137981D01*
X133818477Y-100137981D01*
X133961334Y-100185600D01*
X134008953Y-100233219D01*
X134866096Y-100471314D02*
X134866096Y-101137981D01*
X134628000Y-100090362D02*
X134389905Y-100804648D01*
X135008953Y-100804648D01*
X135580381Y-100137981D02*
X135675620Y-100137981D01*
X135770858Y-100185600D01*
X135818477Y-100233219D01*
X135866096Y-100328457D01*
X135913715Y-100518933D01*
X135913715Y-100757029D01*
X135866096Y-100947505D01*
X135818477Y-101042743D01*
X135770858Y-101090362D01*
X135675620Y-101137981D01*
X135580381Y-101137981D01*
X135485143Y-101090362D01*
X135437524Y-101042743D01*
X135389905Y-100947505D01*
X135342286Y-100757029D01*
X135342286Y-100518933D01*
X135389905Y-100328457D01*
X135437524Y-100233219D01*
X135485143Y-100185600D01*
X135580381Y-100137981D01*
X136866096Y-101137981D02*
X136294667Y-101137981D01*
X136580381Y-101137981D02*
X136580381Y-100137981D01*
X136485143Y-100280838D01*
X136389905Y-100376076D01*
X136294667Y-100423695D01*
X135786953Y-88690143D02*
X135739334Y-88737762D01*
X135596477Y-88785381D01*
X135501239Y-88785381D01*
X135358381Y-88737762D01*
X135263143Y-88642524D01*
X135215524Y-88547286D01*
X135167905Y-88356810D01*
X135167905Y-88213952D01*
X135215524Y-88023476D01*
X135263143Y-87928238D01*
X135358381Y-87833000D01*
X135501239Y-87785381D01*
X135596477Y-87785381D01*
X135739334Y-87833000D01*
X135786953Y-87880619D01*
X136120286Y-87785381D02*
X136739334Y-87785381D01*
X136406000Y-88166333D01*
X136548858Y-88166333D01*
X136644096Y-88213952D01*
X136691715Y-88261571D01*
X136739334Y-88356810D01*
X136739334Y-88594905D01*
X136691715Y-88690143D01*
X136644096Y-88737762D01*
X136548858Y-88785381D01*
X136263143Y-88785381D01*
X136167905Y-88737762D01*
X136120286Y-88690143D01*
X137358381Y-87785381D02*
X137453620Y-87785381D01*
X137548858Y-87833000D01*
X137596477Y-87880619D01*
X137644096Y-87975857D01*
X137691715Y-88166333D01*
X137691715Y-88404429D01*
X137644096Y-88594905D01*
X137596477Y-88690143D01*
X137548858Y-88737762D01*
X137453620Y-88785381D01*
X137358381Y-88785381D01*
X137263143Y-88737762D01*
X137215524Y-88690143D01*
X137167905Y-88594905D01*
X137120286Y-88404429D01*
X137120286Y-88166333D01*
X137167905Y-87975857D01*
X137215524Y-87880619D01*
X137263143Y-87833000D01*
X137358381Y-87785381D01*
X138644096Y-88785381D02*
X138072667Y-88785381D01*
X138358381Y-88785381D02*
X138358381Y-87785381D01*
X138263143Y-87928238D01*
X138167905Y-88023476D01*
X138072667Y-88071095D01*
X131595953Y-72797943D02*
X131548334Y-72845562D01*
X131405477Y-72893181D01*
X131310239Y-72893181D01*
X131167381Y-72845562D01*
X131072143Y-72750324D01*
X131024524Y-72655086D01*
X130976905Y-72464610D01*
X130976905Y-72321752D01*
X131024524Y-72131276D01*
X131072143Y-72036038D01*
X131167381Y-71940800D01*
X131310239Y-71893181D01*
X131405477Y-71893181D01*
X131548334Y-71940800D01*
X131595953Y-71988419D01*
X131976905Y-71988419D02*
X132024524Y-71940800D01*
X132119762Y-71893181D01*
X132357858Y-71893181D01*
X132453096Y-71940800D01*
X132500715Y-71988419D01*
X132548334Y-72083657D01*
X132548334Y-72178895D01*
X132500715Y-72321752D01*
X131929286Y-72893181D01*
X132548334Y-72893181D01*
X133167381Y-71893181D02*
X133262620Y-71893181D01*
X133357858Y-71940800D01*
X133405477Y-71988419D01*
X133453096Y-72083657D01*
X133500715Y-72274133D01*
X133500715Y-72512229D01*
X133453096Y-72702705D01*
X133405477Y-72797943D01*
X133357858Y-72845562D01*
X133262620Y-72893181D01*
X133167381Y-72893181D01*
X133072143Y-72845562D01*
X133024524Y-72797943D01*
X132976905Y-72702705D01*
X132929286Y-72512229D01*
X132929286Y-72274133D01*
X132976905Y-72083657D01*
X133024524Y-71988419D01*
X133072143Y-71940800D01*
X133167381Y-71893181D01*
X133881667Y-71988419D02*
X133929286Y-71940800D01*
X134024524Y-71893181D01*
X134262620Y-71893181D01*
X134357858Y-71940800D01*
X134405477Y-71988419D01*
X134453096Y-72083657D01*
X134453096Y-72178895D01*
X134405477Y-72321752D01*
X133834048Y-72893181D01*
X134453096Y-72893181D01*
X144335714Y-104776381D02*
X144335714Y-105585905D01*
X144383333Y-105681143D01*
X144430952Y-105728762D01*
X144526190Y-105776381D01*
X144716667Y-105776381D01*
X144811905Y-105728762D01*
X144859524Y-105681143D01*
X144907143Y-105585905D01*
X144907143Y-104776381D01*
X145335714Y-104871619D02*
X145383333Y-104824000D01*
X145478571Y-104776381D01*
X145716667Y-104776381D01*
X145811905Y-104824000D01*
X145859524Y-104871619D01*
X145907143Y-104966857D01*
X145907143Y-105062095D01*
X145859524Y-105204952D01*
X145288095Y-105776381D01*
X145907143Y-105776381D01*
X146526190Y-104776381D02*
X146621429Y-104776381D01*
X146716667Y-104824000D01*
X146764286Y-104871619D01*
X146811905Y-104966857D01*
X146859524Y-105157333D01*
X146859524Y-105395429D01*
X146811905Y-105585905D01*
X146764286Y-105681143D01*
X146716667Y-105728762D01*
X146621429Y-105776381D01*
X146526190Y-105776381D01*
X146430952Y-105728762D01*
X146383333Y-105681143D01*
X146335714Y-105585905D01*
X146288095Y-105395429D01*
X146288095Y-105157333D01*
X146335714Y-104966857D01*
X146383333Y-104871619D01*
X146430952Y-104824000D01*
X146526190Y-104776381D01*
X147240476Y-104871619D02*
X147288095Y-104824000D01*
X147383333Y-104776381D01*
X147621429Y-104776381D01*
X147716667Y-104824000D01*
X147764286Y-104871619D01*
X147811905Y-104966857D01*
X147811905Y-105062095D01*
X147764286Y-105204952D01*
X147192857Y-105776381D01*
X147811905Y-105776381D01*
X150125086Y-105335390D02*
X150077467Y-105287771D01*
X149982229Y-105240152D01*
X149886991Y-105240152D01*
X149791753Y-105287771D01*
X149744133Y-105335390D01*
X149696514Y-105430629D01*
X149696514Y-105525867D01*
X149744133Y-105621105D01*
X149791753Y-105668724D01*
X149886991Y-105716343D01*
X149982229Y-105716343D01*
X150077467Y-105668724D01*
X150125086Y-105621105D01*
X150125086Y-105240152D02*
X150125086Y-105621105D01*
X150172705Y-105668724D01*
X150220324Y-105668724D01*
X150315562Y-105621105D01*
X150363181Y-105525867D01*
X150363181Y-105287771D01*
X150267943Y-105144914D01*
X150125086Y-105049676D01*
X149934610Y-105002057D01*
X149744133Y-105049676D01*
X149601276Y-105144914D01*
X149506038Y-105287771D01*
X149458419Y-105478248D01*
X149506038Y-105668724D01*
X149601276Y-105811581D01*
X149744133Y-105906819D01*
X149934610Y-105954438D01*
X150125086Y-105906819D01*
X150267943Y-105811581D01*
X143827714Y-78659381D02*
X143827714Y-79468905D01*
X143875333Y-79564143D01*
X143922952Y-79611762D01*
X144018190Y-79659381D01*
X144208667Y-79659381D01*
X144303905Y-79611762D01*
X144351524Y-79564143D01*
X144399143Y-79468905D01*
X144399143Y-78659381D01*
X144827714Y-78754619D02*
X144875333Y-78707000D01*
X144970571Y-78659381D01*
X145208667Y-78659381D01*
X145303905Y-78707000D01*
X145351524Y-78754619D01*
X145399143Y-78849857D01*
X145399143Y-78945095D01*
X145351524Y-79087952D01*
X144780095Y-79659381D01*
X145399143Y-79659381D01*
X146018190Y-78659381D02*
X146113429Y-78659381D01*
X146208667Y-78707000D01*
X146256286Y-78754619D01*
X146303905Y-78849857D01*
X146351524Y-79040333D01*
X146351524Y-79278429D01*
X146303905Y-79468905D01*
X146256286Y-79564143D01*
X146208667Y-79611762D01*
X146113429Y-79659381D01*
X146018190Y-79659381D01*
X145922952Y-79611762D01*
X145875333Y-79564143D01*
X145827714Y-79468905D01*
X145780095Y-79278429D01*
X145780095Y-79040333D01*
X145827714Y-78849857D01*
X145875333Y-78754619D01*
X145922952Y-78707000D01*
X146018190Y-78659381D01*
X147303905Y-79659381D02*
X146732476Y-79659381D01*
X147018190Y-79659381D02*
X147018190Y-78659381D01*
X146922952Y-78802238D01*
X146827714Y-78897476D01*
X146732476Y-78945095D01*
X141895486Y-79147990D02*
X141847867Y-79100371D01*
X141752629Y-79052752D01*
X141657391Y-79052752D01*
X141562153Y-79100371D01*
X141514533Y-79147990D01*
X141466914Y-79243229D01*
X141466914Y-79338467D01*
X141514533Y-79433705D01*
X141562153Y-79481324D01*
X141657391Y-79528943D01*
X141752629Y-79528943D01*
X141847867Y-79481324D01*
X141895486Y-79433705D01*
X141895486Y-79052752D02*
X141895486Y-79433705D01*
X141943105Y-79481324D01*
X141990724Y-79481324D01*
X142085962Y-79433705D01*
X142133581Y-79338467D01*
X142133581Y-79100371D01*
X142038343Y-78957514D01*
X141895486Y-78862276D01*
X141705010Y-78814657D01*
X141514533Y-78862276D01*
X141371676Y-78957514D01*
X141276438Y-79100371D01*
X141228819Y-79290848D01*
X141276438Y-79481324D01*
X141371676Y-79624181D01*
X141514533Y-79719419D01*
X141705010Y-79767038D01*
X141895486Y-79719419D01*
X142038343Y-79624181D01*
%LPC*%
D12*
X153543000Y-97409000D03*
X143256000Y-68326000D03*
X153619200Y-83159600D03*
D13*
X151384000Y-67818000D03*
D14*
X153924000Y-67818000D03*
D12*
X138303000Y-114427000D03*
X138938000Y-102235000D03*
X133223000Y-78867000D03*
X132588000Y-67818000D03*
D15*
X143383000Y-114427000D03*
D16*
X145923000Y-114427000D03*
X148463000Y-114427000D03*
X151003000Y-114427000D03*
X153543000Y-114427000D03*
D17*
X154381000Y-90313000D03*
X154381000Y-92313000D03*
D18*
X151131000Y-91313000D03*
D19*
X153883400Y-73550600D03*
X152933400Y-73550600D03*
X151983400Y-73550600D03*
X151983400Y-75750600D03*
X153883400Y-75750600D03*
D20*
X137782300Y-108644700D03*
X137782300Y-111344700D03*
D21*
X138256000Y-96520000D03*
X135556000Y-96520000D03*
X138256000Y-84074000D03*
X135556000Y-84074000D03*
D20*
X138303000Y-70938400D03*
X138303000Y-73638400D03*
D21*
X151761200Y-71297800D03*
X154461200Y-71297800D03*
D22*
X135496300Y-108744700D03*
X135496300Y-111244700D03*
D23*
X138156000Y-98806000D03*
X135656000Y-98806000D03*
X138156000Y-86233000D03*
X135656000Y-86233000D03*
D22*
X135788400Y-71063800D03*
X135788400Y-73563800D03*
D24*
X148750000Y-103759000D03*
X148750000Y-102489000D03*
X148750000Y-101219000D03*
X148750000Y-99949000D03*
X148750000Y-98679000D03*
X148750000Y-97409000D03*
X148750000Y-96139000D03*
X143350000Y-96139000D03*
X143350000Y-97409000D03*
X143350000Y-98679000D03*
X143350000Y-99949000D03*
X143350000Y-101219000D03*
X143350000Y-102489000D03*
X143350000Y-103759000D03*
X142842000Y-80772000D03*
X142842000Y-82042000D03*
X142842000Y-83312000D03*
X142842000Y-84582000D03*
X142842000Y-85852000D03*
X142842000Y-87122000D03*
X142842000Y-88392000D03*
X148242000Y-88392000D03*
X148242000Y-87122000D03*
X148242000Y-85852000D03*
X148242000Y-84582000D03*
X148242000Y-83312000D03*
X148242000Y-82042000D03*
X148242000Y-80772000D03*
M02*
